<?xml version="1.0" encoding="UTF-8" standalone="no"?>
<svg id="svg4525" xmlns:rdf="http://www.w3.org/1999/02/22-rdf-syntax-ns#" xmlns="http://www.w3.org/2000/svg" y="0px" xml:space="preserve" height="56" width="56" version="1.0" enable-background="new 0 0 842.003 595" x="0px" xmlns:cc="http://creativecommons.org/ns#" xmlns:dc="http://purl.org/dc/elements/1.1/" viewBox="0 0 133.66136 89.902081"><g fill="#a1c181"><path id="path4531" d="m102.31 59.415c1.93-11.867-3.614-23.738-11.091-30.695-8.517-7.36-21.68-11.096-33.028-8.139-2.5837 0.39322-4.1347 1.5458-6.1923 2.193-8.7863 4.0019-15.365 12.385-18.073 21.682-2.447 10.957 1.2931 22.966 7.8722 30.576 6.4463 6.5804 13.67 10.193 22.712 11.997 7.3527 0.13408 15.858-0.77227 22.315-4.9031 7.8748-5.1712 13.67-12.648 15.483-22.71zm-51.471 6.4566c-0.52473-0.26043-0.91538-1.0379-1.2931-1.0379-3.3572 0.65752-7.4855 0.51828-9.8074 2.5863l-0.37775 0.25398c-0.922-0.512-1.824-1.289-1.824-2.183-3.61-5.558-0.382-9.684-0.903-14.974l2.4599-6.0621c0.89346-2.3284 3.6086-3.2193 5.6753-3.7427 0.25141-4.1308 1.4156-7.9999 2.8209-11.612 0.65494-0.77098 1.8217-1.1578 1.9519-2.1956 0-0.38291 0.1199-0.64076 0.1199-0.89733 4.3938-1.9378 10.073-5.4265 15.483-3.6241 2.8467 0 4.1295 1.8153 6.7196 1.8153l2.8351-1.9403c1.0327 0.38936 1.8011 0.77485 2.2021 1.5497v2.7126c-0.26172 0.25398-0.66397 0.38291-0.78387 0.38291-0.77098 0-1.6825-0.38291-2.7126-0.38291-1.4156 0.90635-3.3469 1.4208-3.3469 3.4797 0.12377 0.51828 0.37389 0.90506 0.37389 1.1552-0.25012 0.39451-0.63561 0.39451-0.77098 0.39451l-3.9877-2.0654c-0.27204 0.13022-0.64979 0.25141-0.9012 0.5157l-1.9365 3.3572c0.38549 0.51055 0.50797 0.78129 1.1526 0.9012 0.6369-0.1199 1.93-0.9012 2.3297 0l-3.0955 4.6388c-0.77872-0.1199-0.91538-0.90506-1.2944-1.2867-0.50926-0.13022-0.77356-0.13022-1.2867 0-1.0379-0.25141-1.2893-1.0301-1.551-1.6722h-6.846c0.51957-0.78129 1.0391-1.5471 1.0391-2.5811-0.12377-0.64463-0.39065-1.0314-0.64463-1.0314-1.6773 0.12506-3.0955 0.90377-3.6164 2.3207 0.51957 0.65494 0 0.13279 0 0.65494-0.77743 0.63561-1.676-0.14569-1.9378 0.63561-0.25141 1.0288-0.25141 2.0551-0.8999 2.5811 0.26172 0.90119-0.25656 2.0577 0.26172 2.5798 0.77356 0.51055 2.0577 0.51055 2.5759 1.2867 1.0353 3.3585 4.1372 6.4528 2.3233 10.317l0.65366 3.3676-1.0379 2.0551 2.322 5.5477c-0.64592 0.78-1.5407 2.2008-2.4483 2.2008zm25.278-31.224c-0.77098 1.5497-2.4496 1.9339-3.0826 3.3456-1.5613-0.51184-2.8531 0-4.27 0.26301-0.77485 0.52215-0.90248-0.37904-0.90248-0.64463 1.9339-1.5497 4.2571-4.8992 7.3488-4.6452l0.90635 1.6812zm15.735 28.374v2.068c-0.11732 0.78129-0.3842 0.78129-1.2867 1.6864-1.5394 0.89862-3.4797 2.701-5.2873 1.2777-0.38936-3.2206-2.7113-5.2873-3.6112-7.733-0.38807-0.25656-0.52473-0.38807-0.90377-0.38807-0.51442 0.13279-0.90248 0.38807-0.90248 0.90506 2.5798 3.2283 2.5798 8.2526 6.8434 9.284 0 0.52086-0.13666 0.77227-0.39967 0.91796l-5.5412 3.9916c-1.0379 1.1526-1.5536 3.2283-2.7139 5.157-2.0667 1.2983-2.7036 4.0032-5.0152 5.0359l-4.27 0.51184-2.1969-0.51184c-0.25012-0.77872 0.25527-1.4311 0-2.5888 0.25527-4.6388-1.4233-9.2853 0-13.803-0.51828-1.413-1.5432-2.447-2.5798-2.9614-1.4182-0.78129-3.3482-0.26043-3.8729-1.6773l-1.0263-3.356c0.11861-1.0327 0.64592-1.4233 0.8999-2.7126 1.4285-1.4169 2.8467-2.8338 4.7832-2.8338l3.9928-2.5876c0.48734 0 1.1823 0.67686 1.3911 0.13022h-0.23336l0.23336-0.01289c0.0026 0 0.0026-0.01289 0.0026-0.01289-0.10056-0.05544-0.18436-0.10443-0.23594-0.10443l0.23594-0.02321-1.3937-2.4212 1.2931-2.1917c0.64076-0.38678 1.805 0.12635 1.9313-0.52086l-0.28364-1.1668h-2.1685 2.1685l-0.22046-0.89604h-0.26946l-0.13279-0.12764c0-0.12377 0-0.3842-0.12377-0.3842h0.40225l-0.0026-0.01934c-0.07478-0.02321-0.14311-0.04512-0.14311-0.1199l0.11217-0.05931-0.24367-0.9721c0-0.76453 0.38936-0.89862 0.77871-1.2854 0.12635-0.12764 0.65752-0.12764 0.65752-0.12764l1.7934 0.6485c0.38549-0.52086 0.89733-0.52086 1.2944-0.6485 0.50926 0.12764 0.62916 0.25398 0.62916 0.51442 0.26301 0.89862-0.62916 0.89862-0.62916 1.5536 0.0361 0.06575 0.06446 0.14311 0.10701 0.21788l0.01676-0.35584 0.3365 0.77227h0.30169c-0.09283 0.09798-0.15729 0.17534-0.21273 0.23464l0.06833 0.15342 0.01289 0.0064v-0.12764 0.12764l0.06188 0.02578 0.46671-0.02578v0.25656c0.0361 0 0.07864 0.0064 0.13408 0.0064l1.1719-1.0198-0.0245-0.02192h0.02965l0.10572-0.08122v-0.42932l0.26301 0.19597 0.04512-0.03481c-0.0361-0.06317-0.05028-0.13022-0.05028-0.16116 0.05028 0.04899 0.07091 0.08509 0.08767 0.12119l3.1368-2.7062c0.77356 0.77743 2.322 1.0301 3.0865 0.39322 1.551-3.2244 3.4887-7.2224 1.551-10.848-0.89346-0.51184-2.1866-0.6369-2.3155-1.6709-0.13022-0.64205 0.12893-0.76582 0.76453-0.76582 0.65752 0.12377 1.4285 0 2.4573 0 5.0268 2.701 7.8748 7.7343 10.448 11.993 3.3598 8.1275 4.2597 17.281 0.64721 25.673-0.38936 0.13022-0.64721 0-0.64721 0l-0.645-1.812c-0.133-0.381-0.509-0.638-0.769-1.289-0.887-1.014-3.045-1.024-4.342-0.284l0.20886 0.02063h-0.25785z"/><path id="path4533" d="m103.45 77.993c-1.6748 0-2.9705-0.64463-4.6452-0.89862-0.9012 0.25398-1.4182 0.89862-1.9378 1.6735 2.3323 2.8402 6.4682 5.5464 7.4829 10.052 3.0942 5.0333 7.7498 8.0166 13.686 9.2943-4.6375-6.7132-6.0647-16.508-14.585-20.122z"/><path id="path4535" d="m93.669 82.39c-0.38033 0-0.52473 0-0.8999 0.24625-0.13408 0.26688-0.13408 0.38678-0.39838 0.90764-0.13022 1.1578 0.91796 1.6812 1.6799 2.193 2.1982 4.5163 6.8486 7.4855 11.868 9.5483l0.25399-0.25785v-0.25656c-2.94-4.769-5.67-11.355-12.501-12.381z"/><path id="path4537" d="m71.597 44.963h0.17147c-0.06833-0.02578-0.13795-0.04254-0.17147 0z"/><path id="path4539" d="m70.153 52.801s0 0.01289-0.0026 0.01289h0.02965c-0.0039 0-0.01676-0.01289-0.02707-0.01289z"/><path id="path4541" d="m72.241 44.834-0.1315-0.12764h-0.5157c0.15858 0.12764 0.25398 0.21402 0.30298 0.26688h0.34423c-0.10701 0-0.32103 0.08896-0.37646 0.21144l0.50023-0.12119v-0.08896l-0.12377-0.14053z"/><path id="path4543" d="m78.185 44.614-0.10572 0.08122h0.10572v-0.08122z"/><path id="path4545" d="m78.572 44.473c-0.02192-0.04126-0.05415-0.08767-0.07478-0.12248l-0.04512 0.03481 0.1199 0.08896v-0.0013z"/><path id="path4547" d="m88.924 62.638 0.09798 0.01031v-0.01031h-0.09798z"/><path id="path4549" d="m71.532 52.698h-0.4448v0.06446l0.44866-0.01547c0-0.0077 0-0.03868-0.0039-0.04899z"/><path id="path4551" d="m71.494 44.963c-0.04255-0.0064-0.09283-0.0064-0.13795-0.01031l0.0026 0.01934h0.13537v-0.009z"/><path id="path4553" d="m88.37 62.509h0.19984c-0.04384 0-0.06962 0.01031-0.06962-0.12377h-0.26043c0.08122 0.03868 0.13022 0.08767 0.13022 0.12377z"/><polygon id="polygon4555" transform="matrix(1.2893 0 0 1.2893 -767.21 -193.13)" points="663.83 198.35 663.83 198.38 664.02 198.38 664.05 198.38"/><path id="path4557" d="m104.11 70c-0.8883 0.11732-1.413 0.11732-1.8063 0.63818-0.25012 0.25141-0.38678 0.39709-0.38678 0.90506 0 0.3842 0 0.89733 0.38678 1.297l9.8074 4.6375h5.5528c0.51184-0.12893 0.76711-0.12893 0.51184-0.90248-4.3886-2.4573-8.3879-6.4579-14.066-6.5752z"/><path id="path4559" d="m119.87 66.893c-3.7595-3.3456-9.3007-3.6099-14.203-2.701-0.3958 0.25656-0.91151 0.38033-0.91151 0.38033 0 0.5157-0.64205 0.91666-0.64205 1.8114 4.6439 1.6683 8.0012 4.1295 11.997 6.8434 1.5574 1.0237 3.4952 1.5381 5.5528 2.193l6.1923-0.90635c-1.9455-3.6215-5.8056-4.9056-7.9857-7.6208z"/><path id="path4561" d="m2.0667 59.931 13.93 4.261c3.4733 0.25656 6.8344-0.52086 10.19-1.4272 1.288-0.50668 2.7036-1.5445 3.0981-2.8338l-0.911-2.446c-8.252 3.471-19.49-5.419-26.307 2.446z"/><path id="path4563" d="m122.56 56.579v-0.77227c-5.3002 0.12893-10.839-2.0654-15.997 0.77227-0.40096 0.25656-0.51957 1.4156-0.40096 2.0641l2.5863 0.77227c4.6555 0 9.6772-0.77227 13.812-2.8364z"/><path id="path4565" d="m71.855 52.698h-0.33521c0.0039 0.01031 0.0039 0.04126 0.0039 0.04899l0.8406-0.04899-0.70394 0.23465c0.21788 0.20757 0.63947 0.39967 0.85091 0.6717l1.4014 2.4599 5.8043 2.0551 0.13408-0.13279 0.38807-0.25012c0-0.72714-0.51055-1.1075-1.1242-1.4233h-0.04255v-0.02192c-0.58017-0.28364-1.2312-0.51184-1.6657-0.88701-0.08251 0-0.17792 0.0245-0.26946 0.04254 0.07349 0.07736 0.1315 0.16374 0.1315 0.22175-0.0116 0.0064-0.0116 0.01676-0.01547 0.02579 0.02836 0.01934-0.05544 0.05415 0 0-0.01547-0.01934-0.04255-0.02579-0.11603-0.02579v-0.22175c-0.53118 0.09798-1.2712 0.42546-1.9352 0.08896l-0.51184-3.218c-0.77743-0.65108-2.1776-0.51055-2.8351 0-0.10185 0.05802-0.16503 0.10443-0.2282 0.15858l0.2282-0.0361v0.25785z"/><path id="path4567" d="m28.767 52.698c0-0.37775 0-0.51055-0.39967-0.63561-3.357-0.393-7.081-0.899-10.709-0.899-2.6971 0.50797-5.8017 0.8999-7.6079 2.4432l9.4142 2.1956c3.2373 0.12764 7.0987-1.1681 9.3033-3.1033z"/><path id="path4569" d="m82.04 54.632c-0.26043 0.65237 0.39322 1.1668 0.8999 1.1668l0.39709-0.26301c-0.26172-0.51055-0.64334-0.90377-1.297-0.90377z"/><path id="path4571" d="m122.56 47.683c-5.4278-1.5484-11.348-1.8075-15.997 0.38678-0.65494 0.90506-0.13021 2.4496-0.40096 3.7492l12.913 2.3129c3.7453-0.38807 8.6355-1.0275 10.838-4.515-2.2021-0.77485-5.0397-0.52086-7.3527-1.9339z"/><path id="path4573" d="m17.667 37.356c-3.7324-3.4913-9.5483-3.2206-14.054-2.2021 0 0.78129-0.52215 0 0 0.78129 6.8382 3.4823 11.477 9.4168 19.737 11.219l0.37775-0.13022 5.5606-1.1552c0.38162-0.51828 0.52215-1.4195 0.38162-2.0731-4.6491-1.159-8.375-3.472-12.003-6.4399z"/><path id="path4575" d="m79.577 45.349c-0.1921 0.3236-0.39967 0.65494-0.75164 0.90506-0.26172 0.3842 0.11732 1.0327 0.65366 0.89862l2.3039-0.89862-0.24496-1.805s-0.39967-0.13795-0.77871-0.39065c-0.60209 0.2282-0.8651 0.71425-1.1358 1.2093l0.09798 0.08122h-0.1444z"/><path id="path4577" d="m104.36 41.095 0.39064 2.4535s0.26688 0 0.51571 0.24496c5.0333-0.50797 8.7734-3.0878 12.395-6.4399l1.2906-3.1007c-3.3547 0.52086-6.3303 4.261-10.719 3.9967-1.667 1.0301-3.0981 1.1668-3.8729 2.8454z"/><path id="path4579" d="m16.378 30.897c-1.297 0.25012-2.4509 0.12119-3.2322 1.159 3.619 2.7152 7.2276 5.9293 12.774 7.7407l5.5529-0.90764c0.1199-0.1199 0.37518-0.37775 0.37518-0.90506-4.3783-3.2116-8.8998-7.4726-15.47-7.0871z"/><path id="path4581" d="m122.69 25.998c0.12893-0.52602 0.38033-0.91538 0.50797-1.2893-4.6414 1.1539-9.7958 1.8024-14.833 3.0955-3.1032 1.4221-6.0686 3.2128-7.354 5.9332 0 1.4117 0.51829 2.7075 1.8114 3.6138h0.39193c7.996-2.2008 15.342-3.6125 19.476-11.353z"/><path id="path4583" d="m33.924 32.057 1.8153-0.51442c0.3726-0.64463 1.0327-1.0301 1.0327-2.0654-5.6856-2.5811-7.4893-9.1628-11.106-13.295-2.4444-1.8011-5.6728-3.744-9.672-4.1256 3.0929 3.6202 5.023 8.2564 6.9569 12.652 2.7139 4.0032 6.8537 5.674 10.973 7.3488z"/><path id="path4585" d="m110.3 14.123c-3.7337 2.7165-6.9556 6.7158-11.485 9.039-1.4182 1.4169-2.5734 2.1879-2.9627 3.7363l1.8024 2.5811h0.25785c3.4887-1.1565 6.4463-4.0044 9.0352-6.4528l3.3521-8.9036z"/><path id="path4587" d="m34.827 24.45 4.261 1.5536c0.64076 0 0.77356 0 1.2893-0.13408 0.24883 0 0.37775-0.25785 0.50797-0.78-2.4509-5.665-6.5739-9.4052-13.415-11.476h-0.63947l5.0191 8.6432 2.9769 2.193z"/><path id="path4589" d="m92.625 24.579 0.65366-0.13022c5.0217-5.5477 13.415-5.803 16.505-13.416 0.3842-1.6735 0.3842-3.102 0.90378-4.3912 0-0.12635-0.12764-0.12635-0.77614-0.12635-5.1648 4.7754-14.833 4.1347-18.068 11.481-0.11732 1.805-1.2867 2.9718-1.2867 4.6465 0.25914 1.0366 1.2867 1.4221 2.068 1.9365z"/><path id="path4591" d="m46.443 20.84 2.1892-0.77485c0.13279-0.13279 0.38678-0.52344 0.38678-0.90635-3.7427-6.9685-3.4784-16.387-11.099-21.286-1.1487-0.65366-1.676-1.2893-2.5824-1.4195 2.5824 4.6388 2.1956 11.605 4.3938 17.54 1.4285 2.8467 3.882 5.4278 6.7119 6.846z"/><path id="path4593" d="m83.342 18.249c0.1199 0.64721 0.64463 1.1681 1.6735 1.2893 0.39322 0 1.1642-0.1199 1.2867-0.38291 2.7203-3.2232 4.5189-9.293 2.848-14.065l-6.07 12.263c0 0.26172 0 0.63947 0.26172 0.89604z"/><path id="path4595" d="m53.534 18.004 0.26043-0.25785 0.38678-0.1199c1.287-2.594-0.386-6.07-1.793-8.7808-1.951-2.322-4.271-5.4278-6.846-6.7029 0.64076 2.9589 1.8024 5.9242 2.4522 9.4129 1.4169 2.447 2.4432 5.2924 5.54 6.4489z"/><path id="path4597" d="m78.572 16.844 0.37904-0.25785c3.1007-5.5503 9.1692-10.067 9.0352-17.673-0.63947-1.6915 0.26043-3.7479-0.89604-4.9172-2.3323 3.8807-6.7171 8.1417-10.072 12.262-1.6683 2.9666-2.184 6.4502-2.184 9.547l3.4746 1.2867 0.26301-0.24754z"/><path id="path4599" d="m60.109 15.683c0.12635 0 0.39451 0 0.52473 0.12119l2.4406-0.77742c-1.0327-5.1596 1.4298-10.696 2.322-16.116-0.89088-3.2348-1.4143-6.7235-3.4746-9.0352-2.3245 7.3449-6.7196 14.967-3.4887 23.221l1.676 2.5863z"/><path id="path4601" d="m67.987 15.297h0.26043c0.12635 0 0.64592 0 0.88959-0.26559 0.51957-0.9012 0.65495-2.3194 1.2906-3.4771 1.0417-4.9069 0-10.323-2.5695-13.805-0.38807 5.1545-3.2373 11.48-0.65108 16.642 0.26301 0.5157 0.26301 0.64076 0.78 0.90635z"/><polygon id="polygon4603" transform="matrix(1.2893 0 0 1.2893 -767.21 -193.13)" points="649.31 190.77 649.31 190.77 649.49 190.77 649.49 190.76"/><path id="path4605" d="m70.178 52.814h-0.02965v0.01289h0.07349c-0.01289 0-0.02965-0.0064-0.04384-0.01289z"/><path id="path4607" d="m71.532 52.75-0.44866 0.01547v0.19855h0.51828l0.06704-0.02708c-0.06704-0.05415-0.11088-0.11861-0.13666-0.18694z"/><path id="path4609" d="m71.532 52.75c0.02707 0.06833 0.07091 0.13279 0.13666 0.18565l0.70394-0.23465-0.8406 0.04899z"/><path id="path4611" d="m71.21 44.834c0 0.07478 0.06962 0.0967 0.14311 0.1199l-0.03094-0.17921-0.11217 0.05931z"/><path id="path4613" d="m71.597 44.705h0.5157l0.1315 0.12764 0.12377 0.13924v0.08896l0.1921-0.04899c0.0722-0.01934 0.1444-0.03997 0.19468-0.03997l-0.19468 0.03997c-0.07349 0.02321-0.13408 0.04899-0.1921 0.06575v0.15342h0.5157v-0.14311h0.26301l0.13022-0.11732v-0.13924h0.12248v-0.12764h0.13279v-0.12635h0.13022v-0.12377h0.12893l0.12764-0.13795c0-0.5157 0-0.89604 0.25398-1.2802l-2.848 1.7366 0.03094 0.17921c0.04512 0.0039 0.0954 0.0039 0.13795 0.01031l0.10314-0.25656z"/><path id="path4615" d="m78.443 44.189c0 0.03223 0.01418 0.09798 0.05028 0.16116l0.03739-0.03997c-0.01676-0.0361-0.03739-0.0722-0.08767-0.12119z"/><path id="path4617" d="m78.533 44.318-0.03739 0.03997c0.02063 0.03481 0.05286 0.08122 0.07478 0.12248 0-0.04126-0.009-0.10314-0.03739-0.16245z"/><path id="path4619" d="m78.572 44.486c-0.01289-0.009-0.01289-0.009-0.01289-0.01031v0.0013l0.01289 0.009z"/><polygon id="polygon4621" transform="matrix(1.2893 0 0 1.2893 -767.21 -193.13)" points="656.12 184.37"/><polygon id="polygon4623" transform="matrix(1.2893 0 0 1.2893 -767.21 -193.13)" points="655.72 184.07 655.72 184.07 655.72 184.4 655.92 184.22"/><path id="path4625" d="m78.443 44.963 0.12506 0.11732-0.38291-0.27719v0.27719h0.1199v0.26688h1.2764c0.01031-0.0245 0.03094-0.05157 0.04641-0.08122l-0.92182-0.6962v0.05802c0.03094 0.04512 0.08122 0.06833 0.12377 0.06833v0.26688h0.25141v0.11732c0.0116 0.02321 0.02192 0.02321 0.02192 0.02579 0.09798 0.03223 0.07993 0.06833 0 0-0.03352-0.0026-0.08122-0.02579-0.156-0.02579l-0.11732-0.11732-0.12377-0.13924v-0.19597c-0.03094-0.02578-0.04899-0.03868-0.05802-0.05802-0.08122-0.01289-0.08122-0.03868-0.08122-0.09798l-0.1199-0.08896-0.26301 0.23207v0.08122c0.25914 0.0052 0.25914 0.03868 0.25914 0.26688z"/><path id="path4627" d="m78.7 44.576-0.12635-0.08896c0.02578 0.03094 0.05157 0.05673 0.06833 0.08896h0.05802z"/><path id="path4629" d="m79.719 45.349-0.09798-0.08122c-0.01547 0.02965-0.0361 0.05673-0.04641 0.08122h0.1444z"/><path id="path4631" d="m79.1 45.104c0-0.0026-0.01031-0.0026-0.02192-0.02578v-0.11732h-0.25141l0.11732 0.11732c0.07478 0 0.12119 0.02321 0.156 0.02578z"/><path id="path4633" d="m78.829 44.963v-0.26688c-0.04255 0-0.09154-0.02321-0.12377-0.06833v0.19597l0.12377 0.13924z"/><path id="path4635" d="m79.1 45.104c0.07865 0.06833 0.09798 0.03223 0 0z"/><path id="path4637" d="m78.649 44.576c-0.01676-0.03223-0.04255-0.05802-0.06833-0.08896l-0.01289-0.009c0.0013 0.05931 0.0013 0.08509 0.08122 0.09798z"/><path id="path4639" d="m78.7 44.64v-0.05802h-0.05802c0.009 0.01805 0.02707 0.03223 0.05802 0.05802z"/><path id="path4641" d="m76.406 45.646c0.0954 0.04255 0.21402 0.06962 0.3597 0.09412v-0.25656l-0.46671 0.02579 0.20112 0.10185c-0.02578 0-0.0477 0.02063-0.09412 0.03481z"/><path id="path4643" d="m76.315 45.697 0.18694 0.43577 0.13795-0.13408 0.12764-0.12377v-0.13408c-0.14569-0.0245-0.2643-0.05157-0.3597-0.09412-0.02578 0.01289-0.06317 0.03352-0.09283 0.05028z"/><path id="path4645" d="m75.645 45.543-4.0418 0.20242c0.64721 0.38678 1.6799 0 2.1917 0.25141v0.13408h0.25527c0 0.24754 0.12635 0 0.12635 0.24754h0.39065v0.13795h1.1642v-0.13795h0.38549c0-0.24754 0.12119 0 0.12119-0.24754h-0.62916l0.0361-0.5879z"/><path id="path4647" d="m76.135 45.427 0.08509 0.05157-0.06833-0.15342c-0.0245 0.02192-0.03997 0.04512-0.05415 0.07091 0.01418 0 0.02707 0.02578 0.03739 0.03094z"/><path id="path4649" d="m76.07 45.079-0.3365-0.77227-0.01676 0.35584c0.06833 0.15987 0.14053 0.29911 0.21273 0.41643h0.14053z"/><path id="path4651" d="m76.135 45.427c-0.01031-0.0039-0.02321-0.02965-0.0361-0.03223l-0.01934 0.0013 0.05544 0.03094z"/><path id="path4653" d="m75.929 45.079c-0.0722-0.11732-0.1444-0.25656-0.21273-0.41643l-0.04255 0.41643h0.25527z"/><path id="path4655" d="m75.825 45.478h-0.09154v-0.12764h-0.06575l-0.02192 0.18823 0.21789-0.01934c-0.0064-0.009-0.01934-0.02965-0.03868-0.04126z"/><path id="path4657" d="m76.238 45.749v0.25141h-0.25398v-0.25141s-0.05286-0.10056-0.12119-0.22175l-0.21788 0.01934-0.0361 0.58919h0.89217l-0.18694-0.43577c-0.01418 0.01676-0.03997 0.02965-0.07607 0.04899z"/><path id="path4659" d="m76.238 45.994v-0.25141c-0.02579 0.01547-0.04255 0.03223-0.08509 0.05415 0.0606 0.07349 0.08509 0.15342 0.08509 0.19726z"/><path id="path4661" d="m76.367 45.079h-0.30169l0.08896 0.23465c0.05544-0.05931 0.11861-0.13666 0.21273-0.23465z"/><path id="path4663" d="m75.348 45.079c0.13795 0 0.13795 0.14311 0.13795 0.26688h0.18179l0.0064-0.26688h-0.32618z"/><path id="path4665" d="m76.096 45.388c0.01418-0.02578 0.02965-0.04899 0.05415-0.07091l-0.08896-0.23465h-0.13924c0.05415 0.11088 0.11217 0.22433 0.17405 0.30556z"/><path id="path4667" d="m75.722 45.478h0.09154c-0.03997-0.10314-0.09154-0.20886-0.09154-0.25141l0.1315 0.12377 0.12119 0.12764v-0.12764l0.10056 0.03997 0.01934-0.0013c-0.06189-0.08122-0.1199-0.19468-0.17534-0.30556h-0.25527l-0.0064 0.26688h0.06575v0.12764h-0.0013z"/><path id="path4669" d="m75.98 45.865v0.12377h0.25398l-0.15342-0.15987c-0.03739 0.01934-0.06188 0.0361-0.10056 0.0361z"/><polygon id="polygon4671" transform="matrix(1.2893 0 0 1.2893 -767.21 -193.13)" points="650.52 185.07 650.5 184.97 650.4 184.97 650.4 184.97 650.21 184.97 650.31 185.07"/><path id="path4673" d="m72.112 45.349v-0.12377l0.1315-0.14311c0.02836 0 0.07091-0.0013 0.12377-0.01031v-0.01676l-0.50023 0.12119c-0.01031 0.0039-0.01031 0.02707-0.01031 0.04899v0.12377h-0.4087l0.02965 0.12764h0.5041l0.13022-0.12764z"/><path id="path4675" d="m72.37 45.053v0.01676c0.05931-0.01676 0.1199-0.04255 0.1921-0.06575l-0.1921 0.04899z"/><path id="path4677" d="m72.564 45.014 0.19468-0.03997c-0.04899-0.0013-0.12248 0.02063-0.19468 0.03997z"/><path id="path4679" d="m71.764 44.963h0.13279c-0.04899-0.05415-0.1444-0.13924-0.30298-0.26688v0.26688c0.03223-0.04254 0.10185-0.02578 0.17018 0z"/><polygon id="polygon4681" transform="matrix(1.2893 0 0 1.2893 -767.21 -193.13)" points="650.51 184.9 650.51 184.9 650.64 184.88 650.51 184.88"/><path id="path4683" d="m71.494 44.963v0.009h0.10443c-0.02707 0-0.06962-0.009-0.10443-0.009z"/><path id="path4685" d="m71.597 44.705-0.10443 0.25785c0.03352 0 0.07736 0.009 0.10443 0.009v-0.26688z"/><polygon id="polygon4687" transform="matrix(1.2893 0 0 1.2893 -767.21 -193.13)" points="650.81 184.88 650.64 184.88 650.51 184.9 650.51 184.9 650.51 184.97 650.81 184.97"/><polygon id="polygon4689" transform="matrix(1.2893 0 0 1.2893 -767.21 -193.13)" points="654.21 185.09 654.21 185.09 654.21 185.07 654.2 185.07"/><polygon id="polygon4691" transform="matrix(1.2893 0 0 1.2893 -767.21 -193.13)" points="654.26 185.09 654.26 185.09 654.21 185.07 654.21 185.09"/><polygon id="polygon4693" transform="matrix(1.2893 0 0 1.2893 -767.21 -193.13)" points="654.21 185.09 654.21 185.09 654.21 185.09 654.21 185.1"/><path id="path4695" d="m76.238 45.517 0.009 0.01934c0.05931 0.03223 0.09798 0.06833 0.15987 0.10314 0.04641-0.01547 0.06833-0.03481 0.09412-0.03481l-0.20112-0.10185h-0.06188v0.01418z"/><path id="path4697" d="m76.406 45.646c-0.06188-0.03481-0.10056-0.07091-0.15987-0.10314l0.06833 0.15342c0.02965-0.01547 0.06704-0.0361 0.09154-0.05028z"/><path id="path4699" d="m76.212 45.504h0.02579l-0.01289-0.03223-0.08509-0.05157c0.01805 0.03739 0.05673 0.05802 0.0722 0.0838z"/><path id="path4701" d="m76.032 45.517 0.18179-0.0064c-0.01547-0.02578-0.05415-0.0477-0.07349-0.08251l-0.05544-0.02965c-0.01676 0.05028-0.03739 0.08638-0.05286 0.11861z"/><path id="path4703" d="m76.238 45.53v-0.02192h-0.02579c0.01289 0.0064 0.02579 0.02192 0.02579 0.02192z"/><path id="path4705" d="m76.238 45.543-0.009-0.01934v0.0064c0.0064 0.01289 0.0064 0.01289 0.009 0.01289z"/><path id="path4707" d="m76.238 45.749c0.0361-0.01934 0.06188-0.03223 0.07735-0.04899l-0.06833-0.15342c-0.0026 0-0.0026 0-0.009-0.01289v0.21531z"/><path id="path4709" d="m76.019 45.569c0.0245 0.06575 0.08122 0.14698 0.13022 0.2282 0.04255-0.02192 0.0606-0.03868 0.08509-0.05415v-0.21531s-0.01289-0.01547-0.02578-0.02192l-0.18179 0.0064c0.0013 0.01676-0.0077 0.0361-0.0077 0.05673z"/><path id="path4711" d="m75.98 45.749v0.12764c0-0.04641 0.01547-0.09412 0.01547-0.12764h-0.01547z"/><path id="path4713" d="m76.032 45.517c0.01547-0.03223 0.0361-0.06833 0.05286-0.1199l-0.10056-0.03997v0.12764c0 0.01031 0.01547 0.02578 0.01547 0.04126l0.03223-0.009z"/><path id="path4715" d="m76.019 45.569c0-0.02192 0.009-0.03997 0.009-0.05544l-0.03223 0.009c-0.0013 0.0064 0.0116 0.02579 0.02321 0.04641z"/><path id="path4717" d="m75.993 45.749c0 0.03352-0.01547 0.08122-0.01547 0.12764 0.03868 0 0.06317-0.01676 0.10056-0.0361l-0.08509-0.09154z"/><path id="path4719" d="m71.416 45.182-0.05286-0.21144h-0.40225c0.12377 0 0.12377 0.26043 0.12377 0.3842l0.29137-0.07478 0.03997-0.09798z"/><path id="path4721" d="m72.241 44.963h-0.34423c0.15987 0.14053 0.02321 0.03997-0.13279 0h-0.17147v0.11732h0.26043v0.09412h0.01031c0.05673-0.12119 0.27074-0.21144 0.37775-0.21144z"/><polygon id="polygon4723" transform="matrix(1.2893 0 0 1.2893 -767.21 -193.13)" points="650.53 184.67 650.53 184.67 650.43 184.67 650.47 184.84"/><polygon id="polygon4725" transform="matrix(1.2893 0 0 1.2893 -767.21 -193.13)" points="650.44 184.91 650.44 184.91 650.21 184.97 650.4 184.97"/><path id="path4727" d="m71.855 45.233c0-0.02192 0-0.04512 0.01031-0.04899h-0.01031v0.04899z"/><polygon id="polygon4729" transform="matrix(1.2893 0 0 1.2893 -767.21 -193.13)" points="650.47 184.84 650.47 184.84 650.44 184.91 650.48 184.91"/><polygon id="polygon4731" transform="matrix(1.2893 0 0 1.2893 -767.21 -193.13)" points="650.81 184.76 650.61 184.76 650.61 184.67 650.53 184.67 650.47 184.84 650.48 184.91 650.51 184.9 650.51 184.88 650.64 184.88 650.81 184.84"/><path id="path4733" d="m71.906 44.963h-0.13279c0.15471 0.04126 0.29266 0.14053 0.13279 0z"/><polygon id="polygon4735" transform="matrix(1.2893 0 0 1.2893 -767.21 -193.13)" points="650.44 184.91 650.4 184.97 650.5 184.97 650.48 184.91"/><polygon id="polygon4737" transform="matrix(1.2893 0 0 1.2893 -767.21 -193.13)" points="650.48 184.91 650.5 184.97 650.51 184.97 650.51 184.9"/><polygon id="polygon4739" transform="matrix(1.2893 0 0 1.2893 -767.21 -193.13)" points="650.64 184.88 650.64 184.88 650.81 184.88 650.81 184.84"/><path id="path4741" d="m75.98 45.478h-0.15987c0.02063 0.01031 0.03223 0.03223 0.03868 0.04126h0.12119v-0.04126z"/><path id="path4743" d="m76.135 45.801c0.06446 0.08509 0.10443 0.13408 0.10443 0.1921 0-0.04512-0.02578-0.12377-0.08509-0.19855 0 0.0064-0.01289 0.0064-0.01934 0.0064z"/><path id="path4745" d="m75.864 45.517c0.06833 0.12119 0.12119 0.22175 0.12119 0.22175v-0.22175h-0.12119z"/><path id="path4747" d="m75.864 45.349-0.1315-0.12377c0 0.04255 0.05157 0.14955 0.09154 0.25141h0.15987l-0.1199-0.12764z"/><path id="path4749" d="m76.083 45.839 0.15342 0.15987c0-0.05802-0.03997-0.10701-0.10443-0.1921-0.01676 0.02192-0.02965 0.02836-0.04899 0.03223z"/><path id="path4751" d="m75.993 45.517c0-0.01547-0.01547-0.02965-0.01547-0.04126v0.04126h0.01547z"/><path id="path4753" d="m76.135 45.801c0.0064 0 0.01934 0 0.01934-0.0064-0.04899-0.08122-0.10572-0.16245-0.13022-0.2282 0 0.0039-0.0116 0.01289-0.0116 0.01934 0.03094 0.09025 0.07349 0.16632 0.12248 0.21531z"/><path id="path4755" d="m76.006 45.581c-0.01289-0.01934-0.01289-0.03997-0.01289-0.06575h-0.01547v0.22175h0.01547c0-0.05802 0-0.10959 0.01289-0.156z"/><path id="path4757" d="m75.993 45.517c0-0.01547-0.01547-0.02965-0.01547-0.04126 0.0013 0.0116 0.01547 0.02578 0.01547 0.04126z"/><path id="path4759" d="m75.993 45.517c0 0.02578 0 0.04641 0.01289 0.06575 0-0.0064 0.0116-0.01418 0.0116-0.01934-0.0116-0.02063-0.0245-0.03997-0.0245-0.04641z"/><path id="path4761" d="m75.993 45.749 0.08509 0.09154c0.01934-0.0039 0.03223-0.01031 0.04899-0.03223-0.04899-0.04899-0.09154-0.12635-0.12248-0.21531-0.0116 0.04641-0.0116 0.09798-0.0116 0.156z"/><path id="path4763" d="m78.043 44.705 0.0245 0.02192 0.0064-0.02192h-0.03094z"/><path id="path4765" d="m78.185 44.705h-0.10572l-0.0064 0.02192 0.11217 0.08509v-0.10701z"/><path id="path4767" d="m78.443 44.963c0-0.2282 0-0.26301-0.25785-0.26688v0.10701l0.38291 0.27719-0.12506-0.11732z"/><path id="path4769" d="m70.153 52.672-0.23594 0.02321c0.05157 0 0.13408 0.04899 0.23594 0.10443 0.01031-0.03997 0.02192-0.05931 0.02321-0.10443l-0.02321-0.02321z"/><path id="path4771" d="m71.081 52.763v-0.06446h0.4448c-0.01289-0.06833 0.02965-0.14698 0.10701-0.21918l-1.4775 0.19597 0.02321 0.02321c-0.0013 0.04512-0.01289 0.06446-0.02321 0.10443 0.01031 0 0.02321 0.01289 0.02707 0.01289l0.89862-0.05286z"/><path id="path4773" d="m70.81 52.969v-0.13279h-0.59048c0.20241 0.10185 0.44351 0.21015 0.59048 0.13279z"/><path id="path4775" d="m71.532 52.698h0.33521v-0.25656l-0.2282 0.0361c-0.07736 0.07349-0.1199 0.15213-0.10701 0.22046z"/><path id="path4777" d="m70.178 52.814c0.01547 0.0064 0.03094 0.01289 0.04255 0.01289h0.85478v-0.06575l-0.89733 0.05286z"/><path id="path4779" d="m91.851 63.025h0.26043l-0.20886-0.02063c-0.01031 0.01031-0.02965 0.01031-0.05157 0.02063z"/><path id="path4781" d="m89.788 62.741 0.77485 0.27203h1.2867c0.02192-0.01031 0.03997-0.01031 0.05157-0.02063l-2.1131-0.25141z"/><path id="path4783" d="m88.086 62.123 0.03352 0.02192v-0.02192h-0.03352z"/><polygon id="polygon4785" transform="matrix(1.2893 0 0 1.2893 -767.21 -193.13)" points="663.52 198.18"/><path id="path4787" d="m88.563 62.509h-0.19984c0-0.0361-0.04899-0.08509-0.13022-0.12377-0.16889-0.12893-0.50668-0.26688-0.50668-0.26688 0 0.13795 0.1199 0.13795 0.1199 0.39065l0.77485 0.09154c0-0.08122-0.02965-0.08122-0.05802-0.09154z"/><path id="path4789" d="m88.628 62.6c0.0116 0.0064 0.0116 0.02708 0.0116 0.04126v-0.04126h-0.0116z"/><path id="path4791" d="m88.641 62.509h-0.06962c0.02707 0.01031 0.05802 0.01031 0.05802 0.09154h0.0116v-0.09154z"/><path id="path4793" d="m88.886 62.638c0 0.2643 0.1315 0 0.1315 0.2643h0.12764c0-0.25398-0.12764-0.01547-0.12764-0.25398l-0.09798-0.01031h-0.03352z"/><path id="path4795" d="m89.53 63.154h0.25141v0.12764h1.0327v-0.12764c-0.11474-0.13408-0.77871 0.12764-0.90248 0v-0.13408h-0.46414c0.03352 0.01289 0.08251-0.0116 0.08251 0.13408z"/><path id="path4797" d="m88.241 62.38h0.26043c0 0.13408 0.02578 0.12377 0.06962 0.12377h0.06962v0.09154l0.28622 0.04126h0.09798v0.01031l0.76582 0.09412-1.6748-0.60595c0.0116 0.21788 0.12506-0.0116 0.12506 0.24496z"/><path id="path4799" d="m88.086 62.123-0.34681-0.11732c0 0.11088 0.19984 0.11732 0.34681 0.11732z"/><path id="path4801" d="m89.453 63.025c-0.02965 0-0.04512-0.01031-0.04512-0.11217v0.11217h0.04512z"/><path id="path4803" d="m76.638 54.761c0.12764 0 0.12764 0.03868 0.12764 0.06317v-0.06317h-0.12764z"/><path id="path4805" d="m76.496 54.387c-0.51699-0.77614-0.3842-0.52086 0 0.12635h0.13795v-0.12635h-0.13795z"/><path id="path4807" d="m77.102 55.406c-0.03094-0.02192-0.05931-0.05157-0.09541-0.07478 0 0.03481 0 0.07478 0.09541 0.07478z"/><path id="path4809" d="m76.767 54.825v0.20112h0.13408v-0.13279c-0.13408 0-0.13408-0.03352-0.13408-0.06833z"/><path id="path4811" d="m77.14 55.406h-0.0361c0.0116 0.01676 0.0245 0.0245 0.0361 0.04255v-0.04255z"/><path id="path4813" d="m76.896 55.29c0.01934 0 0.07349 0.01031 0.11346 0.04512 0-0.02321-0.01289-0.04512-0.11346-0.04512z"/><polygon id="polygon4815" transform="matrix(1.2893 0 0 1.2893 -767.21 -193.13)" points="654.91 192.8"/><path id="path4817" d="m77.257 55.702c-0.05544 0.05415 0.02836 0.01934 0 0z"/><path id="path4819" d="m77.257 55.702c0.0039-0.0077 0.0039-0.01934 0.01547-0.02578 0-0.05802-0.05802-0.14569-0.1315-0.22175v0.22175c0.07349 0.0013 0.10056 0.0064 0.11603 0.02578z"/><path id="path4821" d="m79.719 56.321 0.13408-0.12635c0-0.12377 0-0.26043 0.12119-0.26043h-0.8999v0.36486c0.02192 0.0064 0.03997 0.02192 0.04255 0.02192h0.60208z"/><path id="path4823" d="m79.126 56.321c-0.0026 0-0.02192-0.01547-0.04254-0.02192v0.02192h0.04254z"/></g></svg>
