<?xml version="1.0" encoding="UTF-8" standalone="no"?>
<svg id="svg2" xmlns:rdf="http://www.w3.org/1999/02/22-rdf-syntax-ns#" xmlns="http://www.w3.org/2000/svg" xml:space="preserve" height="56" width="56" version="1.1" y="0px" x="0px" xmlns:cc="http://creativecommons.org/ns#" xmlns:dc="http://purl.org/dc/elements/1.1/" viewBox="-37.000092 376.53854 56 56.000001"><style id="style4" type="text/css">
	.st0{fill:#DC241F;}
</style><path id="rect4148" style="color-rendering:auto;color:#000000;isolation:auto;mix-blend-mode:normal;shape-rendering:auto;solid-color:#000000;image-rendering:auto" d="m21.887 1.9785c-0.6788 0.6977-1.139 1.4872-1.2656 2.6562-0.2344 2.1899-1.172 3.5177-1.4844 4.2207-0.3125 0.7031-1.406 2.1877 0.15625 4.1406 1.5623 1.9529 1.4844 2.1875 1.875 2.8906 0.3906 0.703 1.3281 1.8732 0.625 2.2637-0.703 0.3906-2.5002-0.23262-4.1406-2.1074-1.6405-1.8748-2.1876-3.4375-2.8906-3.4375-0.7031 0-0.39058 1.3282-0.23438 1.7188 0.1563 0.3906 0.07805 1.7188-0.15625 2.5781-0.2344 0.862 0.5471 5.3147 2.5 7.0332 1.9529 1.7186 2.5784 2.3419 4.5312 2.8887 1.9529 0.5468 4.4513 1.0155 4.7637 0.9375 0.3125-0.0781 1.1719-1.0156 1.1719-1.0156s0.8619-0.3126-0.3125-1.25c-1.1717-0.9373-5.3105-4.2988-5.3105-4.2988l0.39062-0.85938 1.6406 1.7227s0.44192 0.61952 1.6406 0.07813c0.5064-0.229 1.1496-0.59079 1.3516-0.36719 0.1996 0.2209-0.16219 1.063 0.03711 1.2812 0.202 0.2236 1.8889 1.5291 2.3711 1.7715 0.4822 0.2398 0.58515 0.13898 0.84375 0.52148 0.2613 0.3798 2.1498 3.3141 2.9336 3.4141 0.7839 0.1 1.8462 0.11967 2.0859 0.13867 0.2424 0.0216 2.3706 0.34213 2.3496 0.80273-0.0189 0.4633-0.66254 0.24219-1.0234 0.24219-0.361 0-3.1114-0.08061-3.7148-0.09961-0.6034-0.0216-8.1932-1.0862-9.3164-1.5684-0.000001 0-0.1212 0.16172 0 0.26172 0.1212 0.1023 1.1028 0.88386 1.2832 1.2852 0.1805 0.4014 0.32113 0.80575 0.86523 1.1855 0.5414 0.3825 1.4654 0.96474 1.7266 1.0859 0.2613 0.1185 1.445 0.72123 1.7871 0.86133 0.3421 0.14 1.3642 0.8233 1.7656 0.9043 0.4013 0.0809 1.6083 0.56445 2.209 0.56445 0.6034 0 2.9343 0.17706 7.834-1.3691 4.8997-1.5434 10.281-5.6837 10.822-9.7188 0.5442-4.0351-0.2207-5.625-0.2207-5.625s-0.64173-2.6867-2.5488-2.8887c-1.9098-0.1994-1.7475 1.3468-1.5078 1.7266 0.2424 0.3825-0.24023 0.62109-0.24023 0.62109s-1.5057 1.1044-1.8262 1.4277c0 0-0.86505-0.30231-1.1855 0.05859-0.3233 0.361-0.59989 0.65191-0.9043 3.1328-0.1993 1.6458-4.0315 2.9659-6.7871 2.3086-0.4202-0.0996-3.0235-0.89919-2.5898-2.3672 0.0996-0.3417 1.3045-0.13906 1.5254-0.03906 0.6222 0.2801 1.1034 0.78009 2.0273 0.62109 0.9239-0.1616 2.2314-0.58059 2.7539-0.74219 0.5226-0.1616 2.107-0.30361 2.5703-1.6289 0.4606-1.3253 0.60117-1.7253 0.70117-3.293 0.0997-1.565-0.12109-2.6914-0.12109-2.6914s-0.05778-0.44234-0.23828-0.40234c-0.1805 0.0404-0.22121 0.12257-0.38281 0.76367-0.1616 0.6437-0.80377 1.5458-1.1055 1.5078-0.3017-0.0404-0.68351-0.35978-0.88281-0.30078-0.2021 0.0593-0.62192 1.3238-1.166 1.8652-0.5414 0.5441-3.554 2.975-4.3379 3.2148-0.7838 0.2424-1.7666 0.48203-2.168 0.58203-0.4013 0.1023-1.5863 0.50391-1.9473 0.50391-0.3636 0-1.2478-0.56293-1.7676-0.92383-0.5226-0.361-1.2251-0.86523-1.2871-0.86523-0.0591 0-0.03647-0.24024 0.08203-0.24024 0.1212 0 1.2254 0.54194 3.375 0.46094 2.1468-0.0808 4.9294-0.62554 5.7832-3.2734 0.6223-1.9292-0.64361-1.9492-0.94531-1.9492-0.299 0-2.121 0.25623-3.6133 1.207-0.2209 0.1428-0.56231-0.10003-0.88281-0.36133-0.3233-0.2613-0.92465-0.98563-1.4688-1.1445-0.5414-0.1616-1.6859-0.54516-2.0469-1.0059-0.3614-0.4633-0.16158-0.63979-0.02148-0.74219 0.1428-0.0997 0.58182-0.58284 0.82422-0.30274 0.2398 0.2828 0.34089 0.46353 0.62109 0.58203 0.2828 0.1213 1.2453 0.50298 1.4473 0.58398 0.1993 0.0808 1.9069 1.005 2.75 0.46094 0.8458-0.5414 1.3477-1.0829 1.3477-1.627 0-0.5414 0.05777-0.88281 0.25976-0.88281 0.1993 0 0.72237 0.14209 1.043 0.80469 0.3232 0.6599 0.66512 1.0241 1.0449 1.8672 0.3825 0.8431 0.8446 2.1088 1.4668 1.8691 0.6248-0.2424 0.64258-0.74414 0.64258-0.74414s0.76192-0.66389 1.2656-0.96289c0.5011-0.3017 1.2049-0.82453 1.4258-1.207 0.2209-0.3798 0.74262-0.88334 0.98242-0.90234 0.2424-0.0216 1.8292-0.66384 1.3066-2.7109-0.5226-2.0499-1.786-3.9189-4.7812-4.3203-2.99-0.4013-5.6215-0.018497-6.707 0.2832-1.0829 0.3017-4.1154 1.5265-3.9941 2.7305 0.1212 1.2041 0.76172 1.7051 0.76172 1.7051s2.5328 0.04091 2.9746 0.16211c0.4417 0.1213 1.4032 0.32271 1.3652 0.66211-0.0404 0.3421-0.28239 0.54245-0.46289 0.56445-0.1804 0.019-0.77882-0.41875-3.5156-0.06055-0.461 0.0593-0.39695-0.17076-0.50195-0.38086-0.1212-0.2424-0.1981-0.70352-0.7207-0.60352-0.5226 0.1024-1.6884 0.48161-2.0898 0.66211-0.4013 0.1804-1.7894 0.92364-2.25 1.2441-0.4606 0.3233-0.86223 0.84427-0.58203 1.1055 0.2801 0.2613 0.86716 0.4655 1.8477 0.5625 0.199 0.0189 0.18112 0.26091 0.04102 0.44141-0.1427 0.1804-0.48359 1.3653-1.3672 1.1445-0.8862-0.2209-1.2647 0.14074-1.3047-2.5098-0.0404-2.6506-0.30218-2.5483 0.54102-2.5293 0.8431 0.0216 2.9107-0.42346 3.875-1.7891 0.9644-1.3657 0.32195-1.0644 0.68555-1.8887 0.361-0.8216 0.7217-2.167 2.75-2.4688 2.0284-0.299 1.9687-0.019769 3.6738-0.48047 0 0 1.2059 0.38035 1.7285 0.21875 0.5199-0.1589 1.0653-0.92228 0.86328-1.2051-0.1509-0.2101-0.31316-0.48172-0.41016-0.95312h1.7734c0.3178 0.5172 0.52617 0.70762 1.3262 1.2949 1.126 0.8242 2.291 1.4277 2.291 1.4277l-0.01954-0.3418s0.36186-0.0004063 0.60156 0.058594c0.2424 0.0592 0.58371 0.30375 1.0039 0.34375 0.4229 0.0405 0.88445 0.11739 1.127 0.62109 0.2397 0.501 0.29809 0.98407 0.40039 1.3262 0.0997 0.3421 0.31984 0.62224 0.96094 0.90234 0.6437 0.2829 1.2659 0.58483 0.8457 1.207-0.4233 0.6222-1.3459 1.5459-0.32226 3.6738 0 0 0.12019-0.06211 0.40039-0.16211 0.2828-0.0996 3.7172-1.1238 3.2539-4.1973-0.369-2.462-2.5693-4.9206-4.0293-6.1543zm-5.543 2.4024c-0.4984 0-4.2789 0.49774-6.4473 3.3691-2.1684 2.8715-2.9008 5.9178-2.8418 7.5879 0.0593 1.67 0.70328 5.8888 2.5215 7.9414 1.8155 2.0498 2.6369 2.5544 3.1621 2.7188 0.2048 0.064 1.853 0.85605 1.875 0.09375 0.0081-0.2559 0.15298-0.51496 0.27148-0.63086 0.369-0.3691 0.63875-0.25545 0.87305-0.31445 0.2316-0.0593 0.359-0.27671 0.1543-0.57031-0.2074-0.2936-1.5336-2.6156-1.7383-3.2891-0.2048-0.6734-1.1419-4.6608-1.1719-5.8594-0.0296-1.2014-0.1453-2.4027 0.9375-3.3105 1.0856-0.9077 3.3163-2.7295 3.5156-5.0703 0.0889-1.0263-0.17383-1.6699-0.17383-1.6699 0-0.3502 0.08859-0.34898 0.05859-0.64258-0.0296-0.2939-0.49779-0.35352-0.99609-0.35352zm-15.08 15.764v12.633c2.2088 2.9867 4.0092 3.3615 6.1934 3.6758 2.3893 0.3421 2.5501-0.84616 2.7305-1.2852 0.1805-0.4445 0.44194-0.30479 0.68164-0.18359 0.2425 0.1212 1.045 0.74253 1.8477 1.9277 0.3017-1.0425-1.4465-2.7304-1.627-2.9297-0.3151-0.3502-0.56002-0.58474-0.54102-1.3066 0.1886-6.756-4.8003-10.524-5.3633-10.984-0.43199-0.3542-2.8276-1.181-3.9219-1.5469zm15.813 6.6875c-0.1 0.0997-0.18062 0.24067-0.14062 0.48047 0.0404 0.2424 0.26143 0.32219 0.58203 1.2461 0.3232 0.9213 0.74415 2.3493 1.4688 4.3965 0.7219 2.0498 1.4027 3.6354 2.5879 4.4785 1.1853 0.8429 3.0917 1.5259 5.6641 0.78516 2.5698-0.7431 4.1348-0.70312 4.1348-0.70312s4.5393-0.14397 5.0215-0.88477c0 0-0.07863-0.14169-0.24023-0.17969-0.1616-0.0404-3.5837-0.19312-8.6855-2.1406 0 0-0.5259-0.38294-0.6875-0.46094-0.1616-0.0808-1.3317-0.57104-1.6738-1.2148-0.34-0.644-0.842-2.389-2.108-3.233-1.2633-0.8431-1.2241-0.96435-2.6895-1.627-1.468-0.6627-3.2344-0.94336-3.2344-0.94336zm-1.0859 4.3008c-0.3798-0.0297-0.84808 0.3233-1.5215 0.9375-0.6734 0.6141-1.056 1.9328-1.1719 2.7812-0.1185 0.8512 0.05998 1.3478 0.17578 1.8164 0.1185 0.4714-0.11719 0.9082-0.11719 0.9082s-0.64612 2.6658-0.70312 3.8672c-0.0592 1.2014 0.20508 3.2832 0.20508 3.2832s-0.85095 1.3179-1.4355 2.3145c-0.5872 0.9967-1.8175 4.1317-2.1973 5.0098-0.264 0.6115-0.81445 1.8691-0.81445 1.8691l1.7793 0.0078c0.5313-1.1972 1.3484-3.0311 1.4473-3.2441 0.1454-0.3232 0.32031-1.2891 0.32031-1.2891 0.2936 0.3502 0.32297 1.9336 0.29297 2.4023-0.0296 0.4687 0.20542 1.2002 0.35352 1.5234 0.06852 0.14977 0.15582 0.39302 0.22852 0.60742h5.7676c0.17356-0.18969 0.38598-0.3719 0.65039-0.43164 0.6438-0.1482 2.7539-1.7891 2.7539-1.7891 0.06509 0.3095 0.59763 1.3514 1.0586 2.2207l13.141 0.0019c-3.1141-6.8769-10.457-5.9805-10.457-5.9805 0.9401-1.4357 0.17773-2.373 0.17773-2.373-0.2047-1.8748-1.6402-2.2276-2.082-2.373-0.4391-0.1482-0.55553-0.35393-0.64453-0.61523-0.0862-0.264-0.52736-0.7627-0.81836-0.9082-0.3205-0.1616-0.46766-0.70313-2.2266-0.70313-2.4324 0-4.9215 1.9922-5.1855 2.2266-0.2641 0.2343-0.26478-0.17572-0.17578-0.35352 0.0862-0.1751 0.73278-1.0241 1.1719-1.8457 0.439-0.8188 0-1.0234 0-1.0234 1.5811-1.6404 2.0205-3.1656 1.875-3.2246-0.1481-0.0592-1.0554 0.99645-1.4648 1.4355-0.4094 0.4394-0.55827 0.76306-0.82227 0.41016-0.3906-0.5199 1.4359-2.7224 1.8184-3.4551 0.3798-0.7327-0.38246-1.3202-0.43945-1.4062-0.0588-0.0889-0.26386-0.35462 0.05664-0.26562 0.3233 0.087 0.73242 0.03125 0.73242 0.03125-0.7623-1.7886-1.346-2.343-1.7285-2.373zm26.566 6.377c-0.32884 0.0075-0.65866 0.03004-0.98828 0.06641-2.6371 0.2939-3.4278 0.35156-3.7188 0.35156-0.2936 0-2.2283 0.20852-3.4297 1.2617s-3.1351 1.8148-3.5742 2.0195-1.9649 1.4355-1.7305 3.5176c0.2343 2.0795 0.67676 3.0179 3.6641 3.6348 2.987 0.6141 8.3508 1.6095 10.137-0.99805 1.7886-2.6101 2.2859-3.3688 2.6953-3.8672 0.4095-0.4983 0.52871-0.70272 0.87891-0.76172 0.3528-0.0592 0.90687-0.2049 1.2598-0.9375h0.002c0.3529-0.7331 2.2535-0.70312 2.6953-0.70312 0.36748 0 3.0379 0.33146 4.2891 1.0605v-0.60938c-1.4757-0.82964-4.5233-2.5327-6.0488-3-1.5886-0.4879-3.829-1.0879-6.1309-1.0352z" transform="translate(-37 376.54)" fill="#c61148"/></svg>
