<?xml version="1.0" encoding="UTF-8" standalone="no"?>
<svg id="svg2" xmlns:rdf="http://www.w3.org/1999/02/22-rdf-syntax-ns#" xmlns="http://www.w3.org/2000/svg" xml:space="preserve" height="56" viewBox="-37.000092 376.53854 56 56.000001" width="56" version="1.1" y="0px" x="0px" xmlns:cc="http://creativecommons.org/ns#" xmlns:dc="http://purl.org/dc/elements/1.1/"><style id="style4" type="text/css">
	.st0{fill:#DC241F;}
</style><g fill="#f37a48"><path id="path3053" d="m0.062938 405.2c1.6198-0.93989 3.1971-0.98233 4.8177-0.98233 0.80988 0.0425 1.6207 0.0848 2.473 0.0425 0.85322-0.0425 1.7489-0.17064 2.687-0.4695 3.0264-1.023 5.0317-2.3872 7.4189-4.8611 0 2.3032-0.85141 4.0945-3.4111 6.0556-2.6861 2.0477-5.6276 3.0707-9.0396 3.2847-1.1936 0.0831-1.9619-0.0443-2.6861-0.12821-0.72501-0.0857-1.4934-0.12911-2.6445 0-1.961 0.25551-3.0282 0.72501-4.5622 1.748 1.3642-2.2599 2.5145-3.3262 4.9469-4.6895"/><path id="path3055" d="m-21.258 392.83c1.8328 0.98142 3.2404 1.6207 4.5622 2.3032 1.3209 0.68258 2.5578 1.4067 4.0936 2.473 1.6207 1.1936 2.8567 3.1555 2.3023 5.7576-0.38372 1.7037-1.1945 3.2395-2.3457 4.8177 0.55527-2.3023 0.55527-3.7948-0.72501-6.0989-0.979-1.747-3.198-2.771-5.627-3.837-1.238-0.513-2.56-1.11-3.796-1.748-1.237-0.682-2.432-1.45-3.455-2.473-1.8757-1.792-2.8562-3.454-3.3257-6.014-0.298-1.7054 0.1715-3.3252 0.6826-4.3066 0.89565 4.0512 3.6666 7.037 7.6338 9.1254"/><path id="path3057" d="m-18.018 407.54c1.8762 0.12731 2.6427 0.9399 2.7709 2.2599 0.08577 0.4695 0.04334 0.81079-0.12821 1.2785-0.55346-0.68166-1.2785-0.89565-2.0884-0.93628-0.42706-0.0443-0.85322-0.0443-1.3218-0.0443-0.42706 0-0.89565-0.0425-1.3227-0.12821-2.3023-0.42616-3.8372-0.76654-6.6524-3.7514-0.55437-0.5968-0.93718-1.1945-1.1936-1.7064-0.08487-0.1273-0.17064-0.25551-0.21308-0.38282 2.0053 1.5331 5.5003 3.0707 10.149 3.4111"/><path id="path3059" d="m-21.729 400.64c1.0248 0.38372 2.0477 0.76835 2.9867 1.1521 0.89475 0.38463 1.7895 0.76745 2.5145 1.1521 1.5358 0.85141 2.5163 1.7895 2.687 3.1546 0.12821 0.72591 0.08487 2.7294-0.85322 4.0079 0.08487-0.46859 0.12821-0.93718 0-1.5782-0.29795-1.6622-1.45-2.6003-2.8143-3.1971-0.68257-0.29885-1.4076-0.51102-2.1317-0.72501-0.72501-0.16974-1.4509-0.34128-2.0893-0.51193-4.82-1.365-8.9123-3.581-9.6797-7.335-0.2564-1.279-0.2998-2.387-0.2998-3.112 0-0.29886 0-0.51194 0.04334-0.68168 1.5349 4.22 5.7143 6.1414 9.6364 7.6744"/><path id="path3061" d="m3.4729 399.44s-0.16974-0.51193-1.0654-0.38372c-0.34129 0.0443-0.68257 0.0443-1.0239 0.0443-0.72501 0-1.45-0.0867-2.0884-0.21398-0.76835-0.17156-1.0248-0.21309-1.7922-0.21309-2.8567 0-5.671 2.1308-6.6524 5.1157-2.175 6.7797-8.5277 11.684-16.034 11.684-3.8372 0-7.632-1.2776-10.233-3.4544-0.04336 0.34219-0.04336 0.55437-0.04336 0.80988 0 0.89746 0 1.7498 0.38372 2.7736 0.55527 1.4085 1.7913 2.6843 3.5826 2.6843 3.3686 0 5.4154-1.5331 8.9547-2.1308 1.0239-0.17064 1.8346-0.29886 3.4129-0.29886h2.6427c5.3721 0 9.8928-3.4544 11.557-8.2721 1.1512-3.6241 4.0927-6.6524 8.3995-8.1448"/><path id="path3063" d="m-19.937 416.67c-0.42706 0.21307-0.81078 0.38553-1.3218 0.72591-0.72591 0.4695-1.5773 1.3209-2.389 2.2166-0.85322 0.85412-1.7046 1.7922-2.3448 2.389-0.68257 0.63924-1.5782 1.023-2.5588 1.023-0.85231 0-1.6198-0.29705-2.2599-0.76655-0.9812-0.767-1.8759-1.707-2.6018-2.73 1.3642 0.85142 2.6021 1.1512 4.2643 0.89566 1.0663-0.12731 2.0477-0.68348 2.9867-1.2803 0.51103-0.29795 0.97872-0.59681 1.4491-0.89385 0.46769-0.29975 0.93809-0.59861 1.4076-0.81168 1.236-0.59591 2.0893-0.72502 3.3686-0.76835"/><path id="path3065" d="m-23.691 423.75c0.55437-0.4695 0.98143-1.0672 1.3227-1.664 0.38372-0.64014 0.68257-1.2794 0.98143-1.9195 0.55436-1.2776 1.1503-2.4305 2.1741-3.0707 0.38372-0.21308 0.85322-0.33948 1.3218-0.38282 0.38372-0.0434 0.76835-0.0434 1.1521-0.0434-0.12821 0.0867-0.21398 0.13001-0.29885 0.21307-0.21308 0.13092-0.42616 0.29976-0.63924 0.51284-0.55437 0.5968-0.89565 1.6207-1.1521 2.687-0.1273 0.51103-0.21308 1.023-0.34038 1.534-0.12731 0.51284-0.25642 0.98142-0.42706 1.3642-0.68167 1.4934-2.0459 2.3899-3.6241 2.3899-1.4085 0-2.6012-0.25642-3.7957-0.76925 1.3218 0.0857 2.473-0.0415 3.3253-0.85141"/><path id="path3067" d="m-3.0511 410.62c1.4491-0.42797 2.687-0.21398 3.8806 0.0425 0.63924 0.16974 1.2794 0.29704 1.9186 0.38372 0.68257 0.0848 1.4076 0.1282 2.175 0.0415 2.3466-0.29704 4.1361-0.85231 5.6719-1.4915 1.4076-0.59771 2.6427-1.3209 3.9663-2.0902-1.1105 1.6198-2.8152 3.5402-5.6294 5.0742-2.1326 1.153-4.3492 1.9204-7.8036 1.664-0.76744-0.0415-1.3218-0.16974-1.8328-0.34129-0.51283-0.16974-0.93899-0.38282-1.3651-0.59681-0.89656-0.38372-1.8771-0.76744-3.6675-0.68257-0.55437 0-0.89565 0.0434-1.3642 0.12911 1.3209-1.0672 2.3023-1.6216 4.0503-2.1326"/></g></svg>
