<?xml version="1.0" encoding="UTF-8"?><!DOCTYPE svg PUBLIC "-//W3C//DTD SVG 1.1//EN" "http://www.w3.org/Graphics/SVG/1.1/DTD/svg11.dtd"><svg xmlns="http://www.w3.org/2000/svg" xmlns:xlink="http://www.w3.org/1999/xlink"><defs/><symbol id="Lab" viewBox="-37.000092 376.53854 56 56.000001"><style id="style4" type="text/css">
	.st0{fill:#DC241F;}
</style><path id="rect4148" style="color-rendering:auto;color:#000000;isolation:auto;mix-blend-mode:normal;shape-rendering:auto;solid-color:#000000;image-rendering:auto" d="m21.887 1.9785c-0.6788 0.6977-1.139 1.4872-1.2656 2.6562-0.2344 2.1899-1.172 3.5177-1.4844 4.2207-0.3125 0.7031-1.406 2.1877 0.15625 4.1406 1.5623 1.9529 1.4844 2.1875 1.875 2.8906 0.3906 0.703 1.3281 1.8732 0.625 2.2637-0.703 0.3906-2.5002-0.23262-4.1406-2.1074-1.6405-1.8748-2.1876-3.4375-2.8906-3.4375-0.7031 0-0.39058 1.3282-0.23438 1.7188 0.1563 0.3906 0.07805 1.7188-0.15625 2.5781-0.2344 0.862 0.5471 5.3147 2.5 7.0332 1.9529 1.7186 2.5784 2.3419 4.5312 2.8887 1.9529 0.5468 4.4513 1.0155 4.7637 0.9375 0.3125-0.0781 1.1719-1.0156 1.1719-1.0156s0.8619-0.3126-0.3125-1.25c-1.1717-0.9373-5.3105-4.2988-5.3105-4.2988l0.39062-0.85938 1.6406 1.7227s0.44192 0.61952 1.6406 0.07813c0.5064-0.229 1.1496-0.59079 1.3516-0.36719 0.1996 0.2209-0.16219 1.063 0.03711 1.2812 0.202 0.2236 1.8889 1.5291 2.3711 1.7715 0.4822 0.2398 0.58515 0.13898 0.84375 0.52148 0.2613 0.3798 2.1498 3.3141 2.9336 3.4141 0.7839 0.1 1.8462 0.11967 2.0859 0.13867 0.2424 0.0216 2.3706 0.34213 2.3496 0.80273-0.0189 0.4633-0.66254 0.24219-1.0234 0.24219-0.361 0-3.1114-0.08061-3.7148-0.09961-0.6034-0.0216-8.1932-1.0862-9.3164-1.5684-0.000001 0-0.1212 0.16172 0 0.26172 0.1212 0.1023 1.1028 0.88386 1.2832 1.2852 0.1805 0.4014 0.32113 0.80575 0.86523 1.1855 0.5414 0.3825 1.4654 0.96474 1.7266 1.0859 0.2613 0.1185 1.445 0.72123 1.7871 0.86133 0.3421 0.14 1.3642 0.8233 1.7656 0.9043 0.4013 0.0809 1.6083 0.56445 2.209 0.56445 0.6034 0 2.9343 0.17706 7.834-1.3691 4.8997-1.5434 10.281-5.6837 10.822-9.7188 0.5442-4.0351-0.2207-5.625-0.2207-5.625s-0.64173-2.6867-2.5488-2.8887c-1.9098-0.1994-1.7475 1.3468-1.5078 1.7266 0.2424 0.3825-0.24023 0.62109-0.24023 0.62109s-1.5057 1.1044-1.8262 1.4277c0 0-0.86505-0.30231-1.1855 0.05859-0.3233 0.361-0.59989 0.65191-0.9043 3.1328-0.1993 1.6458-4.0315 2.9659-6.7871 2.3086-0.4202-0.0996-3.0235-0.89919-2.5898-2.3672 0.0996-0.3417 1.3045-0.13906 1.5254-0.03906 0.6222 0.2801 1.1034 0.78009 2.0273 0.62109 0.9239-0.1616 2.2314-0.58059 2.7539-0.74219 0.5226-0.1616 2.107-0.30361 2.5703-1.6289 0.4606-1.3253 0.60117-1.7253 0.70117-3.293 0.0997-1.565-0.12109-2.6914-0.12109-2.6914s-0.05778-0.44234-0.23828-0.40234c-0.1805 0.0404-0.22121 0.12257-0.38281 0.76367-0.1616 0.6437-0.80377 1.5458-1.1055 1.5078-0.3017-0.0404-0.68351-0.35978-0.88281-0.30078-0.2021 0.0593-0.62192 1.3238-1.166 1.8652-0.5414 0.5441-3.554 2.975-4.3379 3.2148-0.7838 0.2424-1.7666 0.48203-2.168 0.58203-0.4013 0.1023-1.5863 0.50391-1.9473 0.50391-0.3636 0-1.2478-0.56293-1.7676-0.92383-0.5226-0.361-1.2251-0.86523-1.2871-0.86523-0.0591 0-0.03647-0.24024 0.08203-0.24024 0.1212 0 1.2254 0.54194 3.375 0.46094 2.1468-0.0808 4.9294-0.62554 5.7832-3.2734 0.6223-1.9292-0.64361-1.9492-0.94531-1.9492-0.299 0-2.121 0.25623-3.6133 1.207-0.2209 0.1428-0.56231-0.10003-0.88281-0.36133-0.3233-0.2613-0.92465-0.98563-1.4688-1.1445-0.5414-0.1616-1.6859-0.54516-2.0469-1.0059-0.3614-0.4633-0.16158-0.63979-0.02148-0.74219 0.1428-0.0997 0.58182-0.58284 0.82422-0.30274 0.2398 0.2828 0.34089 0.46353 0.62109 0.58203 0.2828 0.1213 1.2453 0.50298 1.4473 0.58398 0.1993 0.0808 1.9069 1.005 2.75 0.46094 0.8458-0.5414 1.3477-1.0829 1.3477-1.627 0-0.5414 0.05777-0.88281 0.25976-0.88281 0.1993 0 0.72237 0.14209 1.043 0.80469 0.3232 0.6599 0.66512 1.0241 1.0449 1.8672 0.3825 0.8431 0.8446 2.1088 1.4668 1.8691 0.6248-0.2424 0.64258-0.74414 0.64258-0.74414s0.76192-0.66389 1.2656-0.96289c0.5011-0.3017 1.2049-0.82453 1.4258-1.207 0.2209-0.3798 0.74262-0.88334 0.98242-0.90234 0.2424-0.0216 1.8292-0.66384 1.3066-2.7109-0.5226-2.0499-1.786-3.9189-4.7812-4.3203-2.99-0.4013-5.6215-0.018497-6.707 0.2832-1.0829 0.3017-4.1154 1.5265-3.9941 2.7305 0.1212 1.2041 0.76172 1.7051 0.76172 1.7051s2.5328 0.04091 2.9746 0.16211c0.4417 0.1213 1.4032 0.32271 1.3652 0.66211-0.0404 0.3421-0.28239 0.54245-0.46289 0.56445-0.1804 0.019-0.77882-0.41875-3.5156-0.06055-0.461 0.0593-0.39695-0.17076-0.50195-0.38086-0.1212-0.2424-0.1981-0.70352-0.7207-0.60352-0.5226 0.1024-1.6884 0.48161-2.0898 0.66211-0.4013 0.1804-1.7894 0.92364-2.25 1.2441-0.4606 0.3233-0.86223 0.84427-0.58203 1.1055 0.2801 0.2613 0.86716 0.4655 1.8477 0.5625 0.199 0.0189 0.18112 0.26091 0.04102 0.44141-0.1427 0.1804-0.48359 1.3653-1.3672 1.1445-0.8862-0.2209-1.2647 0.14074-1.3047-2.5098-0.0404-2.6506-0.30218-2.5483 0.54102-2.5293 0.8431 0.0216 2.9107-0.42346 3.875-1.7891 0.9644-1.3657 0.32195-1.0644 0.68555-1.8887 0.361-0.8216 0.7217-2.167 2.75-2.4688 2.0284-0.299 1.9687-0.019769 3.6738-0.48047 0 0 1.2059 0.38035 1.7285 0.21875 0.5199-0.1589 1.0653-0.92228 0.86328-1.2051-0.1509-0.2101-0.31316-0.48172-0.41016-0.95312h1.7734c0.3178 0.5172 0.52617 0.70762 1.3262 1.2949 1.126 0.8242 2.291 1.4277 2.291 1.4277l-0.01954-0.3418s0.36186-0.0004063 0.60156 0.058594c0.2424 0.0592 0.58371 0.30375 1.0039 0.34375 0.4229 0.0405 0.88445 0.11739 1.127 0.62109 0.2397 0.501 0.29809 0.98407 0.40039 1.3262 0.0997 0.3421 0.31984 0.62224 0.96094 0.90234 0.6437 0.2829 1.2659 0.58483 0.8457 1.207-0.4233 0.6222-1.3459 1.5459-0.32226 3.6738 0 0 0.12019-0.06211 0.40039-0.16211 0.2828-0.0996 3.7172-1.1238 3.2539-4.1973-0.369-2.462-2.5693-4.9206-4.0293-6.1543zm-5.543 2.4024c-0.4984 0-4.2789 0.49774-6.4473 3.3691-2.1684 2.8715-2.9008 5.9178-2.8418 7.5879 0.0593 1.67 0.70328 5.8888 2.5215 7.9414 1.8155 2.0498 2.6369 2.5544 3.1621 2.7188 0.2048 0.064 1.853 0.85605 1.875 0.09375 0.0081-0.2559 0.15298-0.51496 0.27148-0.63086 0.369-0.3691 0.63875-0.25545 0.87305-0.31445 0.2316-0.0593 0.359-0.27671 0.1543-0.57031-0.2074-0.2936-1.5336-2.6156-1.7383-3.2891-0.2048-0.6734-1.1419-4.6608-1.1719-5.8594-0.0296-1.2014-0.1453-2.4027 0.9375-3.3105 1.0856-0.9077 3.3163-2.7295 3.5156-5.0703 0.0889-1.0263-0.17383-1.6699-0.17383-1.6699 0-0.3502 0.08859-0.34898 0.05859-0.64258-0.0296-0.2939-0.49779-0.35352-0.99609-0.35352zm-15.08 15.764v12.633c2.2088 2.9867 4.0092 3.3615 6.1934 3.6758 2.3893 0.3421 2.5501-0.84616 2.7305-1.2852 0.1805-0.4445 0.44194-0.30479 0.68164-0.18359 0.2425 0.1212 1.045 0.74253 1.8477 1.9277 0.3017-1.0425-1.4465-2.7304-1.627-2.9297-0.3151-0.3502-0.56002-0.58474-0.54102-1.3066 0.1886-6.756-4.8003-10.524-5.3633-10.984-0.43199-0.3542-2.8276-1.181-3.9219-1.5469zm15.813 6.6875c-0.1 0.0997-0.18062 0.24067-0.14062 0.48047 0.0404 0.2424 0.26143 0.32219 0.58203 1.2461 0.3232 0.9213 0.74415 2.3493 1.4688 4.3965 0.7219 2.0498 1.4027 3.6354 2.5879 4.4785 1.1853 0.8429 3.0917 1.5259 5.6641 0.78516 2.5698-0.7431 4.1348-0.70312 4.1348-0.70312s4.5393-0.14397 5.0215-0.88477c0 0-0.07863-0.14169-0.24023-0.17969-0.1616-0.0404-3.5837-0.19312-8.6855-2.1406 0 0-0.5259-0.38294-0.6875-0.46094-0.1616-0.0808-1.3317-0.57104-1.6738-1.2148-0.34-0.644-0.842-2.389-2.108-3.233-1.2633-0.8431-1.2241-0.96435-2.6895-1.627-1.468-0.6627-3.2344-0.94336-3.2344-0.94336zm-1.0859 4.3008c-0.3798-0.0297-0.84808 0.3233-1.5215 0.9375-0.6734 0.6141-1.056 1.9328-1.1719 2.7812-0.1185 0.8512 0.05998 1.3478 0.17578 1.8164 0.1185 0.4714-0.11719 0.9082-0.11719 0.9082s-0.64612 2.6658-0.70312 3.8672c-0.0592 1.2014 0.20508 3.2832 0.20508 3.2832s-0.85095 1.3179-1.4355 2.3145c-0.5872 0.9967-1.8175 4.1317-2.1973 5.0098-0.264 0.6115-0.81445 1.8691-0.81445 1.8691l1.7793 0.0078c0.5313-1.1972 1.3484-3.0311 1.4473-3.2441 0.1454-0.3232 0.32031-1.2891 0.32031-1.2891 0.2936 0.3502 0.32297 1.9336 0.29297 2.4023-0.0296 0.4687 0.20542 1.2002 0.35352 1.5234 0.06852 0.14977 0.15582 0.39302 0.22852 0.60742h5.7676c0.17356-0.18969 0.38598-0.3719 0.65039-0.43164 0.6438-0.1482 2.7539-1.7891 2.7539-1.7891 0.06509 0.3095 0.59763 1.3514 1.0586 2.2207l13.141 0.0019c-3.1141-6.8769-10.457-5.9805-10.457-5.9805 0.9401-1.4357 0.17773-2.373 0.17773-2.373-0.2047-1.8748-1.6402-2.2276-2.082-2.373-0.4391-0.1482-0.55553-0.35393-0.64453-0.61523-0.0862-0.264-0.52736-0.7627-0.81836-0.9082-0.3205-0.1616-0.46766-0.70313-2.2266-0.70313-2.4324 0-4.9215 1.9922-5.1855 2.2266-0.2641 0.2343-0.26478-0.17572-0.17578-0.35352 0.0862-0.1751 0.73278-1.0241 1.1719-1.8457 0.439-0.8188 0-1.0234 0-1.0234 1.5811-1.6404 2.0205-3.1656 1.875-3.2246-0.1481-0.0592-1.0554 0.99645-1.4648 1.4355-0.4094 0.4394-0.55827 0.76306-0.82227 0.41016-0.3906-0.5199 1.4359-2.7224 1.8184-3.4551 0.3798-0.7327-0.38246-1.3202-0.43945-1.4062-0.0588-0.0889-0.26386-0.35462 0.05664-0.26562 0.3233 0.087 0.73242 0.03125 0.73242 0.03125-0.7623-1.7886-1.346-2.343-1.7285-2.373zm26.566 6.377c-0.32884 0.0075-0.65866 0.03004-0.98828 0.06641-2.6371 0.2939-3.4278 0.35156-3.7188 0.35156-0.2936 0-2.2283 0.20852-3.4297 1.2617s-3.1351 1.8148-3.5742 2.0195-1.9649 1.4355-1.7305 3.5176c0.2343 2.0795 0.67676 3.0179 3.6641 3.6348 2.987 0.6141 8.3508 1.6095 10.137-0.99805 1.7886-2.6101 2.2859-3.3688 2.6953-3.8672 0.4095-0.4983 0.52871-0.70272 0.87891-0.76172 0.3528-0.0592 0.90687-0.2049 1.2598-0.9375h0.002c0.3529-0.7331 2.2535-0.70312 2.6953-0.70312 0.36748 0 3.0379 0.33146 4.2891 1.0605v-0.60938c-1.4757-0.82964-4.5233-2.5327-6.0488-3-1.5886-0.4879-3.829-1.0879-6.1309-1.0352z" transform="translate(-37 376.54)" fill="#c61148"/></symbol><symbol id="Green" viewBox="0 0 133.66136 89.902081"><g fill="#a1c181"><path id="path4531" d="m102.31 59.415c1.93-11.867-3.614-23.738-11.091-30.695-8.517-7.36-21.68-11.096-33.028-8.139-2.5837 0.39322-4.1347 1.5458-6.1923 2.193-8.7863 4.0019-15.365 12.385-18.073 21.682-2.447 10.957 1.2931 22.966 7.8722 30.576 6.4463 6.5804 13.67 10.193 22.712 11.997 7.3527 0.13408 15.858-0.77227 22.315-4.9031 7.8748-5.1712 13.67-12.648 15.483-22.71zm-51.471 6.4566c-0.52473-0.26043-0.91538-1.0379-1.2931-1.0379-3.3572 0.65752-7.4855 0.51828-9.8074 2.5863l-0.37775 0.25398c-0.922-0.512-1.824-1.289-1.824-2.183-3.61-5.558-0.382-9.684-0.903-14.974l2.4599-6.0621c0.89346-2.3284 3.6086-3.2193 5.6753-3.7427 0.25141-4.1308 1.4156-7.9999 2.8209-11.612 0.65494-0.77098 1.8217-1.1578 1.9519-2.1956 0-0.38291 0.1199-0.64076 0.1199-0.89733 4.3938-1.9378 10.073-5.4265 15.483-3.6241 2.8467 0 4.1295 1.8153 6.7196 1.8153l2.8351-1.9403c1.0327 0.38936 1.8011 0.77485 2.2021 1.5497v2.7126c-0.26172 0.25398-0.66397 0.38291-0.78387 0.38291-0.77098 0-1.6825-0.38291-2.7126-0.38291-1.4156 0.90635-3.3469 1.4208-3.3469 3.4797 0.12377 0.51828 0.37389 0.90506 0.37389 1.1552-0.25012 0.39451-0.63561 0.39451-0.77098 0.39451l-3.9877-2.0654c-0.27204 0.13022-0.64979 0.25141-0.9012 0.5157l-1.9365 3.3572c0.38549 0.51055 0.50797 0.78129 1.1526 0.9012 0.6369-0.1199 1.93-0.9012 2.3297 0l-3.0955 4.6388c-0.77872-0.1199-0.91538-0.90506-1.2944-1.2867-0.50926-0.13022-0.77356-0.13022-1.2867 0-1.0379-0.25141-1.2893-1.0301-1.551-1.6722h-6.846c0.51957-0.78129 1.0391-1.5471 1.0391-2.5811-0.12377-0.64463-0.39065-1.0314-0.64463-1.0314-1.6773 0.12506-3.0955 0.90377-3.6164 2.3207 0.51957 0.65494 0 0.13279 0 0.65494-0.77743 0.63561-1.676-0.14569-1.9378 0.63561-0.25141 1.0288-0.25141 2.0551-0.8999 2.5811 0.26172 0.90119-0.25656 2.0577 0.26172 2.5798 0.77356 0.51055 2.0577 0.51055 2.5759 1.2867 1.0353 3.3585 4.1372 6.4528 2.3233 10.317l0.65366 3.3676-1.0379 2.0551 2.322 5.5477c-0.64592 0.78-1.5407 2.2008-2.4483 2.2008zm25.278-31.224c-0.77098 1.5497-2.4496 1.9339-3.0826 3.3456-1.5613-0.51184-2.8531 0-4.27 0.26301-0.77485 0.52215-0.90248-0.37904-0.90248-0.64463 1.9339-1.5497 4.2571-4.8992 7.3488-4.6452l0.90635 1.6812zm15.735 28.374v2.068c-0.11732 0.78129-0.3842 0.78129-1.2867 1.6864-1.5394 0.89862-3.4797 2.701-5.2873 1.2777-0.38936-3.2206-2.7113-5.2873-3.6112-7.733-0.38807-0.25656-0.52473-0.38807-0.90377-0.38807-0.51442 0.13279-0.90248 0.38807-0.90248 0.90506 2.5798 3.2283 2.5798 8.2526 6.8434 9.284 0 0.52086-0.13666 0.77227-0.39967 0.91796l-5.5412 3.9916c-1.0379 1.1526-1.5536 3.2283-2.7139 5.157-2.0667 1.2983-2.7036 4.0032-5.0152 5.0359l-4.27 0.51184-2.1969-0.51184c-0.25012-0.77872 0.25527-1.4311 0-2.5888 0.25527-4.6388-1.4233-9.2853 0-13.803-0.51828-1.413-1.5432-2.447-2.5798-2.9614-1.4182-0.78129-3.3482-0.26043-3.8729-1.6773l-1.0263-3.356c0.11861-1.0327 0.64592-1.4233 0.8999-2.7126 1.4285-1.4169 2.8467-2.8338 4.7832-2.8338l3.9928-2.5876c0.48734 0 1.1823 0.67686 1.3911 0.13022h-0.23336l0.23336-0.01289c0.0026 0 0.0026-0.01289 0.0026-0.01289-0.10056-0.05544-0.18436-0.10443-0.23594-0.10443l0.23594-0.02321-1.3937-2.4212 1.2931-2.1917c0.64076-0.38678 1.805 0.12635 1.9313-0.52086l-0.28364-1.1668h-2.1685 2.1685l-0.22046-0.89604h-0.26946l-0.13279-0.12764c0-0.12377 0-0.3842-0.12377-0.3842h0.40225l-0.0026-0.01934c-0.07478-0.02321-0.14311-0.04512-0.14311-0.1199l0.11217-0.05931-0.24367-0.9721c0-0.76453 0.38936-0.89862 0.77871-1.2854 0.12635-0.12764 0.65752-0.12764 0.65752-0.12764l1.7934 0.6485c0.38549-0.52086 0.89733-0.52086 1.2944-0.6485 0.50926 0.12764 0.62916 0.25398 0.62916 0.51442 0.26301 0.89862-0.62916 0.89862-0.62916 1.5536 0.0361 0.06575 0.06446 0.14311 0.10701 0.21788l0.01676-0.35584 0.3365 0.77227h0.30169c-0.09283 0.09798-0.15729 0.17534-0.21273 0.23464l0.06833 0.15342 0.01289 0.0064v-0.12764 0.12764l0.06188 0.02578 0.46671-0.02578v0.25656c0.0361 0 0.07864 0.0064 0.13408 0.0064l1.1719-1.0198-0.0245-0.02192h0.02965l0.10572-0.08122v-0.42932l0.26301 0.19597 0.04512-0.03481c-0.0361-0.06317-0.05028-0.13022-0.05028-0.16116 0.05028 0.04899 0.07091 0.08509 0.08767 0.12119l3.1368-2.7062c0.77356 0.77743 2.322 1.0301 3.0865 0.39322 1.551-3.2244 3.4887-7.2224 1.551-10.848-0.89346-0.51184-2.1866-0.6369-2.3155-1.6709-0.13022-0.64205 0.12893-0.76582 0.76453-0.76582 0.65752 0.12377 1.4285 0 2.4573 0 5.0268 2.701 7.8748 7.7343 10.448 11.993 3.3598 8.1275 4.2597 17.281 0.64721 25.673-0.38936 0.13022-0.64721 0-0.64721 0l-0.645-1.812c-0.133-0.381-0.509-0.638-0.769-1.289-0.887-1.014-3.045-1.024-4.342-0.284l0.20886 0.02063h-0.25785z"/><path id="path4533" d="m103.45 77.993c-1.6748 0-2.9705-0.64463-4.6452-0.89862-0.9012 0.25398-1.4182 0.89862-1.9378 1.6735 2.3323 2.8402 6.4682 5.5464 7.4829 10.052 3.0942 5.0333 7.7498 8.0166 13.686 9.2943-4.6375-6.7132-6.0647-16.508-14.585-20.122z"/><path id="path4535" d="m93.669 82.39c-0.38033 0-0.52473 0-0.8999 0.24625-0.13408 0.26688-0.13408 0.38678-0.39838 0.90764-0.13022 1.1578 0.91796 1.6812 1.6799 2.193 2.1982 4.5163 6.8486 7.4855 11.868 9.5483l0.25399-0.25785v-0.25656c-2.94-4.769-5.67-11.355-12.501-12.381z"/><path id="path4537" d="m71.597 44.963h0.17147c-0.06833-0.02578-0.13795-0.04254-0.17147 0z"/><path id="path4539" d="m70.153 52.801s0 0.01289-0.0026 0.01289h0.02965c-0.0039 0-0.01676-0.01289-0.02707-0.01289z"/><path id="path4541" d="m72.241 44.834-0.1315-0.12764h-0.5157c0.15858 0.12764 0.25398 0.21402 0.30298 0.26688h0.34423c-0.10701 0-0.32103 0.08896-0.37646 0.21144l0.50023-0.12119v-0.08896l-0.12377-0.14053z"/><path id="path4543" d="m78.185 44.614-0.10572 0.08122h0.10572v-0.08122z"/><path id="path4545" d="m78.572 44.473c-0.02192-0.04126-0.05415-0.08767-0.07478-0.12248l-0.04512 0.03481 0.1199 0.08896v-0.0013z"/><path id="path4547" d="m88.924 62.638 0.09798 0.01031v-0.01031h-0.09798z"/><path id="path4549" d="m71.532 52.698h-0.4448v0.06446l0.44866-0.01547c0-0.0077 0-0.03868-0.0039-0.04899z"/><path id="path4551" d="m71.494 44.963c-0.04255-0.0064-0.09283-0.0064-0.13795-0.01031l0.0026 0.01934h0.13537v-0.009z"/><path id="path4553" d="m88.37 62.509h0.19984c-0.04384 0-0.06962 0.01031-0.06962-0.12377h-0.26043c0.08122 0.03868 0.13022 0.08767 0.13022 0.12377z"/><polygon id="polygon4555" transform="matrix(1.2893 0 0 1.2893 -767.21 -193.13)" points="663.83 198.35 663.83 198.38 664.02 198.38 664.05 198.38"/><path id="path4557" d="m104.11 70c-0.8883 0.11732-1.413 0.11732-1.8063 0.63818-0.25012 0.25141-0.38678 0.39709-0.38678 0.90506 0 0.3842 0 0.89733 0.38678 1.297l9.8074 4.6375h5.5528c0.51184-0.12893 0.76711-0.12893 0.51184-0.90248-4.3886-2.4573-8.3879-6.4579-14.066-6.5752z"/><path id="path4559" d="m119.87 66.893c-3.7595-3.3456-9.3007-3.6099-14.203-2.701-0.3958 0.25656-0.91151 0.38033-0.91151 0.38033 0 0.5157-0.64205 0.91666-0.64205 1.8114 4.6439 1.6683 8.0012 4.1295 11.997 6.8434 1.5574 1.0237 3.4952 1.5381 5.5528 2.193l6.1923-0.90635c-1.9455-3.6215-5.8056-4.9056-7.9857-7.6208z"/><path id="path4561" d="m2.0667 59.931 13.93 4.261c3.4733 0.25656 6.8344-0.52086 10.19-1.4272 1.288-0.50668 2.7036-1.5445 3.0981-2.8338l-0.911-2.446c-8.252 3.471-19.49-5.419-26.307 2.446z"/><path id="path4563" d="m122.56 56.579v-0.77227c-5.3002 0.12893-10.839-2.0654-15.997 0.77227-0.40096 0.25656-0.51957 1.4156-0.40096 2.0641l2.5863 0.77227c4.6555 0 9.6772-0.77227 13.812-2.8364z"/><path id="path4565" d="m71.855 52.698h-0.33521c0.0039 0.01031 0.0039 0.04126 0.0039 0.04899l0.8406-0.04899-0.70394 0.23465c0.21788 0.20757 0.63947 0.39967 0.85091 0.6717l1.4014 2.4599 5.8043 2.0551 0.13408-0.13279 0.38807-0.25012c0-0.72714-0.51055-1.1075-1.1242-1.4233h-0.04255v-0.02192c-0.58017-0.28364-1.2312-0.51184-1.6657-0.88701-0.08251 0-0.17792 0.0245-0.26946 0.04254 0.07349 0.07736 0.1315 0.16374 0.1315 0.22175-0.0116 0.0064-0.0116 0.01676-0.01547 0.02579 0.02836 0.01934-0.05544 0.05415 0 0-0.01547-0.01934-0.04255-0.02579-0.11603-0.02579v-0.22175c-0.53118 0.09798-1.2712 0.42546-1.9352 0.08896l-0.51184-3.218c-0.77743-0.65108-2.1776-0.51055-2.8351 0-0.10185 0.05802-0.16503 0.10443-0.2282 0.15858l0.2282-0.0361v0.25785z"/><path id="path4567" d="m28.767 52.698c0-0.37775 0-0.51055-0.39967-0.63561-3.357-0.393-7.081-0.899-10.709-0.899-2.6971 0.50797-5.8017 0.8999-7.6079 2.4432l9.4142 2.1956c3.2373 0.12764 7.0987-1.1681 9.3033-3.1033z"/><path id="path4569" d="m82.04 54.632c-0.26043 0.65237 0.39322 1.1668 0.8999 1.1668l0.39709-0.26301c-0.26172-0.51055-0.64334-0.90377-1.297-0.90377z"/><path id="path4571" d="m122.56 47.683c-5.4278-1.5484-11.348-1.8075-15.997 0.38678-0.65494 0.90506-0.13021 2.4496-0.40096 3.7492l12.913 2.3129c3.7453-0.38807 8.6355-1.0275 10.838-4.515-2.2021-0.77485-5.0397-0.52086-7.3527-1.9339z"/><path id="path4573" d="m17.667 37.356c-3.7324-3.4913-9.5483-3.2206-14.054-2.2021 0 0.78129-0.52215 0 0 0.78129 6.8382 3.4823 11.477 9.4168 19.737 11.219l0.37775-0.13022 5.5606-1.1552c0.38162-0.51828 0.52215-1.4195 0.38162-2.0731-4.6491-1.159-8.375-3.472-12.003-6.4399z"/><path id="path4575" d="m79.577 45.349c-0.1921 0.3236-0.39967 0.65494-0.75164 0.90506-0.26172 0.3842 0.11732 1.0327 0.65366 0.89862l2.3039-0.89862-0.24496-1.805s-0.39967-0.13795-0.77871-0.39065c-0.60209 0.2282-0.8651 0.71425-1.1358 1.2093l0.09798 0.08122h-0.1444z"/><path id="path4577" d="m104.36 41.095 0.39064 2.4535s0.26688 0 0.51571 0.24496c5.0333-0.50797 8.7734-3.0878 12.395-6.4399l1.2906-3.1007c-3.3547 0.52086-6.3303 4.261-10.719 3.9967-1.667 1.0301-3.0981 1.1668-3.8729 2.8454z"/><path id="path4579" d="m16.378 30.897c-1.297 0.25012-2.4509 0.12119-3.2322 1.159 3.619 2.7152 7.2276 5.9293 12.774 7.7407l5.5529-0.90764c0.1199-0.1199 0.37518-0.37775 0.37518-0.90506-4.3783-3.2116-8.8998-7.4726-15.47-7.0871z"/><path id="path4581" d="m122.69 25.998c0.12893-0.52602 0.38033-0.91538 0.50797-1.2893-4.6414 1.1539-9.7958 1.8024-14.833 3.0955-3.1032 1.4221-6.0686 3.2128-7.354 5.9332 0 1.4117 0.51829 2.7075 1.8114 3.6138h0.39193c7.996-2.2008 15.342-3.6125 19.476-11.353z"/><path id="path4583" d="m33.924 32.057 1.8153-0.51442c0.3726-0.64463 1.0327-1.0301 1.0327-2.0654-5.6856-2.5811-7.4893-9.1628-11.106-13.295-2.4444-1.8011-5.6728-3.744-9.672-4.1256 3.0929 3.6202 5.023 8.2564 6.9569 12.652 2.7139 4.0032 6.8537 5.674 10.973 7.3488z"/><path id="path4585" d="m110.3 14.123c-3.7337 2.7165-6.9556 6.7158-11.485 9.039-1.4182 1.4169-2.5734 2.1879-2.9627 3.7363l1.8024 2.5811h0.25785c3.4887-1.1565 6.4463-4.0044 9.0352-6.4528l3.3521-8.9036z"/><path id="path4587" d="m34.827 24.45 4.261 1.5536c0.64076 0 0.77356 0 1.2893-0.13408 0.24883 0 0.37775-0.25785 0.50797-0.78-2.4509-5.665-6.5739-9.4052-13.415-11.476h-0.63947l5.0191 8.6432 2.9769 2.193z"/><path id="path4589" d="m92.625 24.579 0.65366-0.13022c5.0217-5.5477 13.415-5.803 16.505-13.416 0.3842-1.6735 0.3842-3.102 0.90378-4.3912 0-0.12635-0.12764-0.12635-0.77614-0.12635-5.1648 4.7754-14.833 4.1347-18.068 11.481-0.11732 1.805-1.2867 2.9718-1.2867 4.6465 0.25914 1.0366 1.2867 1.4221 2.068 1.9365z"/><path id="path4591" d="m46.443 20.84 2.1892-0.77485c0.13279-0.13279 0.38678-0.52344 0.38678-0.90635-3.7427-6.9685-3.4784-16.387-11.099-21.286-1.1487-0.65366-1.676-1.2893-2.5824-1.4195 2.5824 4.6388 2.1956 11.605 4.3938 17.54 1.4285 2.8467 3.882 5.4278 6.7119 6.846z"/><path id="path4593" d="m83.342 18.249c0.1199 0.64721 0.64463 1.1681 1.6735 1.2893 0.39322 0 1.1642-0.1199 1.2867-0.38291 2.7203-3.2232 4.5189-9.293 2.848-14.065l-6.07 12.263c0 0.26172 0 0.63947 0.26172 0.89604z"/><path id="path4595" d="m53.534 18.004 0.26043-0.25785 0.38678-0.1199c1.287-2.594-0.386-6.07-1.793-8.7808-1.951-2.322-4.271-5.4278-6.846-6.7029 0.64076 2.9589 1.8024 5.9242 2.4522 9.4129 1.4169 2.447 2.4432 5.2924 5.54 6.4489z"/><path id="path4597" d="m78.572 16.844 0.37904-0.25785c3.1007-5.5503 9.1692-10.067 9.0352-17.673-0.63947-1.6915 0.26043-3.7479-0.89604-4.9172-2.3323 3.8807-6.7171 8.1417-10.072 12.262-1.6683 2.9666-2.184 6.4502-2.184 9.547l3.4746 1.2867 0.26301-0.24754z"/><path id="path4599" d="m60.109 15.683c0.12635 0 0.39451 0 0.52473 0.12119l2.4406-0.77742c-1.0327-5.1596 1.4298-10.696 2.322-16.116-0.89088-3.2348-1.4143-6.7235-3.4746-9.0352-2.3245 7.3449-6.7196 14.967-3.4887 23.221l1.676 2.5863z"/><path id="path4601" d="m67.987 15.297h0.26043c0.12635 0 0.64592 0 0.88959-0.26559 0.51957-0.9012 0.65495-2.3194 1.2906-3.4771 1.0417-4.9069 0-10.323-2.5695-13.805-0.38807 5.1545-3.2373 11.48-0.65108 16.642 0.26301 0.5157 0.26301 0.64076 0.78 0.90635z"/><polygon id="polygon4603" transform="matrix(1.2893 0 0 1.2893 -767.21 -193.13)" points="649.31 190.77 649.31 190.77 649.49 190.77 649.49 190.76"/><path id="path4605" d="m70.178 52.814h-0.02965v0.01289h0.07349c-0.01289 0-0.02965-0.0064-0.04384-0.01289z"/><path id="path4607" d="m71.532 52.75-0.44866 0.01547v0.19855h0.51828l0.06704-0.02708c-0.06704-0.05415-0.11088-0.11861-0.13666-0.18694z"/><path id="path4609" d="m71.532 52.75c0.02707 0.06833 0.07091 0.13279 0.13666 0.18565l0.70394-0.23465-0.8406 0.04899z"/><path id="path4611" d="m71.21 44.834c0 0.07478 0.06962 0.0967 0.14311 0.1199l-0.03094-0.17921-0.11217 0.05931z"/><path id="path4613" d="m71.597 44.705h0.5157l0.1315 0.12764 0.12377 0.13924v0.08896l0.1921-0.04899c0.0722-0.01934 0.1444-0.03997 0.19468-0.03997l-0.19468 0.03997c-0.07349 0.02321-0.13408 0.04899-0.1921 0.06575v0.15342h0.5157v-0.14311h0.26301l0.13022-0.11732v-0.13924h0.12248v-0.12764h0.13279v-0.12635h0.13022v-0.12377h0.12893l0.12764-0.13795c0-0.5157 0-0.89604 0.25398-1.2802l-2.848 1.7366 0.03094 0.17921c0.04512 0.0039 0.0954 0.0039 0.13795 0.01031l0.10314-0.25656z"/><path id="path4615" d="m78.443 44.189c0 0.03223 0.01418 0.09798 0.05028 0.16116l0.03739-0.03997c-0.01676-0.0361-0.03739-0.0722-0.08767-0.12119z"/><path id="path4617" d="m78.533 44.318-0.03739 0.03997c0.02063 0.03481 0.05286 0.08122 0.07478 0.12248 0-0.04126-0.009-0.10314-0.03739-0.16245z"/><path id="path4619" d="m78.572 44.486c-0.01289-0.009-0.01289-0.009-0.01289-0.01031v0.0013l0.01289 0.009z"/><polygon id="polygon4621" transform="matrix(1.2893 0 0 1.2893 -767.21 -193.13)" points="656.12 184.37"/><polygon id="polygon4623" transform="matrix(1.2893 0 0 1.2893 -767.21 -193.13)" points="655.72 184.07 655.72 184.07 655.72 184.4 655.92 184.22"/><path id="path4625" d="m78.443 44.963 0.12506 0.11732-0.38291-0.27719v0.27719h0.1199v0.26688h1.2764c0.01031-0.0245 0.03094-0.05157 0.04641-0.08122l-0.92182-0.6962v0.05802c0.03094 0.04512 0.08122 0.06833 0.12377 0.06833v0.26688h0.25141v0.11732c0.0116 0.02321 0.02192 0.02321 0.02192 0.02579 0.09798 0.03223 0.07993 0.06833 0 0-0.03352-0.0026-0.08122-0.02579-0.156-0.02579l-0.11732-0.11732-0.12377-0.13924v-0.19597c-0.03094-0.02578-0.04899-0.03868-0.05802-0.05802-0.08122-0.01289-0.08122-0.03868-0.08122-0.09798l-0.1199-0.08896-0.26301 0.23207v0.08122c0.25914 0.0052 0.25914 0.03868 0.25914 0.26688z"/><path id="path4627" d="m78.7 44.576-0.12635-0.08896c0.02578 0.03094 0.05157 0.05673 0.06833 0.08896h0.05802z"/><path id="path4629" d="m79.719 45.349-0.09798-0.08122c-0.01547 0.02965-0.0361 0.05673-0.04641 0.08122h0.1444z"/><path id="path4631" d="m79.1 45.104c0-0.0026-0.01031-0.0026-0.02192-0.02578v-0.11732h-0.25141l0.11732 0.11732c0.07478 0 0.12119 0.02321 0.156 0.02578z"/><path id="path4633" d="m78.829 44.963v-0.26688c-0.04255 0-0.09154-0.02321-0.12377-0.06833v0.19597l0.12377 0.13924z"/><path id="path4635" d="m79.1 45.104c0.07865 0.06833 0.09798 0.03223 0 0z"/><path id="path4637" d="m78.649 44.576c-0.01676-0.03223-0.04255-0.05802-0.06833-0.08896l-0.01289-0.009c0.0013 0.05931 0.0013 0.08509 0.08122 0.09798z"/><path id="path4639" d="m78.7 44.64v-0.05802h-0.05802c0.009 0.01805 0.02707 0.03223 0.05802 0.05802z"/><path id="path4641" d="m76.406 45.646c0.0954 0.04255 0.21402 0.06962 0.3597 0.09412v-0.25656l-0.46671 0.02579 0.20112 0.10185c-0.02578 0-0.0477 0.02063-0.09412 0.03481z"/><path id="path4643" d="m76.315 45.697 0.18694 0.43577 0.13795-0.13408 0.12764-0.12377v-0.13408c-0.14569-0.0245-0.2643-0.05157-0.3597-0.09412-0.02578 0.01289-0.06317 0.03352-0.09283 0.05028z"/><path id="path4645" d="m75.645 45.543-4.0418 0.20242c0.64721 0.38678 1.6799 0 2.1917 0.25141v0.13408h0.25527c0 0.24754 0.12635 0 0.12635 0.24754h0.39065v0.13795h1.1642v-0.13795h0.38549c0-0.24754 0.12119 0 0.12119-0.24754h-0.62916l0.0361-0.5879z"/><path id="path4647" d="m76.135 45.427 0.08509 0.05157-0.06833-0.15342c-0.0245 0.02192-0.03997 0.04512-0.05415 0.07091 0.01418 0 0.02707 0.02578 0.03739 0.03094z"/><path id="path4649" d="m76.07 45.079-0.3365-0.77227-0.01676 0.35584c0.06833 0.15987 0.14053 0.29911 0.21273 0.41643h0.14053z"/><path id="path4651" d="m76.135 45.427c-0.01031-0.0039-0.02321-0.02965-0.0361-0.03223l-0.01934 0.0013 0.05544 0.03094z"/><path id="path4653" d="m75.929 45.079c-0.0722-0.11732-0.1444-0.25656-0.21273-0.41643l-0.04255 0.41643h0.25527z"/><path id="path4655" d="m75.825 45.478h-0.09154v-0.12764h-0.06575l-0.02192 0.18823 0.21789-0.01934c-0.0064-0.009-0.01934-0.02965-0.03868-0.04126z"/><path id="path4657" d="m76.238 45.749v0.25141h-0.25398v-0.25141s-0.05286-0.10056-0.12119-0.22175l-0.21788 0.01934-0.0361 0.58919h0.89217l-0.18694-0.43577c-0.01418 0.01676-0.03997 0.02965-0.07607 0.04899z"/><path id="path4659" d="m76.238 45.994v-0.25141c-0.02579 0.01547-0.04255 0.03223-0.08509 0.05415 0.0606 0.07349 0.08509 0.15342 0.08509 0.19726z"/><path id="path4661" d="m76.367 45.079h-0.30169l0.08896 0.23465c0.05544-0.05931 0.11861-0.13666 0.21273-0.23465z"/><path id="path4663" d="m75.348 45.079c0.13795 0 0.13795 0.14311 0.13795 0.26688h0.18179l0.0064-0.26688h-0.32618z"/><path id="path4665" d="m76.096 45.388c0.01418-0.02578 0.02965-0.04899 0.05415-0.07091l-0.08896-0.23465h-0.13924c0.05415 0.11088 0.11217 0.22433 0.17405 0.30556z"/><path id="path4667" d="m75.722 45.478h0.09154c-0.03997-0.10314-0.09154-0.20886-0.09154-0.25141l0.1315 0.12377 0.12119 0.12764v-0.12764l0.10056 0.03997 0.01934-0.0013c-0.06189-0.08122-0.1199-0.19468-0.17534-0.30556h-0.25527l-0.0064 0.26688h0.06575v0.12764h-0.0013z"/><path id="path4669" d="m75.98 45.865v0.12377h0.25398l-0.15342-0.15987c-0.03739 0.01934-0.06188 0.0361-0.10056 0.0361z"/><polygon id="polygon4671" transform="matrix(1.2893 0 0 1.2893 -767.21 -193.13)" points="650.52 185.07 650.5 184.97 650.4 184.97 650.4 184.97 650.21 184.97 650.31 185.07"/><path id="path4673" d="m72.112 45.349v-0.12377l0.1315-0.14311c0.02836 0 0.07091-0.0013 0.12377-0.01031v-0.01676l-0.50023 0.12119c-0.01031 0.0039-0.01031 0.02707-0.01031 0.04899v0.12377h-0.4087l0.02965 0.12764h0.5041l0.13022-0.12764z"/><path id="path4675" d="m72.37 45.053v0.01676c0.05931-0.01676 0.1199-0.04255 0.1921-0.06575l-0.1921 0.04899z"/><path id="path4677" d="m72.564 45.014 0.19468-0.03997c-0.04899-0.0013-0.12248 0.02063-0.19468 0.03997z"/><path id="path4679" d="m71.764 44.963h0.13279c-0.04899-0.05415-0.1444-0.13924-0.30298-0.26688v0.26688c0.03223-0.04254 0.10185-0.02578 0.17018 0z"/><polygon id="polygon4681" transform="matrix(1.2893 0 0 1.2893 -767.21 -193.13)" points="650.51 184.9 650.51 184.9 650.64 184.88 650.51 184.88"/><path id="path4683" d="m71.494 44.963v0.009h0.10443c-0.02707 0-0.06962-0.009-0.10443-0.009z"/><path id="path4685" d="m71.597 44.705-0.10443 0.25785c0.03352 0 0.07736 0.009 0.10443 0.009v-0.26688z"/><polygon id="polygon4687" transform="matrix(1.2893 0 0 1.2893 -767.21 -193.13)" points="650.81 184.88 650.64 184.88 650.51 184.9 650.51 184.9 650.51 184.97 650.81 184.97"/><polygon id="polygon4689" transform="matrix(1.2893 0 0 1.2893 -767.21 -193.13)" points="654.21 185.09 654.21 185.09 654.21 185.07 654.2 185.07"/><polygon id="polygon4691" transform="matrix(1.2893 0 0 1.2893 -767.21 -193.13)" points="654.26 185.09 654.26 185.09 654.21 185.07 654.21 185.09"/><polygon id="polygon4693" transform="matrix(1.2893 0 0 1.2893 -767.21 -193.13)" points="654.21 185.09 654.21 185.09 654.21 185.09 654.21 185.1"/><path id="path4695" d="m76.238 45.517 0.009 0.01934c0.05931 0.03223 0.09798 0.06833 0.15987 0.10314 0.04641-0.01547 0.06833-0.03481 0.09412-0.03481l-0.20112-0.10185h-0.06188v0.01418z"/><path id="path4697" d="m76.406 45.646c-0.06188-0.03481-0.10056-0.07091-0.15987-0.10314l0.06833 0.15342c0.02965-0.01547 0.06704-0.0361 0.09154-0.05028z"/><path id="path4699" d="m76.212 45.504h0.02579l-0.01289-0.03223-0.08509-0.05157c0.01805 0.03739 0.05673 0.05802 0.0722 0.0838z"/><path id="path4701" d="m76.032 45.517 0.18179-0.0064c-0.01547-0.02578-0.05415-0.0477-0.07349-0.08251l-0.05544-0.02965c-0.01676 0.05028-0.03739 0.08638-0.05286 0.11861z"/><path id="path4703" d="m76.238 45.53v-0.02192h-0.02579c0.01289 0.0064 0.02579 0.02192 0.02579 0.02192z"/><path id="path4705" d="m76.238 45.543-0.009-0.01934v0.0064c0.0064 0.01289 0.0064 0.01289 0.009 0.01289z"/><path id="path4707" d="m76.238 45.749c0.0361-0.01934 0.06188-0.03223 0.07735-0.04899l-0.06833-0.15342c-0.0026 0-0.0026 0-0.009-0.01289v0.21531z"/><path id="path4709" d="m76.019 45.569c0.0245 0.06575 0.08122 0.14698 0.13022 0.2282 0.04255-0.02192 0.0606-0.03868 0.08509-0.05415v-0.21531s-0.01289-0.01547-0.02578-0.02192l-0.18179 0.0064c0.0013 0.01676-0.0077 0.0361-0.0077 0.05673z"/><path id="path4711" d="m75.98 45.749v0.12764c0-0.04641 0.01547-0.09412 0.01547-0.12764h-0.01547z"/><path id="path4713" d="m76.032 45.517c0.01547-0.03223 0.0361-0.06833 0.05286-0.1199l-0.10056-0.03997v0.12764c0 0.01031 0.01547 0.02578 0.01547 0.04126l0.03223-0.009z"/><path id="path4715" d="m76.019 45.569c0-0.02192 0.009-0.03997 0.009-0.05544l-0.03223 0.009c-0.0013 0.0064 0.0116 0.02579 0.02321 0.04641z"/><path id="path4717" d="m75.993 45.749c0 0.03352-0.01547 0.08122-0.01547 0.12764 0.03868 0 0.06317-0.01676 0.10056-0.0361l-0.08509-0.09154z"/><path id="path4719" d="m71.416 45.182-0.05286-0.21144h-0.40225c0.12377 0 0.12377 0.26043 0.12377 0.3842l0.29137-0.07478 0.03997-0.09798z"/><path id="path4721" d="m72.241 44.963h-0.34423c0.15987 0.14053 0.02321 0.03997-0.13279 0h-0.17147v0.11732h0.26043v0.09412h0.01031c0.05673-0.12119 0.27074-0.21144 0.37775-0.21144z"/><polygon id="polygon4723" transform="matrix(1.2893 0 0 1.2893 -767.21 -193.13)" points="650.53 184.67 650.53 184.67 650.43 184.67 650.47 184.84"/><polygon id="polygon4725" transform="matrix(1.2893 0 0 1.2893 -767.21 -193.13)" points="650.44 184.91 650.44 184.91 650.21 184.97 650.4 184.97"/><path id="path4727" d="m71.855 45.233c0-0.02192 0-0.04512 0.01031-0.04899h-0.01031v0.04899z"/><polygon id="polygon4729" transform="matrix(1.2893 0 0 1.2893 -767.21 -193.13)" points="650.47 184.84 650.47 184.84 650.44 184.91 650.48 184.91"/><polygon id="polygon4731" transform="matrix(1.2893 0 0 1.2893 -767.21 -193.13)" points="650.81 184.76 650.61 184.76 650.61 184.67 650.53 184.67 650.47 184.84 650.48 184.91 650.51 184.9 650.51 184.88 650.64 184.88 650.81 184.84"/><path id="path4733" d="m71.906 44.963h-0.13279c0.15471 0.04126 0.29266 0.14053 0.13279 0z"/><polygon id="polygon4735" transform="matrix(1.2893 0 0 1.2893 -767.21 -193.13)" points="650.44 184.91 650.4 184.97 650.5 184.97 650.48 184.91"/><polygon id="polygon4737" transform="matrix(1.2893 0 0 1.2893 -767.21 -193.13)" points="650.48 184.91 650.5 184.97 650.51 184.97 650.51 184.9"/><polygon id="polygon4739" transform="matrix(1.2893 0 0 1.2893 -767.21 -193.13)" points="650.64 184.88 650.64 184.88 650.81 184.88 650.81 184.84"/><path id="path4741" d="m75.98 45.478h-0.15987c0.02063 0.01031 0.03223 0.03223 0.03868 0.04126h0.12119v-0.04126z"/><path id="path4743" d="m76.135 45.801c0.06446 0.08509 0.10443 0.13408 0.10443 0.1921 0-0.04512-0.02578-0.12377-0.08509-0.19855 0 0.0064-0.01289 0.0064-0.01934 0.0064z"/><path id="path4745" d="m75.864 45.517c0.06833 0.12119 0.12119 0.22175 0.12119 0.22175v-0.22175h-0.12119z"/><path id="path4747" d="m75.864 45.349-0.1315-0.12377c0 0.04255 0.05157 0.14955 0.09154 0.25141h0.15987l-0.1199-0.12764z"/><path id="path4749" d="m76.083 45.839 0.15342 0.15987c0-0.05802-0.03997-0.10701-0.10443-0.1921-0.01676 0.02192-0.02965 0.02836-0.04899 0.03223z"/><path id="path4751" d="m75.993 45.517c0-0.01547-0.01547-0.02965-0.01547-0.04126v0.04126h0.01547z"/><path id="path4753" d="m76.135 45.801c0.0064 0 0.01934 0 0.01934-0.0064-0.04899-0.08122-0.10572-0.16245-0.13022-0.2282 0 0.0039-0.0116 0.01289-0.0116 0.01934 0.03094 0.09025 0.07349 0.16632 0.12248 0.21531z"/><path id="path4755" d="m76.006 45.581c-0.01289-0.01934-0.01289-0.03997-0.01289-0.06575h-0.01547v0.22175h0.01547c0-0.05802 0-0.10959 0.01289-0.156z"/><path id="path4757" d="m75.993 45.517c0-0.01547-0.01547-0.02965-0.01547-0.04126 0.0013 0.0116 0.01547 0.02578 0.01547 0.04126z"/><path id="path4759" d="m75.993 45.517c0 0.02578 0 0.04641 0.01289 0.06575 0-0.0064 0.0116-0.01418 0.0116-0.01934-0.0116-0.02063-0.0245-0.03997-0.0245-0.04641z"/><path id="path4761" d="m75.993 45.749 0.08509 0.09154c0.01934-0.0039 0.03223-0.01031 0.04899-0.03223-0.04899-0.04899-0.09154-0.12635-0.12248-0.21531-0.0116 0.04641-0.0116 0.09798-0.0116 0.156z"/><path id="path4763" d="m78.043 44.705 0.0245 0.02192 0.0064-0.02192h-0.03094z"/><path id="path4765" d="m78.185 44.705h-0.10572l-0.0064 0.02192 0.11217 0.08509v-0.10701z"/><path id="path4767" d="m78.443 44.963c0-0.2282 0-0.26301-0.25785-0.26688v0.10701l0.38291 0.27719-0.12506-0.11732z"/><path id="path4769" d="m70.153 52.672-0.23594 0.02321c0.05157 0 0.13408 0.04899 0.23594 0.10443 0.01031-0.03997 0.02192-0.05931 0.02321-0.10443l-0.02321-0.02321z"/><path id="path4771" d="m71.081 52.763v-0.06446h0.4448c-0.01289-0.06833 0.02965-0.14698 0.10701-0.21918l-1.4775 0.19597 0.02321 0.02321c-0.0013 0.04512-0.01289 0.06446-0.02321 0.10443 0.01031 0 0.02321 0.01289 0.02707 0.01289l0.89862-0.05286z"/><path id="path4773" d="m70.81 52.969v-0.13279h-0.59048c0.20241 0.10185 0.44351 0.21015 0.59048 0.13279z"/><path id="path4775" d="m71.532 52.698h0.33521v-0.25656l-0.2282 0.0361c-0.07736 0.07349-0.1199 0.15213-0.10701 0.22046z"/><path id="path4777" d="m70.178 52.814c0.01547 0.0064 0.03094 0.01289 0.04255 0.01289h0.85478v-0.06575l-0.89733 0.05286z"/><path id="path4779" d="m91.851 63.025h0.26043l-0.20886-0.02063c-0.01031 0.01031-0.02965 0.01031-0.05157 0.02063z"/><path id="path4781" d="m89.788 62.741 0.77485 0.27203h1.2867c0.02192-0.01031 0.03997-0.01031 0.05157-0.02063l-2.1131-0.25141z"/><path id="path4783" d="m88.086 62.123 0.03352 0.02192v-0.02192h-0.03352z"/><polygon id="polygon4785" transform="matrix(1.2893 0 0 1.2893 -767.21 -193.13)" points="663.52 198.18"/><path id="path4787" d="m88.563 62.509h-0.19984c0-0.0361-0.04899-0.08509-0.13022-0.12377-0.16889-0.12893-0.50668-0.26688-0.50668-0.26688 0 0.13795 0.1199 0.13795 0.1199 0.39065l0.77485 0.09154c0-0.08122-0.02965-0.08122-0.05802-0.09154z"/><path id="path4789" d="m88.628 62.6c0.0116 0.0064 0.0116 0.02708 0.0116 0.04126v-0.04126h-0.0116z"/><path id="path4791" d="m88.641 62.509h-0.06962c0.02707 0.01031 0.05802 0.01031 0.05802 0.09154h0.0116v-0.09154z"/><path id="path4793" d="m88.886 62.638c0 0.2643 0.1315 0 0.1315 0.2643h0.12764c0-0.25398-0.12764-0.01547-0.12764-0.25398l-0.09798-0.01031h-0.03352z"/><path id="path4795" d="m89.53 63.154h0.25141v0.12764h1.0327v-0.12764c-0.11474-0.13408-0.77871 0.12764-0.90248 0v-0.13408h-0.46414c0.03352 0.01289 0.08251-0.0116 0.08251 0.13408z"/><path id="path4797" d="m88.241 62.38h0.26043c0 0.13408 0.02578 0.12377 0.06962 0.12377h0.06962v0.09154l0.28622 0.04126h0.09798v0.01031l0.76582 0.09412-1.6748-0.60595c0.0116 0.21788 0.12506-0.0116 0.12506 0.24496z"/><path id="path4799" d="m88.086 62.123-0.34681-0.11732c0 0.11088 0.19984 0.11732 0.34681 0.11732z"/><path id="path4801" d="m89.453 63.025c-0.02965 0-0.04512-0.01031-0.04512-0.11217v0.11217h0.04512z"/><path id="path4803" d="m76.638 54.761c0.12764 0 0.12764 0.03868 0.12764 0.06317v-0.06317h-0.12764z"/><path id="path4805" d="m76.496 54.387c-0.51699-0.77614-0.3842-0.52086 0 0.12635h0.13795v-0.12635h-0.13795z"/><path id="path4807" d="m77.102 55.406c-0.03094-0.02192-0.05931-0.05157-0.09541-0.07478 0 0.03481 0 0.07478 0.09541 0.07478z"/><path id="path4809" d="m76.767 54.825v0.20112h0.13408v-0.13279c-0.13408 0-0.13408-0.03352-0.13408-0.06833z"/><path id="path4811" d="m77.14 55.406h-0.0361c0.0116 0.01676 0.0245 0.0245 0.0361 0.04255v-0.04255z"/><path id="path4813" d="m76.896 55.29c0.01934 0 0.07349 0.01031 0.11346 0.04512 0-0.02321-0.01289-0.04512-0.11346-0.04512z"/><polygon id="polygon4815" transform="matrix(1.2893 0 0 1.2893 -767.21 -193.13)" points="654.91 192.8"/><path id="path4817" d="m77.257 55.702c-0.05544 0.05415 0.02836 0.01934 0 0z"/><path id="path4819" d="m77.257 55.702c0.0039-0.0077 0.0039-0.01934 0.01547-0.02578 0-0.05802-0.05802-0.14569-0.1315-0.22175v0.22175c0.07349 0.0013 0.10056 0.0064 0.11603 0.02578z"/><path id="path4821" d="m79.719 56.321 0.13408-0.12635c0-0.12377 0-0.26043 0.12119-0.26043h-0.8999v0.36486c0.02192 0.0064 0.03997 0.02192 0.04255 0.02192h0.60208z"/><path id="path4823" d="m79.126 56.321c-0.0026 0-0.02192-0.01547-0.04254-0.02192v0.02192h0.04254z"/></g></symbol><symbol id="SNP" viewBox="0 0 56.000002 56.000004"><path id="path6" d="m46.008 30.029-11.859-12.328 15.744-15.652-12.388-0.1244-9.325 9.5124-9.326-9.5124-12.384 0.1244 15.742 15.652-11.855 12.328s-9.9964 8.9849-0.70752 18.21c6.5611 6.5169 18.531 6.4685 18.531 6.4685s11.97 0.04837 18.534-6.4685c9.2875-9.2253-0.70475-18.21-0.70475-18.21zm-6.7877 16.837c-4.6583 4.4482-11.041 4.2409-11.041 4.2409s-6.3828 0.2059-11.041-4.2409c-4.6583-4.4537-2.2773-9.007-1.2395-10.353 1.035-1.3432 12.282-12.621 12.282-12.621s11.25 11.277 12.283 12.621c1.0322 1.3459 3.4118 5.8992-1.2437 10.353z" fill="#fcca46"/></symbol><symbol id="LD" viewBox="0 0 56 56">
 <g fill="#F37A48">
  <path id="path3053" d="m37.063 28.662c1.6198-0.93989 3.1971-0.98233 4.8177-0.98233 0.80988 0.04246 1.6207 0.08484 2.473 0.04246 0.85322-0.04246 1.7489-0.17064 2.687-0.4695 3.0264-1.023 5.0317-2.3872 7.4189-4.8611 0 2.3032-0.85141 4.0945-3.4111 6.0556-2.6861 2.0477-5.6276 3.0707-9.0396 3.2847-1.1936 0.08306-1.9619-0.04426-2.6861-0.12821-0.72501-0.08573-1.4934-0.12911-2.6445 0-1.961 0.25551-3.0282 0.72501-4.5622 1.748 1.3642-2.2599 2.5145-3.3262 4.9469-4.6895"/>
  <path id="path3055" d="m15.742 16.294c1.8328 0.98142 3.2404 1.6207 4.5622 2.3032 1.3209 0.68258 2.5578 1.4067 4.0936 2.473 1.6207 1.1936 2.8567 3.1555 2.3023 5.7576-0.38372 1.7037-1.1945 3.2395-2.3457 4.8177 0.55527-2.3023 0.55527-3.7948-0.72501-6.0989-0.979-1.747-3.198-2.771-5.627-3.837-1.238-0.513-2.56-1.11-3.796-1.748-1.237-0.682-2.432-1.45-3.455-2.473-1.8757-1.792-2.8562-3.454-3.3257-6.014-0.298-1.7054 0.1715-3.3252 0.6826-4.3066 0.89565 4.0512 3.6666 7.037 7.6338 9.1254"/>
  <path id="path3057" d="m18.982 31.006c1.8762 0.12731 2.6427 0.9399 2.7709 2.2599 0.08577 0.4695 0.04334 0.81079-0.12821 1.2785-0.55346-0.68166-1.2785-0.89565-2.0884-0.93628-0.42706-0.04426-0.85322-0.04426-1.3218-0.04426-0.42706 0-0.89565-0.04246-1.3227-0.12821-2.3023-0.42616-3.8372-0.76654-6.6524-3.7514-0.55437-0.5968-0.93718-1.1945-1.1936-1.7064-0.084871-0.1273-0.17064-0.25551-0.21308-0.38282 2.0053 1.5331 5.5003 3.0707 10.149 3.4111"/>
  <path id="path3059" d="m15.271 24.097c1.0248 0.38372 2.0477 0.76835 2.9867 1.1521 0.89475 0.38463 1.7895 0.76745 2.5145 1.1521 1.5358 0.85141 2.5163 1.7895 2.687 3.1546 0.12821 0.72591 0.08487 2.7294-0.85322 4.0079 0.08487-0.46859 0.12821-0.93718 0-1.5782-0.29795-1.6622-1.45-2.6003-2.8143-3.1971-0.68257-0.29885-1.4076-0.51102-2.1317-0.72501-0.72501-0.16974-1.4509-0.34128-2.0893-0.51193-4.82-1.365-8.9123-3.581-9.6797-7.335-0.2564-1.279-0.2998-2.387-0.2998-3.112 0-0.29886 0-0.51194 0.043343-0.68168 1.5349 4.22 5.7143 6.1414 9.6364 7.6744"/>
  <path id="path3061" d="m40.473 22.904s-0.16974-0.51193-1.0654-0.38372c-0.34129 0.04426-0.68257 0.04426-1.0239 0.04426-0.72501 0-1.45-0.08672-2.0884-0.21398-0.76835-0.17156-1.0248-0.21309-1.7922-0.21309-2.8567 0-5.671 2.1308-6.6524 5.1157-2.175 6.7797-8.5277 11.684-16.034 11.684-3.8372 0-7.632-1.2776-10.233-3.4544-0.043358 0.34219-0.043358 0.55437-0.043358 0.80988 0 0.89746 0 1.7498 0.38372 2.7736 0.55527 1.4085 1.7913 2.6843 3.5826 2.6843 3.3686 0 5.4154-1.5331 8.9547-2.1308 1.0239-0.17064 1.8346-0.29886 3.4129-0.29886h2.6427c5.3721 0 9.8928-3.4544 11.557-8.2721 1.1512-3.6241 4.0927-6.6524 8.3995-8.1448"/>
  <path id="path3063" d="m17.063 40.131c-0.42706 0.21307-0.81078 0.38553-1.3218 0.72591-0.72591 0.4695-1.5773 1.3209-2.389 2.2166-0.85322 0.85412-1.7046 1.7922-2.3448 2.389-0.68257 0.63924-1.5782 1.023-2.5588 1.023-0.85231 0-1.6198-0.29705-2.2599-0.76655-0.9812-0.767-1.8759-1.707-2.6018-2.73 1.3642 0.85142 2.6021 1.1512 4.2643 0.89566 1.0663-0.12731 2.0477-0.68348 2.9867-1.2803 0.51103-0.29795 0.97872-0.59681 1.4491-0.89385 0.46769-0.29975 0.93809-0.59861 1.4076-0.81168 1.236-0.59591 2.0893-0.72502 3.3686-0.76835"/>
  <path id="path3065" d="m13.309 47.211c0.55437-0.4695 0.98143-1.0672 1.3227-1.664 0.38372-0.64014 0.68257-1.2794 0.98143-1.9195 0.55436-1.2776 1.1503-2.4305 2.1741-3.0707 0.38372-0.21308 0.85322-0.33948 1.3218-0.38282 0.38372-0.04336 0.76835-0.04336 1.1521-0.04336-0.12821 0.08672-0.21398 0.13001-0.29885 0.21307-0.21308 0.13092-0.42616 0.29976-0.63924 0.51284-0.55437 0.5968-0.89565 1.6207-1.1521 2.687-0.1273 0.51103-0.21308 1.023-0.34038 1.534-0.12731 0.51284-0.25642 0.98142-0.42706 1.3642-0.68167 1.4934-2.0459 2.3899-3.6241 2.3899-1.4085 0-2.6012-0.25642-3.7957-0.76925 1.3218 0.08573 2.473-0.04151 3.3253-0.85141"/>
  <path id="path3067" d="m33.949 34.077c1.4491-0.42797 2.687-0.21398 3.8806 0.04246 0.63924 0.16974 1.2794 0.29704 1.9186 0.38372 0.68257 0.08484 1.4076 0.1282 2.175 0.04151 2.3466-0.29704 4.1361-0.85231 5.6719-1.4915 1.4076-0.59771 2.6427-1.3209 3.9663-2.0902-1.1105 1.6198-2.8152 3.5402-5.6294 5.0742-2.1326 1.153-4.3492 1.9204-7.8036 1.664-0.76744-0.04151-1.3218-0.16974-1.8328-0.34129-0.51283-0.16974-0.93899-0.38282-1.3651-0.59681-0.89656-0.38372-1.8771-0.76744-3.6675-0.68257-0.55437 0-0.89565 0.04336-1.3642 0.12911 1.3209-1.0672 2.3023-1.6216 4.0503-2.1326"/>
 </g>
</symbol><symbol id="Con" viewBox="226.5 165.1 56.000001 56.000001"><style type="text/css">
	.st0{fill:#E63329;}
	.st1{fill:#FFFFFF;}
	.st2{fill:#11437D;}
</style><g transform="matrix(.088142 0 0 .088142 206.99 156.53)"><path class="st0" fill="#e63329" d="m245.9 494.8c7.2-9.2 17.8-22.3 30.9-36.6h47.3l-78.2 36.6zm-10.3-169.4 6.1 3.6h49.7l2.7-1.8-47-27.7c-4.2 8.3-7.9 17-11.5 25.9m421.8 183c-2.8 5-7.2 13.3-10 21-0.6 1.6-1.1 3.2-1.6 4.8l58.8 34.6c7.5-3.9 16.3-8.7 26.3-14.5 0.8-0.4 1.5-0.9 2.2-1.3l-75.7-44.6zm132-79c-11.7-13-43.6-39.7-43.6-39.7s-35.5 24.9-62.6 38c0 0 23.5-22.1 31.8-29.6 11.6-10.6 45.6-43.5 45.6-43.5l-0.6-0.7-307.1 1 39.5-184.1c-16.5 4.7-40.4 12.4-66.4 23.9-5.1 2.3-10.1 4.6-14.9 6.9l-32.6 153.3h-99.9c-30.9 31.1-51 58.8-51 58.8l17.1 18.7h39.6c11.8-10.4 28.9-24.3 52.4-40.5l-5.9 15.8c-10 7.8-19.6 16.2-28.6 24.8h59.1l-22.4 101.3 27.3 27.2 1.9 2.2s18-3.1 40.6-8.8l27-121.8 353.1-1c0.4-1.3 0.7-2 0.6-2.2m-134.4 77.6l-82.8-48.7h-55.5l110.9 65.2c12.3-6.9 21.9-12.9 27.4-16.5m36-246.1-14.5-19.1-186.7 87.2h55.4l145.8-68.1zm-447.6 105.3s5-4.5 13.5-11.3h-24.8c5.3 5 11.3 11.3 11.3 11.3"/><g fill="#fff"><path class="st1" d="m294 327.1c12.3-8.5 26.1-17.3 40.4-25.2l-66.1-38.9c-7.8 11.5-14.9 23.6-21.2 36.5l46.9 27.6z"/><path class="st1" d="m825.4 458.3-19.4-14.3s-6.2 6.1-15.3 14.3h34.7z"/><path class="st1" d="m737.5 329h-109.1l84.4-39.4-21.8-28.7-145.8 68.1h-55.5l186.7-87.2-11.1 5.2-7.9-9.2-171.8 80.2 32.2-146.8c-2-3.9-3.1-6.1-3.1-6.1s-8.6 1.8-22.5 5.7l-39.5 184.1 307.1-1-22.3-24.9z"/><path class="st1" d="m241.6 329-6.1-3.6c-3.2 7.9-6.2 15.9-9 24.2 1.4 1.1 3.4 3.1 5.6 5.2h24.8c8.5-6.9 20.3-16.1 34.4-25.9l-49.7 0.1z"/><path class="st1" d="m436 546.5 16.3-77.2 130.3 77.1c4.7-2.1 9.5-4.3 14.4-6.7 11.2-5.4 21.6-11.1 30.6-16.2l-110.9-65.3h55.5l82.9 48.8c3.3-2.1 5.1-3.3 5.1-3.3s-1.1 1.8-2.7 4.7l75.7 44.5c4.8-2.8 9.3-5.6 13.8-8.5l-146.9-86.3h170.6c8.6-11.9 16.1-22.6 18.2-26.9l-353.1 1-27 121.8c8.5-2 17.9-4.6 27.2-7.5"/><path class="st1" d="m645.8 534.2c-4 12-6.5 24-6.5 24l35.3 24.9s10.8-4.3 30-14.3l-58.8-34.6z"/><path class="st1" d="m361.6 318-24.1-14.2c-1.2 0.8-24.3 17.1-52.5 44.6-2.2 2.2-4.4 4.3-6.5 6.5h99.8l32.5-153.4c-8.8 4.2-17.2 8.4-25.3 12.8l-23.9 103.7z"/><path class="st1" d="m284.2 432.4h-39.6l18.7 20.5c-0.1-0.1 6.4-7.7 20.9-20.5"/><path class="st1" d="m311.5 543.3 21.4-15 2.5 2 3.3 3.3 22.4-101.3h-59.1c-9.1 8.7-17.6 17.5-25.3 25.9h47.4l-78.2 36.6c-6.4 8.3-10.1 13.4-10.1 13.4l2.9 2.9 89.6-41.9-16.8 74.1z"/></g><g fill="#11437d"><path class="st2" d="m825.4 458.3h-34.7c-5.3 4.7-11.5 10.1-18.1 15.6-12.2 10-29.5 20.3-29.5 20.3 7-8.6 17.9-22.9 27.3-35.8h-170.4l147 86.3c16.8-10.7 30.9-21.2 42.3-29.9 0 0-12.2 18.7-21.1 32.2 12.3 11.7 25.4 22.1 25.4 22.1l56.2-92.8-24.4-18z"/><path class="st2" d="m517.8 171.1-32.2 146.9 171.8-80.3-6.6-7.7-53.9 27.6-23.4-43.4-65.4 28.6c8-8 12-11.3 31.6-23-8.2-20.9-17.3-39.5-21.9-48.7"/><path class="st2" d="m334.4 302c0.7 0.2 2.5 1.4 3.2 1.7l-0.1 0.1 24.1 14.2 24-103.6c-31.1 16.7-57.5 34.8-80.4 55.3l-1.4-0.7c5.7-10.7 22.2-28.2 40.9-44.8 17.4-15.4 41.5-28.8 41.5-28.8l4-24.1c-31.5 11.5-66.4 28.4-93.7 56.9-10.3 10.8-19.6 22.5-28.2 35l66.1 38.8z"/><polygon points="628.4 329 737.5 329 717 306 719.4 298.3 712.8 289.6" class="st2"/><polygon points="328.2 469.3 238.7 511.2 287.2 560.3 311.5 543.3" class="st2"/><path class="st2" d="m437.2 546.1c29.6-9.5 56.3-23.4 56.3-23.4s5.8 6.5 11.3 13.9l23.7 30.4s24.7-7.5 54.1-20.6l-130.3-77.1-16.3 77.2c0.4-0.1 0.8-0.2 1.2-0.4"/><path class="st2" d="m672.5 636.8c-0.7 0 1.4-5.9 0.9-5.9-53.8-2-156.3-1.9-166.4-9.4-7.3-5.5 3.8-33.3 11.1-48.5 0 0-11.2-15.1-29.1-37-1.8 1.8-29.3 32.6-32.1 80.5-15 4.2-16.9 7.2-46.5 9.6-17.8 1.4-97.8 3.9-97.8 3.9l-4.4 4c-4.8 0.4-31.4 1.3-31.4 1.3s2.8 9 8.6 15.3c7.1 0.6 170.3 4.1 191.9-10 8.4 7.1 23.5 11 53.2 9.7 5.6-0.2 101.7 0.9 113.2 0.8 40.6-0.3 123.1-5.4 123.1-5.4l7.4-8.1c-8.9 0-52.4-0.5-79.4-0.5-7.5-0.1-20.6-0.1-22.3-0.3"/></g></g></symbol></svg>