<?xml version="1.0" encoding="UTF-8" standalone="no"?>
<svg id="svg2" xmlns:rdf="http://www.w3.org/1999/02/22-rdf-syntax-ns#" xmlns="http://www.w3.org/2000/svg" height="56" width="56" version="1.1" xmlns:cc="http://creativecommons.org/ns#" xmlns:dc="http://purl.org/dc/elements/1.1/" viewBox="0 0 56 56">
 <g id="layer1" transform="translate(0 -996.36)">
  <path id="path4149" d="m10 1052c0-0.035 0.0273-0.1134 0.06067-0.1758 0.05074-0.095 0.04116-0.1134-0.05861-0.1134-0.27374 0-0.043427-0.2703 0.27818-0.3264 0.11983-0.021 0.31522-0.1143 0.4342-0.2074 0.11898-0.093 0.28022-0.1694 0.35831-0.1694 0.09092 0 0.24521-0.1019 0.429-0.2826 0.15786-0.1553 0.33944-0.2963 0.40352-0.3133 0.17622-0.047 0.99933-0.5944 0.92875-0.6179-0.03387-0.012-0.26124 0.06-0.50528 0.1571-0.24404 0.098-0.49541 0.1777-0.55862 0.1777s-0.14824 0.04-0.18897 0.089c-0.04275 0.051-0.1201 0.075-0.18298 0.055-0.05991-0.019-0.10893-0.011-0.10893 0.028 0 0.035-0.03547 0.062-0.07882 0.062s-0.12655 0.053-0.18489 0.1173c-0.05834 0.064-0.18012 0.1172-0.27062 0.1172-0.09051 0-0.29738 0.053-0.45973 0.1164-0.2447 0.097-0.29518 0.1019-0.29518 0.03 0-0.047 0.08025-0.1271 0.17832-0.1778 0.09807-0.05 0.20291-0.1569 0.23296-0.2359 0.03157-0.083 0.10171-0.1437 0.16611-0.1437 0.06132 0 0.14431-0.04 0.18443-0.088 0.04013-0.048 0.12055-0.088 0.17873-0.088s0.15763-0.066 0.22102-0.1464c0.06339-0.081 0.16419-0.1468 0.22401-0.147 0.05983-0.0001 0.18788-0.053 0.28458-0.1168 0.0967-0.064 0.23966-0.1166 0.3177-0.1168s0.18659-0.041 0.24123-0.09 0.25809-0.1154 0.45212-0.1467c0.39176-0.063 0.72341-0.1853 0.81935-0.302 0.05765-0.07 0.09576-0.311 0.08038-0.5078-0.0038-0.047-0.04343-0.065-0.09955-0.044-0.3095 0.1187-0.37547 0.1106-0.37547-0.046 0-0.097-0.03223-0.1528-0.0879-0.1528-0.04834 0-0.0879-0.04-0.0879-0.088s-0.02637-0.088-0.05861-0.088c-0.03223 0-0.05861 0.087-0.05861 0.1934 0 0.198-0.0859 0.3341-0.21094 0.3341-0.03866 0-0.20745 0.092-0.37508 0.205-0.3001 0.202-0.52742 0.264-0.52742 0.1439 0-0.038-0.07573-0.047-0.1984-0.024-0.11397 0.021-0.2142 0.012-0.23553-0.023-0.02201-0.036-0.09654 0-0.18301 0.086-0.08024 0.08-0.17405 0.1285-0.20849 0.1071-0.03444-0.021-0.27002 0-0.52352 0.036-0.37044 0.06-0.47834 0.061-0.54975 0-0.073596-0.061-0.11189-0.049-0.22317 0.07-0.07388 0.08-0.18005 0.2115-0.23594 0.2933-0.055896 0.082-0.18399 0.1668-0.28466 0.1889-0.10067 0.022-0.27618 0.1029-0.39002 0.1807-0.24397 0.1655-0.2459 0.1657-0.46229 0.053-0.22537-0.1175-0.46836-0.1088-0.76852 0.027-0.264 0.1198-0.29882 0.1019-0.15902-0.083 0.047472-0.063 0.071737-0.1601 0.053922-0.2162-0.052595-0.1656 0.16145-0.2434 0.45382-0.1646 0.21517 0.058 0.2552 0.054 0.32234-0.039 0.066527-0.091 0.053385-0.1289-0.099417-0.2866-0.096843-0.1-0.17608-0.214-0.17608-0.2536 0-0.1142 0.2898-0.1938 0.55851-0.1536 0.27951 0.042 0.54795-0.065 0.69788-0.2797 0.13228-0.1889 0.12136-0.3004-0.021892-0.2238-0.1654 0.088-0.41407 0.076-0.41407-0.021 0-0.099 0.48914-0.4155 0.7279-0.4714 0.094154-0.022 0.23615-0.091 0.31556-0.1537 0.19716-0.1551 0.38342-0.153 0.33368 0-0.0264 0.083-0.01052 0.1172 0.05466 0.1172 0.05052 0 0.09225-0.046 0.09275-0.1029 0.0022-0.2514 0.09133-0.2808 0.40527-0.1337 0.34356 0.1609 0.44376 0.1312 0.18323-0.055-0.21666-0.1543-0.22493-0.2223-0.03574-0.2942 0.07889-0.031 0.18829-0.123 0.24311-0.2066 0.12651-0.1931 0.37342-0.3216 0.62142-0.3234 0.10635 0 0.35159-0.069 0.54498-0.1518 0.19339-0.083 0.49001-0.2073 0.65916-0.277 0.5016-0.2063 0.36961-0.304-0.14422-0.1067-0.15429 0.059-0.38519 0.1-0.51311 0.09-0.16473-0.013-0.36135 0.04-0.67392 0.179-0.24274 0.1079-0.56356 0.2135-0.71295 0.2345-0.15588 0.022-0.31581 0.087-0.37535 0.1527-0.11672 0.129-0.26329 0.1479-0.36419 0.047-0.051137-0.052-0.10981-0.022-0.24034 0.1171-0.11827 0.1267-0.22716 0.1849-0.34555 0.1849-0.095079 0-0.30074 0.068-0.45704 0.1511-0.15775 0.084-0.34315 0.1398-0.41675 0.1258-0.086801-0.017-0.17734 0.022-0.26219 0.1126-0.071285 0.076-0.15798 0.1379-0.19264 0.1378-0.034676-0.0001-0.17371 0.059-0.30897 0.1301-0.30111 0.1595-0.38606 0.1019-0.17466-0.1191 0.086286-0.09 0.15688-0.1791 0.15688-0.1978 0-0.019-0.11681-0.052-0.25959-0.074-0.2532-0.038-0.56084-0.2199-0.56084-0.3317 0-0.031 0.07252-0.083 0.16116-0.1168 0.088635-0.034 0.2139-0.1103 0.27836-0.1705 0.068926-0.064 0.22583-0.117 0.38091-0.1279 0.21545-0.015 0.26691-0.041 0.28119-0.1409 0.00956-0.067-0.024455-0.1572-0.075708-0.1997-0.078408-0.065-0.11834-0.059-0.25189 0.039-0.20867 0.1521-0.34408 0.1995-0.45172 0.1582-0.1374-0.053-0.10321-0.2298 0.058602-0.3035 0.15518-0.07 0.19863-0.1865 0.069986-0.1865-0.042084 0-0.16207 0.063-0.26662 0.1403-0.11578 0.085-0.23651 0.1281-0.3088 0.1092-0.091955-0.024-0.1144-0.01-0.099639 0.08 0.013029 0.076-0.013381 0.1079-0.0835 0.1019-0.071322-0.011-0.10255 0.035-0.10255 0.132 0 0.089-0.033962 0.1399-0.094093 0.1399-0.051752 0-0.17244 0.066-0.26821 0.1465-0.22408 0.1886-0.36811 0.1952-0.318 0.015 0.10079-0.3631 0.10407-0.3955 0.039969-0.3955-0.048098 0-0.049891-0.031-0.00634-0.1133 0.11508-0.215 0.075267-0.2969-0.14444-0.2969-0.16439 0-0.20511-0.023-0.20511-0.1145 0-0.321 0.25673-0.5301 0.65076-0.5301 0.090452 0 0.26161-0.066 0.38035-0.1466 0.11874-0.081 0.25836-0.1471 0.31026-0.1477 0.070658 0 0.059122-0.028-0.045907-0.1092-0.18058-0.1388-0.13139-0.2096 0.22888-0.3293 0.16078-0.053 0.29232-0.1241 0.29232-0.1572 0-0.033-0.036812-0.046-0.081803-0.028-0.36756 0.1411-0.57934 0.1748-0.68444 0.1092-0.061157-0.038-0.15111-0.069-0.19989-0.069-0.048784 0-0.088698-0.039-0.088698-0.086 0-0.105 0.19639-0.2181 0.30587-0.1761 0.044817 0.017 0.13499-0.044 0.20519-0.1386 0.081994-0.111 0.21425-0.1918 0.38306-0.2344 0.14181-0.036 0.33331-0.1243 0.42558-0.1968 0.10973-0.086 0.25001-0.1327 0.40561-0.1341 0.13082 0 0.26423-0.019 0.29646-0.039 0.032229-0.02 0.54646-0.1343 1.1427-0.2532 5.2881-1.0547 10.039-2.9996 13.654-5.5891 2.4806-1.777 4.5881-3.9408 5.9231-6.0814 0.3059-0.4906 0.95633-1.7229 0.74317-1.4081-0.93217 1.3766-1.4944 2.0683-2.3541 2.8964-3.5159 3.3864-9.1787 5.4107-15.871 5.6735-0.5721 0.022-1.0402 0.025-1.0402 0 0-0.091 0.54433-0.9189 0.60506-0.9194 0.44719 0 2.302-0.1428 3.1748-0.2381 8.049-0.8788 13.49-3.9031 15.437-8.58 0.28574-0.6862 0.27532-0.6956-0.06686-0.06-0.79871 1.4845-1.5612 2.3734-2.7884 3.2507-1.5393 1.1002-3.7206 1.8025-6.3704 2.0508-0.82362 0.077-3.3024 0.078-4.2841 0-0.95861-0.075-2.3803-0.2316-2.5633-0.2828l-0.14012-0.039 0.24763-0.3676c0.20814-0.3091 0.25904-0.3539 0.31912-0.2815 0.05322 0.064 0.10851 0.072 0.2163 0.032 0.09641-0.037 0.33482-0.027 0.71334 0.028 1.2283 0.1809 2.2423 0.2351 4.407 0.2358 2.3831 0 2.872-0.042 4.0778-0.3551 2.8713-0.7455 4.908-2.5668 5.5642-4.9757 0.13137-0.4823 0.17488-1.3299 0.08939-1.7416-0.13943-0.6714-0.57759-1.3356-1.1664-1.7678-0.67287-0.494-1.3204-0.793-3.0002-1.3859-1.2031-0.4246-1.6534-0.6317-1.978-0.9095-0.76552-0.6553-0.20378-1.6627 1.1787-2.1138 0.41508-0.1354 0.6054-0.1601 1.4171-0.1835 1.4594-0.042 2.2827 0.1479 4.4646 1.0303l0.30389 0.1228 0.05959-0.188c0.23036-0.7273 0.82699-2.7978 0.82699-2.87 0-0.089-0.67113-0.3607-1.5365-0.6223-2.0016-0.6054-4.6711-0.5613-6.7288 0.1111-2.8164 0.9204-4.7022 3.0042-4.8943 5.4087-0.07063 0.884 0.18381 1.6481 0.74784 2.2458 0.6259 0.6633 1.4069 1.0744 3.2113 1.6904 2.2955 0.7836 2.774 1.1776 2.4971 2.0561-0.20384 0.6467-0.86632 1.1495-1.8096 1.3735-0.64047 0.1521-1.9367 0.1663-2.7093 0.029-1.0018-0.1773-2.166-0.6298-3.2676-1.2702-0.35223-0.2048-0.38925-0.2431-0.33443-0.3455 0.04838-0.09 0.04128-0.123-0.03299-0.1515-0.07814-0.03-0.05936-0.073 0.10778-0.2482 0.12309-0.1288 0.21764-0.2979 0.24126-0.4316 0.03049-0.1725 0.06663-0.2213 0.16805-0.2267 0.22688-0.013 0.28994 0.013 0.56045 0.219l0.26507 0.2024 0.13398-0.134c0.12927-0.1292 0.13098-0.1439 0.04862-0.4176-0.07597-0.2524-0.07526-0.3032 0.0065-0.4614 0.08408-0.1625 0.08344-0.1999-0.0076-0.438-0.11901-0.3117-0.29839-0.4058-0.58967-0.3097-0.11156 0.037-0.3367 0.048-0.53363 0.026-0.2761-0.03-0.44059-0.01-0.86807 0.1211-0.66734 0.2009-1.1169 0.2213-1.2381 0.057-0.04734-0.064-0.07273-0.1686-0.05642-0.2313 0.01631-0.063 0.0014-0.1483-0.03342-0.1901-0.03469-0.042-0.04885-0.1304-0.03146-0.1969 0.02012-0.077 0.0066-0.1126-0.03704-0.098-0.03775 0.013-0.09502 0.1447-0.12724 0.2936-0.0785 0.3629-0.15016 0.4276-0.32081 0.2893l-0.13447-0.1088 0.16507-0.2495c0.1511-0.2283 0.16035-0.2726 0.10929-0.5233-0.08236-0.4047-0.04994-0.499 0.15712-0.4576 0.13115 0.026 0.17031 0.013 0.17031-0.06s0.01738-0.079 0.08268-0.025c0.12899 0.107 0.16997-0.026 0.06547-0.2138-0.05008-0.089-0.12367-0.2104-0.16355-0.2685-0.06019-0.087-0.05509-0.1157 0.03004-0.1641 0.16847-0.096 0.11651-0.1685-0.07325-0.1019-0.1967 0.068-0.20624 0.104-0.10427 0.3859 0.0823 0.2275 0.01625 0.3061-0.25853 0.3078-0.21839 0-0.25932-0.1-0.10644-0.2625 0.10306-0.1096 0.12063-0.1757 0.08722-0.3278-0.03446-0.1568-0.05147-0.1731-0.09653-0.092-0.03009 0.054-0.13333 0.1384-0.22943 0.1882-0.1091 0.057-0.23129 0.2049-0.3253 0.3955-0.08281 0.1679-0.24495 0.3782-0.36031 0.4672l-0.20975 0.162-0.15382-0.1474c-0.08461-0.081-0.17966-0.1473-0.21123-0.1473-0.03158 0-0.1091-0.086-0.17227-0.1905-0.10713-0.1776-0.11614-0.1815-0.13391-0.059-0.02266 0.1568-0.22101 0.1788-0.39527 0.044-0.11075-0.086-0.10923-0.091 0.05793-0.2304 0.14022-0.1161 0.15865-0.158 0.10053-0.2279-0.11048-0.1332 0.05001-0.2508 0.39859-0.292 0.35882-0.042 0.41333-0.072 0.41333-0.2199 0-0.075-0.04025-0.1137-0.1172-0.1137-0.15848 0-0.14876-0.1438 0.01465-0.2168l0.13186-0.059-0.14391-0.045c-0.09972-0.031-0.15179-0.022-0.16957 0.032-0.04143 0.1243-0.31828 0.3559-0.36613 0.3063-0.02414-0.025-0.05251-0.1224-0.06305-0.2167-0.01053-0.095-0.04574-0.1799-0.07822-0.1906-0.07613-0.025-0.21488 0.1966-0.25998 0.4151-0.04714 0.2284-0.22054 0.2668-0.76414 0.1696-0.24605-0.044-0.26499-0.061-0.29794-0.2637-0.05601-0.3449-0.24471-0.5159-0.3069-0.2781-0.02788 0.1067-0.04584 0.1118-0.15513 0.044-0.10332-0.064-0.13218-0.063-0.17594 0.01-0.04222 0.068-0.069384 0.07-0.14037 0.012-0.048406-0.04-0.13613-0.065-0.19492-0.055-0.18431 0.032-0.16139-0.2036 0.037092-0.3805 0.1063-0.095 0.17832-0.2165 0.17832-0.3015 0-0.2211 0.081349-0.2213 0.29522 0 0.2246 0.2318 0.34489 0.2526 0.49591 0.086 0.10421-0.1152 0.10236-0.1172-0.10606-0.1172-0.15288 0-0.22983-0.033-0.2755-0.1185-0.07447-0.139-0.02245-0.2545 0.09448-0.2096 0.04509 0.018 0.08198 0.011 0.08198-0.025 0-0.032-0.05083-0.057-0.11295-0.057-0.14093 0-0.38147-0.2909-0.30434-0.368 0.03411-0.034 0.13604-0.028 0.26932 0.016 0.11794 0.039 0.22926 0.056 0.24738 0.038 0.0374-0.038-0.17021-0.1303-0.40006-0.1791-0.08777-0.019-0.16743-0.084-0.18497-0.1505-0.02039-0.078-0.079836-0.1179-0.17563-0.1179-0.14065 0-0.32456-0.1472-0.26204-0.2097 0.01707-0.017 0.093345-0.035 0.16951-0.038 0.07616 0 0.16823-0.029 0.2046-0.057 0.036651-0.027 0.13461-0.023 0.21976 0.011 0.14824 0.057 0.21999-0.011 0.09504-0.085-0.11377-0.07-0.05655-0.1464 0.11003-0.1464 0.09275 0 0.20146 0.04 0.24158 0.088 0.04013 0.048 0.15675 0.088 0.25916 0.088 0.22121 0 0.32686 0.09 0.32686 0.2783 0 0.114 0.0177 0.1279 0.10256 0.081 0.15964-0.089 0.13818-0.3548-0.03212-0.3976-0.19087-0.048-0.37583-0.3559-0.29946-0.4985 0.03155-0.059 0.11487-0.1072 0.18518-0.1072 0.12639 0 0.53497 0.1294 0.79174 0.2509 0.11164 0.053 0.1584 0.038 0.29622-0.095 0.20657-0.1979 0.2547-0.1962 0.49753 0.017 0.24922 0.2188 0.4488 0.2951 0.77217 0.2951 0.29934 0 0.44049-0.045 0.44049-0.1392 0-0.045-0.12643-0.067-0.36626-0.067-0.30501 0-0.40529-0.026-0.59962-0.16-0.12835-0.088-0.27589-0.1613-0.32788-0.1613s-0.14225-0.053-0.20058-0.1171c-0.05834-0.064-0.14061-0.1172-0.18283-0.1172-0.06788 0-0.19809-0.1708-0.19809-0.2599 0-0.018 0.05581-0.033 0.12404-0.033 0.10095 0 0.11689-0.024 0.08562-0.1319-0.09668-0.3317-0.09864-0.5017-0.0083-0.718 0.0556-0.133 0.08095-0.2959 0.06053-0.3889-0.02848-0.1296-0.0054-0.1795 0.12229-0.2631 0.29219-0.1914 1.0808-0.2924 1.0808-0.1384 0 0.097 0.17577 0.1052 0.44848 0.023 0.15944-0.048 0.34832-0.068 0.43056-0.045 0.17685 0.048 0.79661 0.044 0.87884-0.011 0.12868-0.08 0.057-0.2052-0.11702-0.2052-0.0967 0-0.17848-0.02-0.18175-0.044-0.04502-0.3329-0.03421-0.4845 0.03885-0.5451 0.04637-0.039 0.08431-0.1019 0.08431-0.1407 0-0.039 0.05666-0.068 0.12592-0.066 0.06926 0 0.13738-0.028 0.15139-0.068 0.014-0.04-0.01473-0.074-0.06387-0.074-0.15798 0-0.1709-0.1217-0.02913-0.2746l0.138-0.1487-0.30922 0.042c-0.2376 0.031-0.34225 0.02-0.45182-0.052-0.11724-0.077-0.17005-0.081-0.29707-0.023-0.13094 0.06-0.1629 0.056-0.20982-0.028-0.04636-0.083-0.07523-0.087-0.17784-0.026-0.09741 0.058-0.12793 0.057-0.14902 0-0.04418-0.122-0.14752-0.084-0.37545 0.1388-0.18747 0.1831-0.26225 0.2152-0.54736 0.2349-0.18163 0.013-0.3817 0-0.44462-0.038-0.12038-0.064-0.15734-0.3166-0.05562-0.3795 0.03918-0.024 0.03885-0.073-0.000975-0.1479-0.04877-0.091-0.03176-0.1301 0.09267-0.2116 0.11212-0.074 0.1454-0.1366 0.12585-0.2389-0.0205-0.1071 0.01123-0.1585 0.13867-0.2243 0.22113-0.1144 0.52267-0.113 0.52267 0 0 0.048 0.04249 0.088 0.09443 0.088 0.07556 0 0.08699 0.04 0.05722 0.1982-0.03323 0.1771 0.02343 0.2705 0.16404 0.2705 0.0071 0 0.01019-0.1295 0.0065-0.2879-0.007-0.3084-0.0906-0.4555-0.30518-0.5371-0.09795-0.037-0.13426-0.098-0.13426-0.2235 0-0.094 0.03104-0.1826 0.06898-0.1953 0.10317-0.035-0.000159-0.1626-0.13104-0.1626-0.06256 0-0.11374-0.037-0.11374-0.081s-0.03956-0.1136-0.0879-0.1537c-0.10692-0.088-0.1176-0.5018-0.01465-0.5664 0.04029-0.025 0.1194-0.039 0.17581-0.029 0.0564 0.01 0.10256-0.012 0.10256-0.045 0-0.035-0.03956-0.062-0.0879-0.062s-0.0879-0.036-0.0879-0.079c0-0.1165 0.19572-0.2728 0.34158-0.2728 0.07077 0 0.12724-0.037 0.12724-0.083s0.016-0.1249 0.03557-0.1758c0.06048-0.1576-0.18278-0.1092-0.26998 0.053-0.04312 0.081-0.11031 0.1466-0.1493 0.1466s-0.10408 0.08-0.14464 0.178c-0.08709 0.2102-0.2167 0.2908-0.46798 0.2908-0.16468 0-0.17897-0.014-0.13859-0.1318 0.05602-0.1641 0.05438-0.3351-0.0045-0.4689-0.03826-0.087-0.01338-0.1029 0.16289-0.1029 0.14856 0 0.23414-0.037 0.29927-0.1302 0.08578-0.1224 0.08248-0.1347-0.05528-0.207-0.16652-0.087-0.19054-0.2183-0.05399-0.2947 0.07878-0.044 0.07008-0.066-0.05861-0.1508-0.19347-0.1267-0.19778-0.2721-0.0081-0.2721 0.07868 0 0.15934-0.026 0.17926-0.059s-0.0202-0.059-0.08916-0.059c-0.09212 0-0.15011-0.063-0.2186-0.2373-0.07923-0.2017-0.11591-0.2347-0.24434-0.2198-0.14204 0.017-0.14992 0.035-0.13119 0.2959 0.02118 0.2958 0.0078 0.3131-0.17029 0.2177-0.0945-0.05-0.11335-0.041-0.11335 0.057 0 0.064-0.05248 0.1453-0.11661 0.1796-0.09937 0.054-0.10588 0.08-0.04406 0.1786 0.05903 0.095 0.05576 0.1461-0.01748 0.2766-0.04953 0.088-0.12639 0.1604-0.17082 0.1604-0.13114 0-0.13512 0.1289-0.005 0.1628 0.16611 0.043 0.1494 0.1959-0.0347 0.3165-0.15171 0.1-0.15662 0.098-0.29272-0.072-0.07614-0.095-0.13856-0.191-0.13872-0.213-0.000158-0.022 0.07883-0.2545 0.17552-0.5167 0.0967-0.2623 0.17581-0.527 0.17581-0.5883 0-0.061 0.07911-0.1699 0.17581-0.2414 0.20867-0.1543 0.22595-0.2685 0.04455-0.2943-0.15726-0.022-0.2202-0.2239-0.06996-0.2239 0.12097 0 0.25538-0.1637 0.25795-0.3143 0.0018-0.1 0.44263-0.5566 0.54272-0.5623 0.02351 0 0.1551 0.1196 0.29243 0.2685 0.1754 0.1903 0.24425 0.3123 0.23142 0.4102-0.02131 0.1626 0.03535 0.1801 0.13635 0.042 0.08593-0.1175 0.26399-0.066 0.26399 0.076 0 0.094-0.32513 0.4319-0.41658 0.4319-0.06383 0-0.22804-0.1742-0.22804-0.242 0-0.031-0.02637-0.042-0.05861-0.022-0.08864 0.055-0.07102 0.1341 0.05861 0.2637 0.15922 0.1593 0.50097 0.159 0.5863-0.0005 0.04669-0.087 0.0997-0.1085 0.20472-0.082 0.13611 0.035 0.13949 0.027 0.08556-0.1604-0.14491-0.5052 0.04156-0.6444 0.50186-0.3747 0.15181 0.089 0.32277 0.1456 0.3965 0.1314l0.12962-0.025-0.12853-0.01c-0.22237-0.014-0.42675-0.4182-0.21136-0.4182 0.07205 0 0.08189-0.018 0.03559-0.064-0.04631-0.046-0.09715-0.046-0.18368 0-0.16564 0.088-0.17145 0.086-0.27462-0.1133-0.08112-0.1568-0.08172-0.1915-0.0053-0.3007 0.04755-0.068 0.19018-0.1699 0.31694-0.2266 0.22248-0.1 0.23379-0.1 0.32546 0.01 0.05223 0.061 0.13584 0.1109 0.18578 0.1109 0.04995 0 0.19688 0.055 0.32652 0.1203 0.17843 0.091 0.29556 0.1112 0.48198 0.083 0.1788-0.026 0.32953 0 0.55013 0.083 0.24311 0.096 0.33872 0.1075 0.47825 0.059 0.13403-0.046 0.20592-0.041 0.31061 0.025 0.07492 0.047 0.23439 0.103 0.35438 0.1238 0.11999 0.021 0.24058 0.079 0.26798 0.1272 0.04144 0.075 0.07606 0.077 0.20588 0.018 0.08583-0.039 0.19737-0.1341 0.24786-0.2112l0.0918-0.1402 0.17723 0.1492c0.09747 0.082 0.23454 0.1496 0.30459 0.15s0.16667 0.025 0.21471 0.056c0.07652 0.048 0.07469 0.077-0.01465 0.2278-0.05611 0.095-0.102 0.1884-0.102 0.2076 0 0.059 0.22517 0.039 0.26371-0.024 0.06193-0.1 0.20511-0.064 0.20511 0.051 0 0.061-0.03956 0.2048-0.0879 0.3205-0.11175 0.2675-0.11309 0.2613 0.05023 0.2301 0.1167-0.022 0.14398 0 0.1758 0.162 0.02073 0.104 0.03767 0.3095 0.03767 0.4578 0 0.2605 0.003 0.2651 0.09122 0.1392 0.10844-0.1549 0.26039-0.1718 0.26039-0.029 0 0.1514 0.24771-0.119 0.43395-0.4737 0.11457-0.2182 0.13561-0.3105 0.09011-0.3955-0.08281-0.1548 0.02933-0.3454 0.20316-0.3454 0.07539 0 0.24368 0.038 0.37396 0.084 0.13029 0.046 0.35926 0.1019 0.50882 0.1244 0.19364 0.029 0.29822 0.081 0.36324 0.1801 0.05022 0.077 0.12783 0.1393 0.17247 0.1393 0.04465 0 0.08116 0.038 0.08116 0.085 0 0.046 0.05504 0.1231 0.12231 0.1703 0.12665 0.088 0.2721 0.069 0.59383-0.081 0.12601-0.059 0.17756-0.059 0.24596 0 0.0597 0.049 0.1876 0.059 0.41239 0.031 0.36768-0.046 0.50795 0.021 0.45665 0.2169-0.02082 0.08 0.0034 0.1422 0.06904 0.179 0.05558 0.031 0.15089 0.1728 0.2118 0.3149 0.10952 0.2555 0.18973 0.3158 0.26288 0.1974 0.02074-0.034 0.08162-0.048 0.13531-0.034 0.05369 0.015 0.15696 0.044 0.22948 0.065 0.16352 0.047 0.17757-0.065 0.01465-0.1165-0.06447-0.02-0.1172-0.075-0.1172-0.1212 0-0.046-0.0309-0.084-0.06865-0.084s-0.18082-0.117-0.31793-0.2601c-0.20874-0.2178-0.2357-0.2714-0.16576-0.3295 0.04594-0.038 0.08352-0.1098 0.08352-0.1592 0-0.073 0.02161-0.07 0.1225 0.021 0.06738 0.061 0.20582 0.1151 0.30766 0.1203 0.10184 0.01 0.30383 0.036 0.44887 0.069s0.27558 0.047 0.29008 0.034c0.06194-0.062-0.40804-0.4474-0.58986-0.4844-0.14431-0.029-0.20344-0.076-0.21707-0.17-0.02325-0.161 0.07193-0.1655 0.26645-0.013 0.19568 0.1539 0.32246 0.1519 0.29842 0-0.01361-0.089-0.10589-0.1527-0.33879-0.2344-0.39553-0.1388-0.35354-0.1412-0.61342 0.036-0.23315 0.1582-0.33235 0.1514-0.28758-0.02 0.01534-0.059-0.01352-0.1409-0.0641-0.183-0.05059-0.042-0.09198-0.1116-0.09198-0.1549 0-0.092 0.18062-0.2002 0.33311-0.1995 0.05852 0.0003 0.23024-0.058 0.38158-0.1295 0.25656-0.1212 0.2744-0.1441 0.26371-0.3375-0.0083-0.1501 0.01098-0.2027 0.0698-0.1902 0.04471 0.01 0.14572-0.043 0.22448-0.1171 0.1385-0.1302 0.14583-0.131 0.22339-0.025 0.05819 0.08 0.12121 0.1 0.22969 0.072 0.17248-0.043 0.18243-0.095 0.06307-0.3255-0.08174-0.1581-0.07867-0.1722 0.05654-0.2608 0.19029-0.1247 0.26429-0.1181 0.26429 0.023 0 0.1389 0.02142 0.143 0.19252 0.036 0.13683-0.085 0.64444-0.1727 0.96379-0.1659 0.17159 0 0.19602-0.018 0.26016-0.2323 0.07991-0.2667 0.18605-0.3348 0.35626-0.2285 0.07734 0.048 0.13594 0.053 0.17478 0.015 0.03884-0.039-0.000195-0.089-0.11666-0.1489-0.16354-0.085-0.2459-0.2343-0.24779-0.4504-0.00039-0.05 0.10406-0.1688 0.23222-0.2636 0.17423-0.1289 0.23337-0.214 0.23441-0.337 0.000781-0.09 0.02618-0.1493 0.05647-0.1306 0.0303 0.019 0.08964-0.01 0.13186-0.059 0.04222-0.052 0.11964-0.1342 0.17206-0.184 0.05241-0.049 0.08229-0.1402 0.06642-0.2009-0.03637-0.1391 0.07567-0.1447 0.15765-0.01 0.05787 0.097 0.06662 0.096 0.14942-0.012 0.11678-0.1509 0.12031-0.5102 0.0046-0.4659-0.04585 0.018-0.09777 0.069-0.11536 0.1155-0.0176 0.046-0.07765 0.083-0.13346 0.083-0.07891 0-0.08583-0.016-0.03115-0.07 0.16392-0.164 0.04228-0.1481-0.38384 0.049-0.7608 0.3536-0.84395 0.3338-0.5689-0.1356 0.08194-0.1398 0.12318-0.2542 0.09165-0.2542-0.0572 0-0.41749 0.2451-1.1503 0.7823-0.21316 0.1563-0.40213 0.2696-0.41994 0.2518-0.01779-0.018-0.01634-0.096 0.0032-0.1742 0.02418-0.097 0.08954-0.1525 0.20396-0.1754 0.09261-0.019 0.25375-0.1055 0.35809-0.1933l0.1897-0.1596-0.14939-0.079c-0.13094-0.068-0.17327-0.064-0.34268 0.039-0.47117 0.2855-0.58595 0.3005-0.45699 0.06 0.09298-0.1736 0.04745-0.1984-0.21537-0.1172-0.50645 0.1565-0.58134 0.1712-0.70548 0.1386-0.07135-0.019-0.16349-0.1102-0.20476-0.2034-0.07937-0.1794-0.16364-0.2246-0.16364-0.088 0 0.223-0.38798 0.1346-0.42077-0.096-0.01193-0.084-0.09445-0.1673-0.22735-0.2297-0.11473-0.054-0.24322-0.1397-0.28553-0.1907s-0.12488-0.092-0.1835-0.092c-0.14762 0-0.18942-0.091-0.10434-0.2272 0.05731-0.091 0.05586-0.134-0.0072-0.21-0.10591-0.1277-0.000176-0.2406 0.15297-0.1634 0.05987 0.03 0.17477 0.036 0.25535 0.012s0.11171-0.046 0.06917-0.049c-0.13718-0.01-0.04792-0.2646 0.12128-0.3455 0.11026-0.052 0.16116-0.1219 0.16116-0.2189 0-0.2018 0.21417-0.3191 0.70682-0.3874 0.42034-0.059 0.65036-0.019 0.86759 0.1482 0.09384 0.072 0.49258 0.2153 0.52092 0.187 0.01068-0.01-0.09746-0.096-0.24034-0.1878-0.51784-0.3357-0.50673-0.3187-0.19269-0.2945 0.23691 0.018 0.30958 0.054 0.42955 0.2064 0.07942 0.1019 0.16761 0.1702 0.19599 0.1527 0.08623-0.054-0.14949-0.4075-0.28443-0.4274-0.0694-0.01-0.17042-0.093-0.22449-0.1851-0.05804-0.098-0.16647-0.18-0.26469-0.1997-0.26885-0.053-0.20501-0.1701 0.06802-0.124 0.21127 0.036 0.23441 0.027 0.23441-0.083 0-0.1353 0.11613-0.1584 0.30061-0.06 0.08704 0.046 0.141 0.043 0.21023-0.015 0.15872-0.1318 0.3714-0.098 0.5034 0.081 0.16354 0.2211 0.3052 0.2082 0.81342-0.075 0.44751-0.2488 0.34138-0.2603-0.14505-0.016-0.1543 0.078-0.30632 0.1251-0.3378 0.1056-0.03148-0.019-0.11121-0.1412-0.17717-0.2704l-0.11993-0.2351 0.2672 0.017c0.28283 0.018 0.48793-0.088 0.30644-0.158-0.05374-0.021-0.09771-0.087-0.09771-0.1484 0-0.061-0.02637-0.1109-0.05861-0.1109-0.03223 0-0.05861 0.035-0.05861 0.078s-0.06602 0.1134-0.14672 0.1565c-0.1302 0.069-0.16153 0.065-0.27836-0.043-0.0724-0.067-0.18438-0.1317-0.24884-0.1442-0.09165-0.018-0.11406-0.063-0.10278-0.2076 0.0079-0.1019-0.01184-0.2011-0.04395-0.221-0.10776-0.066-0.05972-0.1464 0.08814-0.1464 0.08058 0 0.1465 0.021 0.1465 0.047 0 0.038 0.40717 0.049 0.52742 0.015 0.01611 0-0.063-0.058-0.1758-0.1182-0.22967-0.1229-0.50623-0.5821-0.44567-0.7398 0.02785-0.072 0.08145-0.088 0.21216-0.062 0.17142 0.035 0.1749 0.03 0.1749-0.2056v-0.2407l0.24285 0.033c0.27211 0.037 0.35907 0.1252 0.31333 0.3198-0.01705 0.072-0.0041 0.1318 0.02872 0.1318 0.03285 0 0.05972-0.065 0.05972-0.1454 0-0.104 0.03947-0.1552 0.13966-0.1803 0.15006-0.038 0.15129-0.0005-0.01836-0.556-0.04702-0.1539-0.04098-0.1741 0.04395-0.1473 0.08693 0.027 0.09883-0.028 0.10156-0.4808 0.0036-0.59157 0.12609-0.92489 0.31758-0.86406 0.06021 0.0189 0.16261 0.0452 0.22756 0.0578 0.06494 0.0126 0.1708 0.0504 0.23524 0.0851 0.17222 0.0924 0.4228 0.0767 0.54511-0.0347 0.14913-0.13499 0.14032 0-0.01402 0.21986-0.18273 0.25653 0.01293 0.22617 0.22081-0.0347 0.1161-0.1455 0.19445-0.19466 0.27142-0.17029 0.0704 0.0221 0.1378-0.0105 0.19291-0.0861 0.06617-0.0945 0.12389-0.11313 0.26371-0.0851 0.17383 0.0347 0.17851 0.0305 0.1618-0.16388-0.02108-0.24474 0.01777-0.31218 0.24547-0.42574 0.16187-0.0809 0.19451-0.0788 0.3651 0.0158 0.28071 0.15684 0.24985 0.31502-0.07217 0.37006-0.28741 0.0494-0.40535 0.12648-0.29577 0.19424 0.03865 0.0242 0.0871 0.0168 0.10766-0.0147 0.02057-0.0315 0.17694-0.0714 0.34748-0.0872 0.26348-0.0252 0.31913-0.0126 0.37033 0.084 0.04279 0.0798 0.04 0.13698-0.0096 0.19665-0.04542 0.0546-0.04806 0.084-0.0076 0.084 0.03428 0 0.07862-0.0263 0.09854-0.0588 0.01992-0.0326 0.07422-0.0588 0.12066-0.0588 0.12233 0 0.10367 0.2143-0.02661 0.30548-0.10729 0.0756-0.10747 0.0819-0.0053 0.20852 0.13611 0.16808 0.23351 0.16661 0.23351 0 0-0.0735 0.05274-0.23762 0.1172-0.36399 0.15372-0.30159 0.14785-0.38101-0.02818-0.38101-0.10732 0-0.1553-0.0399-0.18324-0.15074-0.06048-0.24096 0.06032-0.43519 0.27061-0.43519 0.10496 0 0.19284-0.0368 0.21263-0.0882 0.03201-0.083 0.3142-0.12911 0.3142-0.0504 0 0.02-0.05455 0.12533-0.12122 0.23311-0.06667 0.10788-0.13444 0.31638-0.15059 0.46323-0.02877 0.26168-0.02638 0.26641 0.11912 0.22985 0.20869-0.0525 0.59992 0.14076 0.68324 0.33731 0.03958 0.0935 0.0505 0.25484 0.02672 0.3955-0.05088 0.30116-0.0062 0.30146 0.14701 0 0.13166-0.258 0.1146-0.58921-0.03946-0.76611-0.0624-0.0714-0.06766-0.13247-0.02188-0.25285 0.14147-0.37216-0.02578-0.45652-0.23471-0.11849-0.09284 0.15032-0.16362 0.20337-0.25384 0.19055-0.15548-0.0221-0.2018-0.28644-0.06947-0.39632 0.04998-0.041 0.09087-0.12396 0.09087-0.18342 0-0.1437 0.16273-0.22165 0.39036-0.18709 0.15229 0.0231 0.20337 0.00063 0.2871-0.12721 0.15028-0.22942 0.38863-0.18845 0.44226 0.0756 0.02186 0.10767 0.06894 0.22501 0.10464 0.26072 0.0914 0.0914 0.0806 0.24855-0.02301 0.33446-0.04834 0.0399-0.0879 0.14885-0.0879 0.24161 0 0.14076 0.02417 0.1686 0.1465 0.1686 0.10819 0 0.1465 0.0315 0.1465 0.11902 0 0.0651 0.03956 0.13425 0.0879 0.15284 0.04834 0.0189 0.0879 0.0714 0.0879 0.11797 0 0.0462 0.06886 0.15316 0.15303 0.23741 0.14409 0.14403 0.14893 0.16703 0.08284 0.39283-0.10209 0.3489-0.22286 0.5156-0.34536 0.4768-0.06541-0.021-0.14959 0.021-0.23076 0.1142-0.07029 0.081-0.16429 0.147-0.2089 0.147s-0.11142 0.037-0.14847 0.081c-0.10396 0.1252 0.21066 0.1878 0.34287 0.068 0.14634-0.1325 0.17895-0.1135 0.17895 0.104 0 0.2258-0.15239 0.3926-0.48347 0.529-0.16965 0.07-0.21976 0.1233-0.21976 0.2344 0 0.096-0.07429 0.2045-0.21976 0.3233-0.16169 0.132-0.19192 0.18-0.11441 0.1815 0.05794 0 0.16786-0.065 0.24426-0.1479 0.1255-0.1355 0.1443-0.1402 0.1948-0.05 0.04736 0.085 0.08019 0.059 0.21487-0.1715 0.19631-0.335 0.46329-0.5663 0.6535-0.5663 0.08424 0 0.15875-0.043 0.17981-0.1029 0.01978-0.057 0.09146-0.1512 0.15932-0.2105 0.1061-0.092 0.10829-0.103 0.01566-0.074-0.12248 0.04-0.32671-0.1656-0.32987-0.3316-0.0016-0.079 0.0462-0.1029 0.20441-0.1029 0.16325 0 0.22031 0.03 0.27312 0.1464 0.03672 0.081 0.08889 0.1465 0.11595 0.1465 0.08127 0 0.05548-0.1562-0.03871-0.2344-0.12695-0.1054-0.11003-0.3682 0.0293-0.4552 0.15523-0.097 0.14785-0.1988-0.02626-0.36232-0.0789-0.0746-0.16054-0.21261-0.18142-0.30758-0.02087-0.0945-0.11377-0.25915-0.20644-0.36472-0.15283-0.17407-0.16519-0.21966-0.13305-0.4911 0.02687-0.22688 0.07493-0.33435 0.19885-0.44475 0.10845-0.0966 0.15341-0.18383 0.13366-0.25936-0.02484-0.0956 0.0074-0.1185 0.195-0.14224 0.14153-0.0179 0.2587 0.001 0.3164 0.0504 0.0553 0.0473 0.11339 0.0578 0.1465 0.0263 0.03018-0.0294 0.13132-0.062 0.22477-0.0725 0.1651-0.0189 0.22542-0.0809 0.29456-0.30204 0.03148-0.10085 0.0474-0.0987 0.27707 0.0294 0.13402 0.0746 0.24615 0.16178 0.24919 0.19298 0.003 0.0315-0.09996 0.0882-0.22889 0.12745l-0.23441 0.0704h0.20511c0.11281 0 0.28064 0.0441 0.37296 0.0924 0.28571 0.14907 0.45653 0.0756 0.23603-0.10084-0.28471-0.2283-0.73723-0.81205-0.70156-0.90502 0.01668-0.0431-0.04798-0.16808-0.14367-0.27711-0.09569-0.10898-0.17398-0.21445-0.17398-0.23441 0-0.083 0.25973-0.0263 0.48768 0.10684 0.13466 0.0788 0.3206 0.15666 0.41319 0.17326 0.09259 0.0168 0.21334 0.0704 0.26832 0.1207 0.05498 0.0494 0.13192 0.0903 0.17095 0.0903 0.03904 0 0.17535 0.0536 0.30292 0.11839 0.19792 0.10085 0.23195 0.14602 0.23194 0.30758-0.000022 0.36833 0.03042 0.51172 0.1086 0.51172 0.12063 0 0.50097 0.18898 0.55384 0.27522 0.02578 0.042 0.11807 0.0767 0.20511 0.0767 0.08703 0.00021 0.23736 0.0525 0.33405 0.11681 0.0967 0.0641 0.2328 0.1166 0.30245 0.11681 0.12827 0.00032 0.43007 0.30263 0.43007 0.43068 0 0.10694-0.59084 0.43616-0.91195 0.50811-0.15742 0.0357-0.422 0.14182-0.58795 0.23678-0.16595 0.0946-0.3457 0.1726-0.39944 0.1726-0.12368 0-0.67914 0.5593-0.67914 0.6839 0 0.082-0.07405 0.1811-0.47963 0.6401-0.0543 0.062-0.19274 0.1997-0.30766 0.3072-0.11492 0.1074-0.20894 0.2171-0.20894 0.2436 0 0.1082 0.2567-0.029 0.34478-0.1844 0.0521-0.092 0.14348-0.1828 0.20307-0.202 0.05958-0.019 0.15848-0.085 0.21976-0.1463 0.1492-0.1492 0.47204-0.1461 0.60954 0.011 0.11879 0.1313 0.4502 0.1564 0.78739 0.06 0.23884-0.068 0.29465-0.1431 0.29585-0.3955 0.000782-0.1533 0.02911-0.1965 0.14895-0.2265 0.08143-0.02 0.17466-0.087 0.20717-0.1476 0.03251-0.061 0.09775-0.1105 0.14496-0.1105 0.05712 0 0.08584-0.062 0.08584-0.1836 0-0.2215 0.11947-0.65145 0.1955-0.70376 0.03009-0.021 0.19925 0.042 0.37593 0.13866 0.25713 0.14108 0.36792 0.16997 0.5552 0.14486 0.1291-0.0168 0.35588 0.0105 0.50595 0.0514 0.32687 0.099 0.30129 0.098 0.30129 0.023 0-0.13021 0.35718-0.40817 0.52456-0.40817 0.09289 0 0.17874-0.0294 0.19075-0.0651 0.01202-0.0357 0.16585-0.0746 0.34185-0.0861 0.51138-0.0336 0.64468-0.0756 0.79424-0.2539 0.1753-0.20831 0.40315-0.27239 0.57301-0.16104 0.20452 0.13405 0.48142 0.17302 0.61951 0.0872 0.10678-0.0662 0.15506-0.0588 0.3535 0.0546 0.12641 0.0725 0.26416 0.13278 0.30613 0.13404 0.04196 0 0.17813 0.0893 0.3026 0.19591 0.20654 0.1768 0.24237 0.18814 0.41021 0.12963 0.10115-0.0357 0.24911-0.11019 0.3288-0.1666 0.19841-0.14045 0.28067-0.12953 0.46157 0.0609 0.08546 0.0903 0.24245 0.19949 0.34888 0.24277 0.13098 0.0536 0.18277 0.10694 0.16027 0.16556-0.01885 0.0493 0.03262 0.15243 0.11893 0.23873 0.12262 0.1226 0.14474 0.1867 0.1139 0.3299-0.02105 0.098-0.05217 0.3096-0.06914 0.4707-0.01698 0.1612-0.0654 0.3326-0.10759 0.3809-0.0422 0.048-0.08575 0.1669-0.09679 0.2635-0.01955 0.171-0.01219 0.1766 0.28166 0.2127 0.16595 0.02 0.33077 0.055 0.36626 0.077 0.09023 0.056 0.08041 0.2585-0.02792 0.5764-0.11829 0.3472-0.02939 0.582 0.23778 0.6284 0.1452 0.025 0.19113 0.078 0.28147 0.3228 0.05937 0.1609 0.1986 0.3861 0.30939 0.5002 0.11079 0.1142 0.20144 0.2423 0.20144 0.2846 0 0.042 0.06593 0.1554 0.1465 0.2511 0.15302 0.1819 0.19498 0.4322 0.07891 0.4709-0.12021 0.04 0.12432 0.3389 0.27732 0.3389 0.09334 0 0.1855 0.07 0.28627 0.2187 0.08244 0.1213 0.14862 0.1774 0.14862 0.1259 0-0.051-0.08571-0.206-0.19046-0.3445s-0.22408-0.2968-0.26516-0.3518c-0.09024-0.1208-0.03618-0.293 0.092-0.293 0.18097 0 0.47508 0.261 0.5606 0.4975 0.12986 0.359 0.1611 0.8737 0.06166 1.0156-0.12854 0.1835-0.79644 0.5966-0.96464 0.5966-0.08264 0-0.23962 0.066-0.34884 0.1465-0.10922 0.081-0.23334 0.1465-0.27583 0.1465s-0.13991 0.1416-0.21648 0.3148-0.16854 0.333-0.20437 0.355c-0.11258 0.069-0.07102 0.1507 0.07728 0.1507 0.10308 0 0.1476 0.037 0.16116 0.1318 0.0212 0.1493 0.16085 0.1768 0.22263 0.044 0.1769-0.3805 0.22564-0.4426 0.38393-0.49 0.0957-0.028 0.26792-0.09 0.38272-0.1366 0.16388-0.066 0.29608-0.072 0.61532-0.029 0.44119 0.06 0.4945 0.05 0.4945-0.087 0-0.07 0.03673-0.082 0.16116-0.05 0.08864 0.022 0.22708 0.041 0.30766 0.041 0.11034-0.0003 0.18558 0.063 0.30483 0.2577 0.08709 0.1421 0.17524 0.3484 0.19591 0.4586 0.04285 0.2285 0.02792 0.2374-0.50074 0.3001-0.58856 0.069-1.6589 0.2652-2.5674 0.469-4.5609 1.0228-8.3663 3.0116-11.262 5.8858-1.622 1.6101-2.9866 3.5729-3.7175 5.3472-0.27488 0.6673-0.26313 0.7157 0.03278 0.1352 1.5531-3.047 4.4552-5.3355 8.5408-6.7348 2.5248-0.8647 5.7334-1.3999 8.592-1.4332 0.85046-0.01 0.98337 0.0002 0.90833 0.069-0.04834 0.044-0.31441 0.269-0.59126 0.4988l-0.50335 0.4178-0.9617 0.033c-4.5744 0.1549-8.6718 1.2714-11.472 3.1265-0.89048 0.5897-1.2265 0.8669-2.0301 1.6749-1.1224 1.1283-1.8371 2.2006-2.3999 3.6011-0.14656 0.3647-0.26564 0.6802-0.26461 0.7012 0.000977 0.021 0.15904-0.275 0.35115-0.6578 0.48968-0.9757 0.92388-1.6021 1.5902-2.2938 1.5058-1.5635 3.4843-2.4535 6.4076-2.8828 0.69211-0.1019 4.549-0.175 4.7701-0.09 0.135 0.052 0.12362 0.067-0.28923 0.4153l-0.42977 0.3617h-1.2344c-3.4773 0.01-3.9767 0.051-5.2194 0.4496-1.2849 0.4121-2.3911 1.0873-3.3403 2.0388-0.32231 0.323-0.73612 0.7988-0.91958 1.0571-0.40519 0.5705-1.0234 1.7518-1.2712 2.4291-0.17316 0.4733-3.0541 10.154-3.0541 10.262 0 0.028 0.89293 0.052 2.0201 0.052h2.0201l0.12994-0.4249c0.07147-0.2336 0.52815-1.7434 1.0149-3.3549l0.88491-2.9301 2.0781-0.016 2.0781-0.016 0.40698-1.4497c0.22384-0.7972 0.41785-1.4825 0.43113-1.5227 0.01902-0.058-0.4135-0.074-2.0332-0.074-1.8482 0-2.0573-0.01-2.0573-0.093 0-0.051 0.08046-0.3351 0.1788-0.6299 0.47466-1.4231 1.4464-2.3709 2.8701-2.7991 0.40833-0.123 0.57122-0.1334 2.4113-0.1545l1.9734-0.023-0.03421 0.1361c-0.01881 0.074-0.08276 0.1988-0.1421 0.2757-0.06344 0.082-0.10789 0.2362-0.10789 0.3738v0.2339l-0.21976-0.035c-0.32382-0.051-0.42413 0.043-0.13709 0.1286 0.34849 0.1051 0.47405 0.3005 0.47405 0.7399 0 0.349 0.01131 0.3772 0.27836 0.6912 0.33562 0.3947 0.60067 0.8128 0.60067 0.9476 0 0.2042-0.1165 0.3256-0.31265 0.3256-0.18148 0-0.33197 0.085-0.33197 0.1875 0 0.077 0.22253 0.053 0.2493-0.026 0.01922-0.057 0.04613-0.056 0.12208 0.01 0.13879 0.1145 0.11904 0.2383-0.08 0.5014-0.09801 0.1295-0.17418 0.1904-0.17418 0.139 0-0.05-0.03881-0.1233-0.08628-0.1627-0.12648-0.1051-0.31036 0.079-0.20538 0.2053 0.03938 0.047 0.11584 0.086 0.1699 0.086 0.16628 0 0.23895 0.1283 0.23895 0.422 0 0.1547 0.01978 0.2834 0.04395 0.2861 0.02417 0 0.10439 0.012 0.17826 0.02 0.16265 0.018 0.44549 0.2199 0.46806 0.3343 0.009 0.045-0.02347 0.135-0.07214 0.1989-0.06819 0.089-0.09989 0.099-0.13823 0.041-0.02736-0.041-0.09347-0.059-0.1469-0.038-0.06869 0.026-0.12741-0.016-0.20042-0.1446-0.16014-0.2822-0.28901-0.2885-0.54271-0.027-0.12057 0.1243-0.2622 0.2601-0.31475 0.3016-0.11552 0.091-0.12604 0.2467-0.01672 0.2467 0.04335 0 0.12832 0.055 0.18882 0.1216 0.07049 0.078 0.1584 0.1123 0.24474 0.096 0.09277-0.018 0.19678 0.032 0.33389 0.1568 0.24985 0.229 0.30631 0.435 0.18404 0.6715-0.10244 0.1981-0.12062 0.4245-0.04098 0.5103 0.05696 0.061 0.30545 1.2077 0.34234 1.5793 0.0128 0.1289-0.01246 0.4585-0.05612 0.7325-0.10186 0.6392-0.05659 0.9163 0.18234 1.1157 0.10064 0.084 0.18297 0.1813 0.18297 0.2162 0 0.035-0.09229 0.1739-0.20511 0.3089-0.11281 0.1351-0.20511 0.3076-0.20511 0.3835 0 0.088-0.07307 0.1937-0.20511 0.2944-0.11281 0.086-0.20511 0.196-0.20511 0.2443 0 0.048-0.08291 0.1824-0.18426 0.2977-0.26561 0.3026-0.38312 0.6143-0.45403 1.2047-0.0599 0.4988-0.07294 0.5312-0.31873 0.7941-0.40394 0.4317-0.48952 1.0676-0.23921 1.777 0.11506 0.3261 0.1047 0.4247-0.06371 0.6064-0.08058 0.087-0.1465 0.1913-0.1465 0.2318 0 0.041-0.0923 0.1843-0.20511 0.3194-0.11281 0.135-0.20511 0.2938-0.20511 0.3528s-0.06265 0.1568-0.13922 0.217c-0.07657 0.06-0.19626 0.2137-0.26598 0.3412-0.06971 0.1274-0.17614 0.3108-0.23649 0.4075-0.09459 0.1515-0.16886 0.4551-0.17653 0.7215-0.0016 0.058-0.06725 0.067-0.26014 0.038-0.23025-0.035-0.26224-0.025-0.29814 0.088-0.03665 0.1154-0.05146 0.1193-0.16694 0.043-0.07217-0.047-0.14018-0.1692-0.15799-0.2821l-0.03127-0.1982-0.10209 0.1904c-0.10669 0.1991-0.20582 0.2315-0.39594 0.1297-0.0631-0.034-0.11335-0.037-0.11335-0.011 0 0.1087 0.19999 0.2146 0.4164 0.2205 0.25744 0.011 0.52123 0.1581 0.52123 0.2984 0 0.1378 0.1715 0.3088 0.27138 0.2705 0.04651-0.018 0.12539-0.1114 0.17529-0.2079 0.06622-0.1281 0.10821-0.1579 0.15547-0.1106 0.04726 0.047 0.03801 0.1208-0.03429 0.2723-0.14674 0.3077-0.12653 0.4692 0.07688 0.614 0.31152 0.2219 0.32485 0.3075 0.13804 0.8868-0.0921 0.2856-0.19634 0.5193-0.23163 0.5194-0.12635 0-0.27314-0.2272-0.24419-0.3787 0.0364-0.1903-0.03201-0.1898-0.15724 0-0.08079 0.1233-0.13645 0.1467-0.3144 0.1319-0.16894-0.014-0.21242-0.041-0.19883-0.1214 0.02852-0.1693-0.1649-0.1972-0.28295-0.041-0.09105 0.1207-0.47016 0.2926-0.85495 0.3877-0.09098 0.022-0.18785-0.034-0.36167-0.2091-0.13057-0.1318-0.2758-0.2398-0.32273-0.2398s-0.11761-0.039-0.15707-0.086c-0.05013-0.061-0.14501-0.078-0.31484-0.059-0.6104 0.069-0.65221 0.065-0.67149-0.07-0.01168-0.082 0.05885-0.2131 0.19727-0.3662 0.11851-0.1312 0.20091-0.2386 0.1831-0.2386-0.06746 0-0.76436 0.5033-0.78575 0.5675-0.01232 0.037 0.03369 0.085 0.10226 0.1068 0.08859 0.028 0.11256 0.067 0.08284 0.1368-0.02301 0.054-0.05441 0.1708-0.06979 0.2605-0.01795 0.105-0.08933 0.195-0.19935 0.2519-0.09426 0.048-0.26335 0.2324-0.37575 0.4081-0.11241 0.1758-0.24313 0.3196-0.29048 0.3196-0.12398 0-0.10778-0.2497 0.02736-0.4215 0.09821-0.1249 0.10881-0.2056 0.07893-0.6007-0.032-0.4232-0.05099-0.4756-0.25996-0.717-0.16529-0.191-0.22543-0.3131-0.22543-0.4578 0-0.1427-0.04219-0.2305-0.15231-0.317l-0.15231-0.1199 0.11566-0.192c0.06981-0.116 0.13019-0.3548 0.15232-0.6024 0.03327-0.3722 0.02852-0.3997-0.05125-0.2965-0.04835 0.063-0.08791 0.2019-0.08791 0.3097 0 0.1076-0.06593 0.3259-0.1465 0.4849-0.08058 0.159-0.1465 0.3808-0.1465 0.4927 0 0.2488-0.05759 0.2889-0.46882 0.3272l-0.32231 0.029 0.2582 0.1291c0.29151 0.1457 0.43425 0.1109 0.54524-0.1327 0.08416-0.1848 0.28062-0.1924 0.28092-0.011 0.000117 0.072 0.05604 0.2234 0.12427 0.3353 0.10925 0.1792 0.11549 0.2272 0.05231 0.4019-0.06103 0.1687-0.05595 0.2333 0.0341 0.433l0.10583 0.2347-0.2747 0.2595c-0.2405 0.2273-0.30582 0.2589-0.52463 0.2539-0.13746 0-0.33563 0.012-0.44038 0.034-0.2443 0.05-0.24858-0.039-0.01465-0.3054 0.0967-0.1101 0.17581-0.223 0.17581-0.2509 0-0.027-0.11892-0.06-0.26426-0.071-0.22138-0.018-0.27017 0-0.30068 0.093-0.02003 0.063-0.14505 0.2166-0.27781 0.3411-0.20834 0.1954-0.26545 0.2206-0.41719 0.1842-0.32026-0.077-1.261-0.064-1.3291 0.018-0.03608 0.043-0.19048 0.076-0.36614 0.076-0.23198 0-0.35067 0.035-0.50233 0.1465-0.10922 0.081-0.27189 0.1465-0.36149 0.1465-0.12175 0-0.18589 0.044-0.25383 0.1757-0.10941 0.2117-0.16302 0.2185-0.304 0.039-0.05907-0.075-0.13864-0.126-0.17681-0.1133-0.03817 0.013-0.11702 0-0.17521-0.034-0.09338-0.049-0.10614-0.029-0.10866 0.172-0.0032 0.2538-0.0046 0.2522 0.15075 0.1691 0.08948-0.048 0.12438-0.034 0.18073 0.074 0.09263 0.1758 0.16434 0.2182 0.3746 0.2212h0.1758l-0.1882 0.1596c-0.10351 0.087-0.24029 0.2831-0.30396 0.4341-0.13929 0.3304-0.31158 0.4526-0.82145 0.5824-0.36068 0.092-0.38474 0.1083-0.36884 0.2516 0.02266 0.2041-0.11938 0.2527-0.37794 0.1294-0.19122-0.091-0.21463-0.09-0.37994 0.011-0.16985 0.1-0.17912 0.1-0.25846-0.011-0.04525-0.062-0.06829-0.1677-0.05118-0.2359 0.02116-0.084-0.01672-0.1689-0.11847-0.2645-0.16764-0.1575-0.17913-0.2423-0.08205-0.6052 0.04886-0.1828 0.05014-0.3004 0.0046-0.4258l-0.06289-0.1732-0.0046 0.1883c-0.0025 0.104-0.05771 0.3301-0.1226 0.5036l-0.11798 0.3152 0.122 0.2758c0.14366 0.3248 0.11576 0.5444-0.0942 0.7417-0.16888 0.1586-0.1781 0.2226-0.04604 0.3191 0.05588 0.041 0.08218 0.1111 0.06166 0.1645-0.03825 0.1-0.54953 0.2754-0.8013 0.2754-0.22602 0-0.41262 0.1552-0.41262 0.3432 0 0.1816-0.09422 0.3013-0.23704 0.3013-0.05302 0-0.14413 0.053-0.20247 0.1173-0.06639 0.074-0.18049 0.1172-0.305 0.1172-0.10942 0-0.27825 0.041-0.3752 0.091-0.2174 0.1124-0.96851 0.098-1.0875-0.021-0.08505-0.085-0.10223-0.2931-0.03318-0.4016 0.02379-0.038 0.16184-0.131 0.30676-0.2079 0.20909-0.111 0.26036-0.168 0.24832-0.2759-0.0083-0.074 0.0378-0.2216 0.10256-0.3263 0.06475-0.1051 0.11773-0.2034 0.11773-0.2191 0-0.016-0.18346-0.02-0.40769-0.011-0.22423 0.011-0.42357-0.01-0.44298-0.038-0.0194-0.032-0.09015-0.057-0.15722-0.057-0.06706 0-0.1521-0.041-0.18896-0.091-0.05988-0.082-0.08344-0.079-0.22081 0.029-0.19103 0.1503-0.2367 0.1508-0.3697 0-0.05834-0.064-0.16132-0.1168-0.22884-0.1164-0.09942 0-0.10621 0.012-0.03567 0.056 0.07136 0.045 0.07493 0.087 0.01974 0.2335-0.06763 0.1792-0.02496 0.2218 0.1824 0.1817 0.03015-0.011 0.11562 0 0.18992 0.023 0.12001 0.03 0.13352 0.065 0.12098 0.3112-0.01305 0.2565-0.0032 0.2787 0.13239 0.2949 0.08058 0.01 0.18606 0.032 0.23441 0.048 0.07434 0.025 0.07223 0.039-0.01368 0.087-0.08463 0.047-0.0896 0.076-0.02985 0.1719 0.03945 0.063 0.1153 0.1148 0.16856 0.1148 0.15013 0 0.17798 0.1658 0.04945 0.2943-0.06373 0.064-0.14518 0.1159-0.181 0.1159-0.04289 0-0.05177 0.071-0.02602 0.2085 0.03635 0.1937 0.01928 0.2268-0.24254 0.4698-0.1549 0.1437-0.34757 0.2751-0.42815 0.292-0.08058 0.017-0.2641 0.089-0.40783 0.1602-0.14373 0.071-0.28531 0.1294-0.31462 0.1294s-0.08312-0.09-0.11959-0.2006c-0.03646-0.1104-0.10293-0.2127-0.1477-0.2274-0.05046-0.017-0.0654 0-0.03931 0.041 0.02315 0.038 0.06495 0.1478 0.09288 0.2452 0.04057 0.1415 0.02805 0.1998-0.06219 0.29-0.09354 0.093-0.1408 0.103-0.27465 0.052-0.1433-0.055-0.17699-0.043-0.29651 0.104-0.1096 0.1342-0.12847 0.21-0.10086 0.4051 0.02457 0.1736 0.0098 0.2601-0.05334 0.3125-0.07326 0.061-0.10147 0.039-0.17505-0.1375-0.08681-0.2077-0.09139-0.2099-0.439-0.2099-0.28969 0-0.36629-0.021-0.43691-0.1223-0.07014-0.1-0.10715-0.1107-0.20458-0.059-0.06542 0.035-0.191 0.064-0.27907 0.064-0.28217 0-0.02404 0.1 0.29054 0.1128 0.08079 0 0.09749 0.031 0.0648 0.1069-0.02421 0.057-0.04861 0.1685-0.05423 0.2491-0.0235 0.3374-0.14926 0.523-0.40009 0.5906-0.20921 0.057-0.2504 0.052-0.31686-0.04-0.04201-0.058-0.07638-0.1258-0.07638-0.1519 0-0.026-0.05072-0.047-0.11271-0.047s-0.19424-0.068-0.29388-0.1524c-0.09964-0.084-0.21962-0.1377-0.26662-0.1197s-0.16377-0.034-0.2595-0.1136c-0.17-0.1431-0.17549-0.1438-0.23599-0.031-0.09176 0.1714-0.07588 0.2407 0.05526 0.2407 0.15214 0 0.15772 0.2085 0.0078 0.2887-0.07701 0.041-0.1011 0.103-0.08121 0.2066 0.01807 0.094-0.000586 0.1554-0.05168 0.1689-0.11012 0.029-0.41 0.1328-0.53443 0.1847-0.08051 0.034-0.12198 0-0.19076-0.1675-0.10401-0.249-0.34461-0.4313-0.45383-0.344-0.04013 0.033-0.22758 0.077-0.41657 0.1-0.33281 0.04-0.34983 0.036-0.54119-0.1499-0.2429-0.2356-0.3435-0.1781-0.11181 0.064 0.16566 0.173 0.16606 0.1752 0.05433 0.3007-0.0619 0.069-0.24029 0.1862-0.39641 0.2592-0.16908 0.079-0.34173 0.2179-0.42698 0.3433-0.13555 0.1995-0.3147 0.2838-0.3147 0.1482 0-0.035-0.04953-0.047-0.11248-0.027-0.08122 0.025-0.1234 0-0.15181-0.088-0.03432-0.1081-0.05174-0.1137-0.13658-0.043-0.15424 0.1283-0.40945 0.2207-0.60908 0.2207h-0.18401l0.15089-0.1611c0.08299-0.088 0.17066-0.2271 0.19483-0.3077 0.02417-0.081 0.09306-0.2093 0.15309-0.2862 0.14095-0.1805 0.13928-0.2614-0.0038-0.1848-0.06212 0.034-0.15443 0.044-0.20511 0.025-0.05069-0.02-0.09215-0.011-0.09215 0.027 0 0.096-0.35311 0.4771-0.44164 0.4771-0.04284 0-0.0955-0.056-0.11703-0.1233-0.0295-0.092 0.01252-0.1763 0.17041-0.3379l0.20955-0.2146-0.17236-0.077c-0.19763-0.087-0.32286-0.035-0.32286 0.1369 0 0.094-0.03989 0.1176-0.20511 0.1196-0.11281 0-0.29741 0.061-0.41021 0.1316-0.26352 0.166-0.29177 0.163-0.299-0.032-0.0059-0.1572-0.0076-0.1564-0.06861 0.035-0.05519 0.1726-0.08167 0.192-0.22312 0.1636-0.10955-0.022-0.17096 0-0.19346 0.054-0.01813 0.047-0.10152 0.1171-0.1853 0.1554-0.18485 0.084-0.25888 0-0.26026-0.2903-0.0012-0.2288-0.0354-0.2368-0.18717-0.044-0.06367 0.081-0.17599 0.1466-0.25098 0.1466-0.09163 0-0.1331 0.033-0.1276 0.099 0.0045 0.055-0.05355 0.1307-0.12896 0.1692-0.09172 0.047-0.11112 0.079-0.05861 0.097 0.06471 0.022 0.06394 0.044-0.0044 0.1268-0.10644 0.1289-0.51327 0.1111-0.48415-0.021 0.015-0.068-0.0044-0.065-0.09251 0.015-0.12301 0.1113-0.36598 0.1368-0.36598 0.039zm3.5161-1.2268c0-0.033-0.02793-0.059-0.06206-0.059s-0.04576 0.026-0.02584 0.059c0.01992 0.032 0.04785 0.059 0.06206 0.059 0.01422 0 0.02584-0.026 0.02584-0.059z" fill="#008e4b"/>
  <path id="path4151" d="m49.835 1012.6-0.49407 0.4098-0.96144 0.033c-4.5744 0.1548-8.6718 1.2716-11.472 3.1265-0.89049 0.5899-1.2264 0.867-2.0301 1.6749-1.1224 1.1284-1.8373 2.2008-2.4002 3.6013-0.14656 0.3646-0.26542 0.6801-0.26439 0.7012 0.000977 0.021 0.15889-0.275 0.351-0.6577 0.48968-0.9757 0.92385-1.6023 1.5902-2.2942 1.5058-1.5633 3.4844-2.4536 6.4077-2.8827 0.69211-0.1019 4.5491-0.1751 4.7702-0.091 0.135 0.051 0.12366 0.068-0.2892 0.4155l-0.0206 0.017c0.22404-0.1885 0.63011-0.5223 0.90497-0.7444 1.4267-1.1528 3.3956-2.7985 3.3956-2.8382 0-0.025 0.23074-0.2365 0.51277-0.4707zm-19.888 15.858c-0.0097-0.011-0.09788 0.1478-0.26897 0.4659-0.79871 1.4846-1.561 2.3737-2.7882 3.2509-1.5393 1.1003-3.7205 1.8024-6.3703 2.0508-0.82362 0.077-3.3025 0.078-4.2841 0-0.95861-0.075-2.3805-0.2315-2.5635-0.2827l-0.13926-0.039c-0.10044 0.1469-0.20572 0.3019-0.34871 0.5158l-2.0511 3.3806c0.44719 0 2.3018-0.1427 3.1747-0.238 8.049-0.8788 13.491-3.9029 15.438-8.5797 0.14287-0.3431 0.21148-0.5171 0.20183-0.5257zm-15.46 4.8095c-0.02441 0.0002-0.05272 0-0.07287 0h0.07287zm-0.08127 0c-0.03577 0-0.06679 0.01-0.08737 0.016h-0.0038c0.02216-0.011 0.05406-0.014 0.09118-0.017zm-0.09118 0.017c-0.07974 0.03-0.13614 0.028-0.18504 0 0.04524 0.035 0.09765 0.036 0.18504 0z" fill="#f69b19"/>
 </g>
</svg>
