<?xml version="1.0" encoding="UTF-8" standalone="no"?>
<svg id="svg2" xmlns:rdf="http://www.w3.org/1999/02/22-rdf-syntax-ns#" xmlns="http://www.w3.org/2000/svg" xml:space="preserve" height="56" viewBox="0 0 56.000002 56.000004" width="56" version="1.1" y="0px" x="0px" xmlns:cc="http://creativecommons.org/ns#" xmlns:dc="http://purl.org/dc/elements/1.1/" enable-background="new 0 0 126.658 38.878"><path id="path6" d="m46.008 30.029-11.859-12.328 15.744-15.652-12.388-0.1244-9.325 9.5124-9.326-9.5124-12.384 0.1244 15.742 15.652-11.855 12.328s-9.9964 8.9849-0.70752 18.21c6.5611 6.5169 18.531 6.4685 18.531 6.4685s11.97 0.04837 18.534-6.4685c9.2875-9.2253-0.70475-18.21-0.70475-18.21zm-6.7877 16.837c-4.6583 4.4482-11.041 4.2409-11.041 4.2409s-6.3828 0.2059-11.041-4.2409c-4.6583-4.4537-2.2773-9.007-1.2395-10.353 1.035-1.3432 12.282-12.621 12.282-12.621s11.25 11.277 12.283 12.621c1.0322 1.3459 3.4118 5.8992-1.2437 10.353z" fill="#fcca46"/></svg>
