<?xml version="1.0" encoding="UTF-8" standalone="no"?>
<svg xmlns:rdf="http://www.w3.org/1999/02/22-rdf-syntax-ns#" xmlns="http://www.w3.org/2000/svg" height="227" width="227" version="1.1" xmlns:cc="http://creativecommons.org/ns#" xmlns:dc="http://purl.org/dc/elements/1.1/" viewBox="0 0 226.99999 226.99999">
 <g transform="translate(-593.21 -786.43)">
  <g transform="matrix(.15 0 0 .15 601.1 764.97)">
   <circle cy="900.93" cx="705.71" r="750" fill="#e81b23"/>
   <circle cy="900.93" cx="705.71" r="675" fill="#fff"/>
   <path id="trunk" d="m720.56 288.69c-3.8785-0.004-7.7816 0.007-11.707 0.0312-215.33 1.3515-401.98 49.795-401.96 287.12 0.004 61.448 2.107 66.398 38 66.291 35.505-0.10987 736.28-0.85005 736.79-0.84375 27.427 0.34084 34.753-6.3263 34.623-53.201-0.6688-241.48-151.4-299.15-395.75-299.39zm371.68 377.5c-27.439 0.54879-708.75 0.66317-753.26 0.42187-22.202-0.12723-29.979 5.9118-29.979 24.912 0 39.304-2.973 342.86-1.2656 392.25 0.67134 19.419 11.401 25.145 25.756 25.334 32.092 0.4223 111.89 1.4725 141.45 0.8437 20.267-0.4223 28.992-10.111 29.979-39.268 0.92446-27.335-0.43421-72.631 0.42188-113.16 0.28867-13.666 5.0664-23.644 19-24.066 35.315-1.0701 171.06-1.0878 198.03-0.42187 34.201 0.84449 39.691 0.42137 40.535 35.889 1.0035 42.148 0.84287 67.981-0.42382 100.49-1.3533 34.735 10.135 38 28.713 38.422 27.438 0.6236 90.779-0.8903 122.45-0.4219 42.103 0.604 41.319-12.226 41.801-67.135 0.21772-23.648 0.0356-106.02-0.84375-143.56-0.21842-9.3247 4.646-15.94 10.979-16.045 25.815-0.4222 31.19 67.146 37.578 100.91 23.683 125.18 78.428 141.15 128.36 141.45 62.59 0.3921 122.23-51.499 122.45-158.34 0.033-16.086-3.3787-29.979-15.201-29.979-52.792 0-21.963 0.7739-49.822 0-14.778-0.4222-27.868 1.6879-24.912 24.488 2.9556 22.8 4.2539 65.3-24.49 66.291-12.245 0.4222-21.955-8.4458-21.955-33.357 0-24.912-1.7543-278.69-2.5332-298.94-0.4223-10.978-0.8449-27.446-22.801-27.023z" fill-rule="evenodd" transform="translate(-44.286 150.93)" fill="#e81b23"/>
   <path d="m651.38 387.97 23.482 73.174-62.135 45.787 76.848 0.27929 24.346 73.244 24.014-73 77.182-0.52343-62.008-45.395 23.355-73.566-62.336 44.945-62.748-44.945zm235.18 0.8457 23.482 73.172-62.135 45.789 76.848 0.2793 24.348 73.242 24.012-73 77.182-0.52148-62.006-45.396 23.353-73.564-62.336 44.943-62.748-44.943zm-470.79 0.0274 23.482 73.172-62.135 45.789 76.848 0.27735 24.346 73.244 24.014-73 77.182-0.52149-62.008-45.396 23.354-73.564-62.334 44.943-62.748-44.943z" fill-rule="evenodd" transform="translate(-44.286 150.93)" fill="#fff"/>
  </g>
 </g>
</svg>
